<svg width="1920" height="1094" viewBox="0 0 1920 1094" fill="none" xmlns="http://www.w3.org/2000/svg">
<g clip-path="url(#clip0_5946_21267)">
<rect width="1920" height="1094" fill="#020203"/>
<rect width="1920" height="1094" fill="#36D9FF" fill-opacity="0.03"/>
<g opacity="0.3">
<path d="M1059.54 -223.677C1029.46 -139.263 1026.16 -37.9194 961.053 29.9217C926.792 65.6328 879.605 87.7359 833.094 102.637C784.953 118.055 734.307 125.019 683.819 124.939C633.013 124.859 582.307 117.737 533.132 105.084C507.998 98.6183 483.241 90.7002 459.001 81.4292C434.782 72.1782 411.338 61.2361 387.695 50.6719C361.924 39.1529 335.755 28.4097 308.215 21.8843C280.416 15.2991 251.802 12.6133 223.267 12.4939C195.11 12.3746 167.092 14.8813 139.174 18.3629C111.435 21.8246 83.2581 25.6046 55.3597 21.5262C6.781 14.4237 -34.8976 -16.3932 -67.9462 -51.1692C-101.273 -86.2437 -127.461 -128.003 -144.642 -173.224C-148.917 -184.484 -152.596 -195.963 -155.757 -207.602C-156.095 -208.835 -154.167 -209.372 -153.849 -208.139C-140.904 -160.451 -118.334 -115.529 -87.6123 -76.8335C-57.3475 -38.7151 -18.433 -3.08365 28.3361 12.8918C81.2297 30.9563 137.484 14.4038 191.451 11.3599C245.22 8.33592 298.67 13.5086 349.337 32.508C373.815 41.6994 397.398 53.0195 421.26 63.6234C445.102 74.2074 469.362 83.6972 494.198 91.7148C542.458 107.292 592.528 117.618 643.115 121.378C693.424 125.098 744.329 122.273 793.623 111.251C842.003 100.429 890.88 82.2051 931.306 52.9797C970.339 24.769 995.176 -15.1598 1011.14 -60.0224C1026.43 -103.015 1034.71 -148.057 1047.27 -191.865C1050.4 -202.767 1053.82 -213.57 1057.61 -224.254C1058.05 -225.388 1059.96 -224.89 1059.54 -223.677Z" fill="url(#paint0_linear_5946_21267)"/>
<path d="M-146.054 -211.222C-133.188 -163.375 -111.912 -117.896 -82.9793 -77.6291C-54.6036 -38.138 -18.3138 -0.73593 27.0037 18.7609C77.69 40.5656 133.407 30.5187 186.679 28.9868C241.243 27.435 294.713 32.17 347.05 48.2051C397.577 63.6832 445.917 85.3088 496.882 99.4739C545.659 113.022 595.868 121.796 646.475 124.004C696.486 126.173 746.914 121.855 795.373 109.023C844.011 96.1514 892.888 75.1227 931.743 42.5948C1005.08 -18.8004 1017.51 -117.18 1042.46 -203.802C1045.58 -214.624 1048.94 -225.368 1052.62 -236.011C1053.04 -237.205 1054.97 -236.688 1054.53 -235.474C1025.04 -150.484 1018.9 -51.3482 958.07 19.4771C925.956 56.8792 880.877 81.5089 835.202 98.499C788.095 116.026 738.025 124.74 687.856 126.292C636.811 127.864 585.668 122.154 535.816 111.232C510.722 105.721 485.925 98.877 461.507 90.8396C435.497 82.2848 410.085 72.0788 384.334 62.8278C357.887 53.3181 331.003 44.5047 303.423 38.9939C275.425 33.3835 246.85 31.1156 218.335 30.7376C190.437 30.3397 162.658 32.0705 134.819 33.6621C107.955 35.194 80.6728 35.8107 54.2658 29.8025C6.82067 19.0196 -32.4321 -13.4487 -63.4922 -49.5974C-95.4074 -86.721 -120.263 -129.813 -137.006 -175.79C-141.182 -187.249 -144.821 -198.888 -147.983 -210.645C-148.301 -211.939 -146.392 -212.456 -146.054 -211.222Z" fill="url(#paint1_linear_5946_21267)"/>
<path d="M-138.239 -214.306C-125.274 -165.723 -104.872 -119.13 -77.212 -77.0921C-50.2483 -36.1288 -16.1459 3.1235 28.1972 25.6046C77.094 50.3934 132.195 46.2354 185.307 46.4145C212.788 46.4941 240.309 47.2898 267.67 50.0751C294.515 52.8007 320.822 58.0728 347.03 64.4789C397.876 76.8932 447.21 94.6791 498.155 106.656C547.748 118.314 598.533 125.635 649.538 126.232C699.707 126.829 750.095 120.781 798.058 105.76C845.702 90.8394 892.968 67.3835 929.695 33.0651C998.715 -31.4337 1012.71 -129.276 1037.65 -215.759C1040.75 -226.522 1044.05 -237.225 1047.65 -247.829C1048.07 -249.042 1049.98 -248.525 1049.56 -247.292C1020.55 -161.705 1011.92 -64.1208 954.372 9.072C923.769 48.006 880.5 75.0231 835.362 94.1419C789.408 113.599 740.074 124.044 690.362 127.187C639.715 130.39 588.77 126.192 538.879 117.16C513.287 112.525 487.954 106.616 462.919 99.6528C437.049 92.4509 411.557 83.9558 385.706 76.6943C358.484 69.0547 330.944 61.8528 303.105 56.9189C274.63 51.8656 245.737 49.7369 216.864 48.8814C188.847 48.0458 160.869 48.9212 132.851 48.6228C106.384 48.3641 79.679 46.136 54.2861 38.2974C7.97436 23.9931 -29.0114 -9.88768 -58.3018 -47.3694C-88.8449 -86.4427 -112.528 -130.748 -128.972 -177.481C-133.188 -189.438 -136.886 -201.534 -140.148 -213.769C-140.486 -215.022 -138.577 -215.56 -138.239 -214.306Z" fill="url(#paint2_linear_5946_21267)"/>
<path d="M-130.444 -217.41C-117.28 -167.733 -97.5348 -119.766 -70.9091 -75.7592C-45.3969 -33.6221 -13.6409 7.10243 29.3103 32.5677C50.9847 45.4197 75.2045 53.3577 99.9213 57.7942C127.084 62.6685 154.744 62.8674 182.244 63.7826C209.705 64.6977 237.186 65.7123 264.568 68.1793C291.551 70.6065 318.117 75.222 344.763 80.0763C371.667 84.9903 398.532 90.2625 425.118 96.7481C449.437 102.677 473.656 108.745 498.234 113.5C547.906 123.109 598.493 128.918 649.14 128.082C699.448 127.267 749.837 119.687 797.322 102.697C845.125 85.6071 892.053 59.3858 927.527 22.6203C992.491 -44.7035 1007.9 -141.511 1032.84 -227.974C1035.9 -238.618 1039.14 -249.202 1042.62 -259.726C1043.02 -260.94 1044.95 -260.422 1044.53 -259.189C1015.88 -172.468 1005.06 -75.2618 949.281 -0.0597035C919.931 39.511 878.929 68.0599 834.864 89.1881C789.586 110.913 740.371 123.188 690.461 127.864C639.893 132.598 588.849 129.734 538.68 122.412C486.641 114.813 436.313 100.369 384.891 89.8248C356.992 84.115 328.915 78.6439 300.758 74.4262C272.164 70.1489 243.291 68.239 214.438 66.9657C161.286 64.638 106.483 67.2642 56.0157 47.6877C11.0561 30.24 -23.8019 -4.33704 -51.5413 -42.8732C-81.4281 -84.3935 -104.514 -130.748 -120.959 -179.132C-125.195 -191.586 -128.953 -204.18 -132.313 -216.873C-132.671 -218.106 -130.762 -218.643 -130.444 -217.41Z" fill="url(#paint3_linear_5946_21267)"/>
<path d="M-122.629 -220.493C-109.326 -169.841 -90.2567 -120.642 -64.844 -74.8241C-40.5646 -31.0556 -10.7572 11.6186 31.1202 40.1874C51.0051 53.7358 73.4153 63.5837 96.5612 70.0097C122.491 77.2115 149.236 79.1413 175.981 80.912C203.382 82.7025 230.823 83.936 258.205 86.0448C285.825 88.1735 313.127 92.0928 340.607 95.5545C367.253 98.9167 393.978 101.901 420.445 106.497C444.764 110.714 468.884 115.847 493.283 119.647C543.572 127.466 594.556 132.041 645.481 129.933C696.287 127.844 747.013 118.831 794.359 99.8915C841.665 80.9716 887.559 52.9399 922.039 15.0802C985.452 -54.5713 1002.57 -151.439 1027.71 -239.015C1030.83 -249.898 1034.11 -260.76 1037.59 -271.543C1037.99 -272.757 1039.9 -272.24 1039.5 -271.006C1011.02 -182.873 998.178 -85.4877 943.376 -8.33589C914.424 32.4284 874.157 62.7083 830.132 85.5872C785.252 108.904 736.395 122.79 686.245 128.719C635.201 134.747 583.501 132.917 532.536 126.988C480.517 120.94 429.532 108.884 377.633 102.16C349.158 98.479 320.643 94.4006 292.108 91.1777C264.011 88.0144 235.755 86.4029 207.538 84.7715C180.813 83.2397 153.79 82.3444 127.283 78.4649C102.586 74.864 78.5058 67.7019 56.0161 56.8194C11.8519 35.4326 -21.2564 -1.41249 -47.5441 -42.0773C-75.6414 -85.5076 -97.4352 -132.996 -113.462 -182.136C-117.539 -194.65 -121.217 -207.263 -124.558 -219.996C-124.876 -221.21 -122.947 -221.727 -122.629 -220.493Z" fill="url(#paint4_linear_5946_21267)"/>
<path d="M-114.815 -223.597C-101.214 -171.473 -82.6012 -120.582 -58.0833 -72.5561C-35.3549 -28.0516 -8.03321 15.5577 31.5178 47.0312C50.806 62.3899 72.9378 74.6451 96.1036 83.0805C121.258 92.2321 147.605 95.6142 174.112 98.1806C201.811 100.866 229.63 102.378 257.389 104.328C284.989 106.258 312.45 109.56 340.05 111.55C366.975 113.48 393.978 114.454 420.823 117.459C445.559 120.224 470.137 124.243 494.874 126.968C544.864 132.479 595.372 135.264 645.581 131.484C697.142 127.605 748.385 116.464 795.472 94.699C841.267 73.5508 885.034 44.4051 917.883 5.76944C978.91 -65.9909 997.502 -162.122 1022.68 -250.236C1025.84 -261.318 1029.14 -272.359 1032.6 -283.361C1032.98 -284.574 1034.91 -284.057 1034.51 -282.824C1006.33 -193.755 991.656 -96.6487 938.285 -17.8854C910.645 22.8988 872.665 54.4917 830.152 78.8826C784.874 104.865 735.679 121.477 684.078 129.177C633.769 136.677 582.625 136.418 532.019 132.459C480.04 128.401 428.697 119.11 376.658 115.847C348.004 114.057 319.51 111.53 290.915 108.944C262.361 106.357 233.746 104.845 205.152 102.756C178.626 100.807 151.602 99.0361 125.533 93.5451C101.711 88.5117 78.9033 79.4795 57.8452 67.284C14.9338 42.4156 -16.5239 4.23761 -41.4397 -38.0188C-68.6222 -84.115 -89.7797 -133.713 -105.787 -184.743C-109.764 -197.416 -113.403 -210.188 -116.763 -223.06C-117.062 -224.293 -115.133 -224.831 -114.815 -223.597Z" fill="url(#paint5_linear_5946_21267)"/>
<path d="M-107 -226.681C-93.1798 -173.383 -75.1443 -121.079 -51.8394 -71.1634C-30.1848 -24.7888 -4.61292 20.9294 33.7449 55.6258C51.3629 71.5615 71.5261 85.2093 93.0613 95.2561C117.341 106.596 143.29 111.629 169.697 115.091C196.94 118.672 224.401 120.503 251.802 122.214C279.322 123.924 306.883 126.511 334.463 127.247C361.964 127.983 389.484 126.988 416.965 128.162C442.239 129.236 467.453 132.181 492.686 133.852C543.174 137.214 594.019 138.348 644.388 132.797C695.77 127.127 746.556 114.096 792.669 90.362C837.708 67.1846 880.182 37.2629 912.296 -2.28785C972.328 -76.1969 992.312 -172.746 1017.78 -262.153C1020.93 -273.195 1024.17 -284.216 1027.57 -295.178C1027.95 -296.392 1029.87 -295.875 1029.48 -294.641C1001.52 -204.438 985.154 -107.193 932.638 -26.8778C905.416 14.7619 868.291 47.8867 826.075 73.8295C781.971 100.946 734.188 119.548 683.282 129.077C632.596 138.567 580.756 139.9 529.354 137.851C503.762 136.836 478.21 134.966 452.678 132.837C425.893 130.589 399.327 129.555 372.443 129.594C343.391 129.614 314.638 128.301 285.646 126.372C257.37 124.482 229.054 123.089 200.817 120.522C174.529 118.135 147.546 115.429 122.073 108.228C99.4841 101.841 78.3267 91.2573 58.9987 77.9875C17.0815 49.2595 -12.8252 8.79358 -36.4484 -35.6513C-61.9407 -83.6374 -82.0443 -134.409 -97.8329 -186.374C-101.83 -199.544 -105.528 -212.814 -108.988 -226.144C-109.247 -227.397 -107.318 -227.914 -107 -226.681Z" fill="url(#paint6_linear_5946_21267)"/>
<path d="M-99.1853 -229.784C-85.2063 -175.432 -67.7672 -121.895 -45.8143 -70.2285C-25.4126 -22.2224 -1.8689 25.4454 34.6396 63.4045C50.9054 80.335 69.5573 95.5346 89.9392 107.213C112.588 120.184 137.166 126.988 162.738 131.425C190.039 136.18 217.719 138.467 245.359 140.079C272.84 141.69 300.539 143.62 328.08 143.342C356.018 143.043 383.837 140.258 411.755 139.482C436.631 138.786 461.567 140.357 486.442 140.914C537.884 142.068 589.625 141.611 640.669 134.25C692.131 126.809 742.002 111.848 787.638 86.6814C832.418 61.9721 874.236 30.9164 906.012 -9.52964C965.587 -85.3286 987.043 -182.534 1012.77 -273.354C1015.96 -284.594 1019.22 -295.815 1022.62 -306.996C1022.99 -308.21 1024.9 -307.692 1024.53 -306.459C996.567 -214.505 978.611 -116.185 925.897 -34.1394C898.853 7.95786 862.424 42.0972 820.587 69.2735C776.462 97.9418 728.639 118.553 677.197 129.694C627.028 140.556 575.506 143.401 524.283 143.362C498.632 143.342 472.98 142.606 447.329 141.79C420.206 140.934 393.342 142.228 366.279 143.819C337.247 145.51 308.593 145.132 279.581 143.799C251.583 142.526 223.545 141.133 195.687 138.03C169.896 135.165 143.39 131.445 118.852 122.731C96.6802 114.852 76.517 102.458 58.2826 87.6761C18.3937 55.3472 -9.34559 12.7724 -31.2786 -33.1844C-55.1205 -83.1402 -74.2894 -135.304 -89.8593 -188.403C-93.8363 -201.952 -97.5546 -215.58 -101.074 -229.267C-101.432 -230.481 -99.5034 -231.018 -99.1853 -229.784Z" fill="url(#paint7_linear_5946_21267)"/>
<path d="M-91.39 -232.868C-77.3712 -178.038 -60.7078 -123.825 -40.4253 -70.9644C-21.137 -20.7103 0.497614 29.6831 35.3557 71.3228C50.7267 89.6857 68.444 106.696 88.3686 120.025C109.725 134.31 133.388 142.586 158.363 147.938C185.128 153.667 212.47 156.413 239.792 157.984C267.352 159.576 295.33 160.929 322.93 159.715C350.331 158.502 377.474 154.364 404.756 151.678C430.586 149.131 456.536 149.151 482.446 148.475C533.868 147.142 585.489 144.774 636.215 135.623C688.492 126.193 737.986 108.805 783.84 81.8471C828.68 55.4667 870.1 22.7 901.419 -19.1784C959.323 -96.6088 981.992 -193.277 1007.76 -284.694C1010.96 -296.073 1014.25 -307.453 1017.63 -318.793C1017.98 -320.027 1019.91 -319.49 1019.53 -318.256C991.855 -225.487 972.487 -127.267 920.727 -43.9871C894.161 -1.23333 858.766 34.1594 817.485 62.7681C773.361 93.3463 725.2 116.484 673.121 129.714C622.693 142.526 570.595 147.142 518.736 149.29C493.223 150.345 467.711 150.822 442.199 151.439C414.38 152.115 386.919 155.816 359.279 158.8C330.765 161.884 302.568 162.262 273.914 161.446C246.174 160.65 218.415 159.198 190.895 155.537C165.959 152.235 140.387 147.56 117.062 137.811C95.03 128.6 75.5031 114.594 58.1635 98.3001C20.2034 62.6289 -5.48768 17.8259 -25.83 -29.7027C-48.1804 -81.8866 -66.5143 -135.762 -82.0045 -190.353C-85.9616 -204.279 -89.7 -218.265 -93.2991 -232.291C-93.6172 -233.584 -91.7083 -234.101 -91.39 -232.868Z" fill="url(#paint8_linear_5946_21267)"/>
<path d="M-83.5758 -235.952C-69.2786 -179.689 -53.0724 -123.904 -33.983 -69.0745C-16.1862 -17.945 3.02252 33.5625 34.8383 77.8482C49.2349 97.8822 66.0375 116.802 85.5445 132.022C106.046 148.017 129.351 158.024 154.425 164.41C180.654 171.095 207.677 174.318 234.641 175.909C261.863 177.521 289.622 178.297 316.845 176.387C345.399 174.378 373.457 168.628 401.673 164.152C426.549 160.212 451.584 158.502 476.679 156.552C528.28 152.553 580.02 148.136 630.687 137.075C656.378 131.465 681.731 124.163 706.209 114.534C731.443 104.587 755.285 91.874 778.331 77.6094C823.43 49.717 864.592 15.3986 895.831 -27.7532C953.119 -106.914 976.941 -204.14 1002.91 -296.75C1006.09 -308.07 1009.29 -319.37 1012.59 -330.631C1012.95 -331.864 1014.88 -331.327 1014.5 -330.094C986.943 -236.091 966.223 -137.254 914.682 -52.6017C888.076 -8.89292 852.939 27.8129 811.559 57.7744C768.071 89.2678 720.387 114.216 668.806 129.415C618.199 144.336 565.624 150.961 513.207 155.577C487.894 157.805 462.521 159.496 437.207 161.645C408.812 164.072 380.894 170.021 352.737 174.258C324.878 178.436 297.159 179.53 269.022 179.132C241.799 178.734 214.517 177.222 187.573 173.104C162.439 169.265 136.748 163.495 113.801 152.215C92.4445 141.71 73.9119 126.391 57.7853 109.023C21.6545 70.1291 -1.84919 22.7597 -20.6006 -26.4599C-41.3206 -80.7726 -58.7993 -136.299 -74.1703 -192.362C-78.0875 -206.667 -81.8657 -221.011 -85.5246 -235.395C-85.803 -236.668 -83.8939 -237.205 -83.5758 -235.952Z" fill="url(#paint9_linear_5946_21267)"/>
<path d="M-75.7608 -239.055C-61.1852 -181.36 -45.4166 -123.964 -27.58 -67.1844C-10.9363 -14.2643 6.16454 39.3918 35.8924 86.6617C48.8175 107.193 63.9499 126.809 81.9854 143.123C101.373 160.67 123.903 172.567 148.838 180.187C175.026 188.185 202.348 192.044 229.63 193.755C256.495 195.446 283.916 195.685 310.74 193.238C338.857 190.671 366.318 184.046 393.839 177.998C418.834 172.508 443.969 168.767 469.322 165.385C521.559 158.442 573.975 151.678 625.06 138.388C651.188 131.584 676.919 123.129 701.636 112.246C726.293 101.404 749.678 87.9747 772.267 73.372C817.008 44.4251 857.553 9.33076 888.633 -34.2189C946.159 -114.892 971.354 -213.033 997.582 -307.115C1000.88 -318.913 1004.18 -330.71 1007.58 -342.488C1007.94 -343.721 1009.85 -343.184 1009.49 -341.951C981.873 -246.158 959.82 -146.007 907.722 -59.7239C881.335 -15.9952 846.954 21.2477 806.27 52.0448C762.424 85.2093 713.905 112.346 661.648 129.694C610.981 146.525 558.127 155.299 505.373 162.56C479.741 166.081 453.951 168.887 428.419 173.144C400.898 177.74 373.934 185.021 346.513 190.114C318.635 195.307 290.677 196.978 262.341 196.819C235.397 196.68 208.353 194.929 181.787 190.114C156.812 185.598 131.499 178.556 109.407 165.763C88.8258 153.846 71.4067 137.314 56.4931 118.911C22.6094 77.1122 1.69054 27.5942 -15.3507 -22.9783C-34.4998 -79.8176 -51.2627 -137.453 -66.6138 -195.426C-70.4119 -209.77 -74.1104 -224.134 -77.7493 -238.538C-77.9879 -239.771 -76.079 -240.289 -75.7608 -239.055Z" fill="url(#paint10_linear_5946_21267)"/>
<path d="M-67.9461 -242.139C-53.0921 -182.992 -37.7609 -123.964 -21.2168 -65.2547C-5.76625 -10.4646 9.1076 45.4993 36.7277 95.6739C48.6784 117.399 62.8563 138.288 80.3748 155.935C98.7086 174.397 120.463 187.707 144.98 196.321C170.274 205.194 196.959 209.631 223.625 211.541C250.271 213.451 277.453 213.252 304.039 210.407C332.812 207.343 360.79 199.684 388.649 192.084C414.658 185.001 440.767 179.172 467.214 174.079C518.596 164.191 570.197 154.761 620.287 139.343C646.555 131.246 672.346 121.537 697.062 109.521C721.58 97.6036 745.005 83.3192 767.554 68.04C811.818 38.0785 851.548 2.16852 882.27 -41.779C939.936 -124.243 966.243 -223.557 992.809 -319.251C996.05 -330.929 999.312 -342.627 1002.61 -354.286C1002.97 -355.519 1004.88 -355.002 1004.52 -353.749C976.941 -256.563 953.676 -155.517 901.458 -67.861C874.833 -23.1774 840.452 15.3587 799.469 47.3495C756.538 80.8522 708.894 109.143 657.949 128.56C607.302 147.858 554.19 159.317 501.117 169.623C474.929 174.696 448.542 179.112 422.592 185.32C395.052 191.905 368.009 200.499 340.309 206.468C312.928 212.376 285.208 214.605 257.23 214.684C230.525 214.764 203.68 212.794 177.492 207.363C152.656 202.21 127.82 194.014 106.484 180.028C86.6186 166.997 70.1342 149.549 56.2545 130.39C23.8423 85.627 5.42889 33.2243 -10.0614 -19.3178C-27.3612 -77.9874 -43.1895 -137.055 -58.3815 -196.301C-62.2392 -211.362 -66.057 -226.442 -69.855 -241.522C-70.1732 -242.855 -68.2642 -243.392 -67.9461 -242.139Z" fill="url(#paint11_linear_5946_21267)"/>
<path d="M-60.1312 -245.242C-45.1182 -185.12 -30.3637 -124.939 -15.2711 -64.8368C-1.19264 -8.6938 11.1758 48.9214 35.8528 101.623C57.3284 147.48 88.4083 189.518 136.032 210.129C185.625 231.595 243.371 233.923 296.423 227.815C325.236 224.493 353.175 216.316 380.735 207.542C406.625 199.306 432.455 191.328 458.763 184.544C510.503 171.214 562.601 158.78 612.99 140.815C665.903 121.935 714.979 95.8332 760.972 63.6236C805.634 32.3291 845.383 -4.89394 876.265 -50.0351C933.493 -133.673 960.874 -233.246 987.52 -329.795C990.861 -341.931 994.201 -354.047 997.602 -366.163C997.94 -367.396 999.868 -366.879 999.511 -365.626C971.97 -267.027 947.532 -165.027 895.115 -75.9978C868.529 -30.8367 834.487 8.61457 793.703 41.5404C750.294 76.5949 701.716 106.616 650.353 128.441C599.329 150.106 545.68 164.47 492.09 178.138C465.862 184.822 439.515 191.169 413.644 199.186C386.462 207.602 359.597 217.112 331.858 223.577C304.994 229.824 277.533 232.391 249.992 232.47C223.267 232.55 196.343 230.123 170.354 223.677C145.637 217.569 121.497 207.761 101.135 192.243C82.085 177.74 66.6345 159.098 53.8884 138.945C23.5441 90.959 8.21294 35.8505 -5.6667 -18.6611C-21.0178 -78.9621 -35.8717 -139.402 -50.8648 -199.803C-54.5833 -214.783 -58.3019 -229.744 -62.0402 -244.705C-62.3782 -245.959 -60.4494 -246.476 -60.1312 -245.242Z" fill="url(#paint12_linear_5946_21267)"/>
<path d="M-52.3366 -248.326C-37.2837 -187.707 -23.1655 -126.849 -9.64387 -65.8714C3.10228 -8.39553 12.9453 50.672 34.3812 105.741C52.9933 153.568 81.9058 199.883 128.814 223.995C176.458 248.485 233.189 251.828 285.566 245.82C343.073 239.234 396.145 213.928 450.65 196.063C503.006 178.894 555.821 162.858 606.805 141.81C659.699 119.965 709.391 91.7347 755.703 58.1126C799.748 26.1218 838.682 -11.6185 869.265 -56.7995C927.149 -142.287 955.684 -243.472 982.708 -341.931C986.009 -353.947 989.29 -365.984 992.59 -378C992.928 -379.234 994.857 -378.716 994.499 -377.463C966.959 -277.412 941.427 -174.417 888.712 -84.0354C862.106 -38.3969 828.342 1.9298 787.737 35.7509C744.13 72.0588 695.034 103.313 643.791 127.625C592.747 151.837 539.038 169.563 485.369 186.891C458.385 195.605 431.461 204.339 404.855 214.147C377.374 224.293 349.893 234.718 321.359 241.502C269.778 253.758 212.35 254.573 161.346 239.155C137.424 231.913 114.815 220.593 95.9246 204.1C77.3323 187.866 62.6374 167.613 50.8258 146.047C23.0467 95.2959 10.9966 38.1781 -1.15303 -17.8257C-14.4758 -79.2009 -28.2758 -140.477 -42.9508 -201.554C-46.6693 -216.992 -50.4275 -232.41 -54.2653 -247.809C-54.5636 -249.042 -52.6348 -249.58 -52.3366 -248.326Z" fill="url(#paint13_linear_5946_21267)"/>
<path d="M-44.5215 -251.43C-29.4091 -190.273 -15.9274 -128.739 -3.87715 -66.9058C7.59636 -8.05715 14.9339 52.4229 33.2876 109.68C49.275 159.596 75.9405 209.611 122.093 237.484C167.808 265.078 224.381 270.052 276.439 263.864C334.622 256.941 387.297 231.018 441.006 209.392C494.436 187.866 548.344 167.414 600.403 142.665C653.097 117.618 703.485 87.557 750.195 52.5621C794.061 19.696 832.498 -18.9197 862.981 -64.598C920.787 -151.26 950.316 -253.041 977.498 -352.555C980.898 -364.969 984.239 -377.403 987.619 -389.818C987.957 -391.051 989.866 -390.534 989.528 -389.28C962.087 -288.175 935.601 -184.544 882.926 -93.0277C856.161 -46.5138 822.436 -4.93374 781.633 29.9816C737.767 67.5229 688.194 99.5933 637.189 126.491C585.012 154.005 530.209 176.009 475.466 197.774C448.622 208.437 421.956 219.459 395.291 230.56C368.367 241.781 341.065 252.465 312.649 259.368C261.227 271.842 203.959 272.618 153.73 254.593C129.868 246.019 108.055 232.809 90.1383 214.784C72.4806 197.038 58.7998 175.631 48.1217 153.09C22.8282 99.7127 14.0392 40.6253 3.53997 -16.9501C-7.95345 -80.0165 -20.8785 -142.824 -35.4541 -205.254C-39.0134 -220.473 -42.6723 -235.673 -46.4107 -250.853C-46.7487 -252.126 -44.8198 -252.663 -44.5215 -251.43Z" fill="url(#paint14_linear_5946_21267)"/>
<path d="M-36.7069 -254.513C-21.5347 -192.8 -8.62953 -130.549 2.00883 -67.9007C7.21867 -37.2627 11.6927 -6.52538 16.0873 24.2319C20.4421 54.8101 25.1349 85.4282 32.9894 115.33C46.2725 165.883 69.995 217.072 113.245 248.724C157.091 280.854 214.617 288.295 267.431 282.028C327.006 274.965 381.093 248.247 434.523 222.642C488.173 196.938 541.981 171.572 594.218 143.083C646.337 114.654 697.401 83.2198 744.468 46.9716C788.413 13.1306 826.572 -26.5594 857.036 -73.0137C914.881 -161.187 945.305 -263.944 972.686 -364.79C976.027 -377.065 979.308 -389.36 982.589 -401.635C982.927 -402.869 984.836 -402.351 984.498 -401.098C956.997 -298.361 929.456 -193.456 876.205 -100.488C849.718 -54.233 816.67 -12.2949 776.681 23.0183C732.219 62.2905 681.612 95.1169 630.468 124.959C577.674 155.736 522.752 182.674 467.652 209.034C414.161 234.639 360.612 263.785 302.588 277.751C251.185 290.125 194.176 290.264 145.001 269.096C97.5952 248.684 65.4414 207.86 46.0139 161.028C22.4703 104.268 17.0218 42.1372 7.95439 -18.0643C-1.59035 -81.449 -13.4019 -144.476 -27.5599 -207.005C-31.1193 -222.682 -34.8179 -238.339 -38.6557 -253.956C-38.934 -255.23 -37.025 -255.767 -36.7069 -254.513Z" fill="url(#paint15_linear_5946_21267)"/>
<path d="M-28.8922 -257.597C-13.7599 -195.764 -1.49099 -133.255 7.77537 -70.2681C12.3489 -39.1925 16.1071 -7.99758 19.3483 23.2571C22.5498 54.1934 25.6319 85.2093 31.6967 115.728C42.176 168.489 62.9358 222.045 104.137 258.493C145.299 294.9 202.11 306.021 255.6 300.59C315.115 294.542 370.335 268.281 422.254 240.09C477.355 210.168 531.462 178.297 584.713 145.192C636.553 112.962 688.87 80.3351 736.951 42.5947C780.877 8.13703 818.877 -32.1697 849.48 -78.9224C908.14 -168.588 939.717 -272.737 967.436 -375.294C970.876 -388.007 974.257 -400.74 977.617 -413.492C977.936 -414.726 979.864 -414.209 979.526 -412.955C951.986 -308.727 923.471 -202.648 869.742 -108.327C842.838 -61.0768 809.412 -17.9052 768.906 18.4425C723.987 58.7493 672.743 91.5756 622.037 124.004C567.771 158.7 512.512 191.865 456.357 223.458C403.821 253.002 349.973 282.943 290.776 296.671C239.712 308.508 183.358 307.115 136.032 282.704C89.4621 258.672 59.4162 213.331 42.6533 164.828C22.4304 106.377 20.2233 43.5497 12.8858 -17.3481C5.05113 -82.4039 -5.96505 -147.082 -20.0833 -211.083C-23.4836 -226.462 -27.0629 -241.801 -30.8012 -257.1C-31.1194 -258.313 -29.2104 -258.85 -28.8922 -257.597Z" fill="url(#paint16_linear_5946_21267)"/>
<path d="M1927.2 953.181C1858.93 895.119 1805.4 809.004 1715.1 782.803C1667.58 769.007 1615.66 773.458 1567.93 783.809C1518.53 794.527 1471.19 813.82 1427.5 839.133C1383.54 864.604 1343.19 896.126 1306.93 931.671C1288.4 949.838 1270.92 969.073 1254.56 989.222C1238.21 1009.34 1223.38 1030.54 1208.18 1051.51C1191.63 1074.37 1174.33 1096.76 1153.75 1116.18C1132.96 1135.79 1109.53 1152.42 1084.87 1166.79C1060.55 1180.97 1035.03 1192.81 1009.11 1203.75C983.36 1214.62 957.068 1225.44 934.947 1242.92C896.428 1273.36 875.741 1320.89 864.509 1367.53C853.184 1414.57 851.384 1463.83 859.115 1511.58C861.043 1523.47 863.597 1535.25 866.678 1546.91C867.002 1548.15 868.941 1547.65 868.6 1546.42C855.967 1498.65 853.051 1448.46 860.309 1399.59C867.46 1351.44 883.345 1301.13 915.861 1263.91C952.636 1221.82 1009.63 1208.03 1057.89 1183.68C1105.97 1159.41 1149.67 1128.21 1184.05 1086.42C1200.65 1066.22 1215.41 1044.63 1230.78 1023.51C1246.13 1002.43 1262.4 982.078 1279.9 962.716C1313.9 925.096 1352.1 891.119 1394.03 862.569C1435.74 834.192 1481.24 811.186 1529.44 796.084C1576.75 781.267 1628.19 772.611 1677.81 777.708C1725.72 782.622 1767.19 804.783 1803.45 835.652C1838.19 865.239 1867.88 900.11 1900.67 931.766C1908.82 939.646 1917.18 947.292 1925.81 954.645C1926.76 955.408 1928.16 954.023 1927.2 953.181Z" fill="url(#paint17_linear_5946_21267)"/>
<path d="M876.892 1545.19C864.11 1497.32 859.797 1447.3 864.72 1397.96C869.548 1349.57 882.275 1299.04 911.773 1259.49C944.766 1215.27 998.042 1196.11 1044.94 1170.8C1092.97 1144.86 1136.91 1114.03 1174.22 1073.97C1210.24 1035.3 1241.29 992.404 1278.34 954.655C1313.81 918.533 1352.91 885.83 1395.63 858.614C1437.86 831.731 1483.69 810.256 1532.07 797.139C1580.63 783.967 1633.47 777.74 1683.38 786.483C1777.59 802.985 1837.54 881.97 1902.47 944.509C1910.58 952.321 1918.86 959.944 1927.37 967.323C1928.33 968.148 1929.74 966.735 1928.76 965.903C1860.72 907.044 1805.83 824.262 1717.74 793.34C1671.23 777.005 1619.88 778.215 1571.82 786.339C1522.26 794.713 1474.55 812.202 1430.32 835.943C1385.33 860.104 1343.89 890.62 1306.18 925.005C1287.2 942.325 1269.15 960.65 1252.02 979.82C1233.78 1000.23 1216.87 1021.78 1199.2 1042.67C1181.05 1064.12 1162.17 1085.2 1141.04 1103.76C1119.6 1122.62 1095.99 1138.87 1071.48 1153.46C1047.52 1167.75 1022.6 1180.14 997.693 1192.68C973.662 1204.79 949.727 1217.89 929.862 1236.3C894.164 1269.36 876.405 1317.11 867.58 1363.94C858.503 1412.05 858.523 1461.8 867.011 1509.98C869.125 1522 871.792 1533.89 874.933 1545.66C875.304 1546.94 877.216 1546.43 876.892 1545.19Z" fill="url(#paint18_linear_5946_21267)"/>
<path d="M885.202 1543.96C872.138 1495.4 866.51 1444.85 869.445 1394.61C872.315 1345.66 882.222 1294.61 909.384 1252.97C939.335 1207.05 989.133 1183.1 1035.04 1156.39C1058.8 1142.58 1082.24 1128.13 1104.54 1112.04C1126.42 1096.26 1146.57 1078.54 1166.06 1059.89C1203.89 1023.71 1237.72 983.643 1275.85 947.798C1312.97 912.906 1353.29 881.172 1397.17 855.153C1440.32 829.552 1486.98 809.595 1536.02 798.622C1584.75 787.722 1637.41 784.403 1686.37 795.76C1778.4 817.107 1839.44 894.842 1904.28 957.27C1912.35 965.04 1920.56 972.659 1928.97 980.043C1929.94 980.885 1931.34 979.482 1930.36 978.623C1862.44 919.008 1806.17 838.813 1719.74 804.2C1673.77 785.783 1622.79 784.021 1574.14 790.032C1524.61 796.159 1476.67 811.781 1432.04 833.914C1386.58 856.464 1344.56 885.572 1305.87 918.339C1286.02 935.15 1267.04 952.933 1248.84 971.481C1230.04 990.653 1212.21 1010.76 1193.45 1029.97C1173.7 1050.2 1153.45 1070.2 1131.8 1088.4C1109.67 1107.01 1085.71 1123.3 1061.14 1138.48C1037.29 1153.21 1012.62 1166.44 988.508 1180.71C965.716 1194.17 943.703 1209.45 925.631 1228.93C892.676 1264.48 877.586 1312.31 870.961 1359.42C864.046 1408.53 865.689 1458.74 874.814 1507.43C877.142 1519.89 879.986 1532.22 883.28 1544.45C883.614 1545.7 885.536 1545.21 885.202 1543.96Z" fill="url(#paint19_linear_5946_21267)"/>
<path d="M893.504 1542.75C880.066 1493.14 873.183 1441.73 874.238 1390.31C875.263 1341.06 882.403 1289.91 906.867 1246.38C919.211 1224.42 936.217 1205.43 955.404 1189.23C976.491 1171.43 1000.35 1157.43 1023.7 1142.88C1047.03 1128.36 1070.32 1113.74 1092.8 1097.91C1114.95 1082.32 1135.65 1065.04 1156.3 1047.51C1177.15 1029.8 1197.77 1011.81 1217.56 992.897C1235.65 975.603 1253.59 958.239 1272.5 941.832C1310.71 908.674 1351.62 878.35 1395.9 853.75C1439.87 829.302 1487.3 810.672 1536.92 801.644C1586.86 792.542 1640.61 791.786 1689.72 805.889C1779.64 831.711 1841.39 907.844 1906.22 970.255C1914.19 977.941 1922.29 985.487 1930.57 992.861C1931.52 993.713 1932.93 992.301 1931.95 991.442C1863.78 930.666 1805.8 851.892 1719.9 814.653C1674.7 795.059 1624.91 790.836 1576.19 794.571C1526.11 798.396 1477.35 812.372 1431.79 833.279C1385.63 854.462 1342.86 882.465 1303.07 913.89C1261.8 946.491 1225.44 984.164 1186.18 1019.01C1164.87 1037.9 1143.29 1056.68 1121.02 1074.41C1098.39 1092.41 1074.34 1108.5 1049.99 1124.03C1005.13 1152.62 956.352 1177.75 922.434 1219.94C892.222 1257.53 879.323 1304.9 874.568 1352.14C869.445 1403.04 872.629 1454.73 882.58 1504.86C885.139 1517.76 888.181 1530.54 891.617 1543.22C891.924 1544.46 893.845 1543.97 893.504 1542.75Z" fill="url(#paint20_linear_5946_21267)"/>
<path d="M901.814 1541.51C888.008 1490.99 879.923 1438.85 879.022 1386.46C878.165 1336.42 882.642 1284.56 904.624 1238.88C915.071 1217.2 929.554 1197.47 946.386 1180.33C965.241 1161.13 987.438 1146.09 1009.71 1131.18C1032.55 1115.93 1055.7 1101.14 1078.36 1085.62C1101.21 1069.97 1122.9 1052.92 1144.96 1036.19C1166.36 1019.95 1188.01 1004 1208.63 986.791C1227.59 970.979 1245.91 954.474 1265.14 938.984C1304.78 907.068 1346.65 877.613 1391.8 853.977C1436.85 830.383 1485.28 812.825 1535.76 805.555C1586.18 798.287 1639.95 799.616 1688.74 815.163C1778.48 843.777 1841.74 919.106 1907.3 982.382C1915.44 990.246 1923.71 998.013 1932.12 1005.61C1933.07 1006.46 1934.46 1005.06 1933.5 1004.19C1864.78 942.103 1804.96 864.188 1718.92 824.774C1673.47 803.947 1623.45 797.857 1573.89 800.056C1523.36 802.303 1474.11 814.706 1427.71 834.646C1380.49 854.948 1336.63 882.383 1295.46 913C1253.44 944.247 1215.31 980.18 1173.73 1011.95C1150.91 1029.38 1128.25 1047.17 1105.15 1064.23C1082.4 1081.01 1058.74 1096.54 1035.11 1112.06C1012.74 1126.75 989.78 1141.04 968.765 1157.65C949.177 1173.12 931.904 1191.36 917.868 1212.03C890.315 1252.63 880.065 1301.09 877.631 1349.45C875.013 1401.12 879.884 1453.14 890.574 1503.71C893.3 1516.58 896.421 1529.35 899.894 1542.04C900.226 1543.25 902.155 1542.74 901.814 1541.51Z" fill="url(#paint21_linear_5946_21267)"/>
<path d="M910.133 1540.29C895.85 1488.35 886.523 1434.97 883.743 1381.12C881.175 1331.21 883.031 1279.79 901.547 1232.75C910.571 1209.81 923.61 1188.13 939.455 1169.24C956.663 1148.74 977.79 1132.64 999.462 1117.16C1022.11 1100.98 1045.44 1085.77 1068.51 1070.2C1091.45 1054.73 1113.58 1038.14 1136.48 1022.61C1158.84 1007.48 1181.73 993.133 1203.48 977.109C1223.52 962.346 1242.8 946.577 1262.86 931.848C1303.39 902.08 1345.74 874.414 1391.11 852.583C1437.71 830.162 1487.66 814.189 1539.32 809.495C1589.55 804.912 1642.03 808.27 1689.79 825.304C1778.52 856.937 1842.69 930.894 1908.55 994.615C1916.83 1002.63 1925.21 1010.54 1933.7 1018.34C1934.64 1019.2 1936.05 1017.79 1935.09 1016.92C1866.15 953.874 1804.89 877.115 1719.29 835.589C1674.96 814.089 1626.27 805.719 1577.26 805.852C1525.06 805.99 1474.14 816.201 1425.61 835.334C1378.29 853.992 1334.13 879.788 1292.28 908.52C1249.29 938.025 1209.47 971.742 1166.04 1000.59C1142.12 1016.46 1118.71 1032.9 1095.24 1049.44C1071.8 1065.95 1047.77 1081.57 1024.06 1097.68C1002.06 1112.63 979.54 1127.67 959.709 1145.46C941.595 1161.73 926.359 1180.96 914.22 1202.05C889.492 1245.04 881.338 1293.83 880.889 1342.89C880.396 1396.4 886.872 1449.93 898.524 1502.13C901.416 1515.09 904.651 1527.97 908.177 1540.8C908.535 1542.02 910.474 1541.52 910.133 1540.29Z" fill="url(#paint22_linear_5946_21267)"/>
<path d="M918.443 1539.05C903.762 1485.99 893.23 1431.67 888.454 1376.79C884.02 1325.8 883.307 1273.42 899.178 1224.2C906.468 1201.59 917.106 1179.69 930.732 1160.22C946.089 1138.26 966.045 1120.92 987.183 1104.72C1008.99 1088 1031.85 1072.68 1054.73 1057.5C1077.7 1042.26 1100.28 1026.24 1123.8 1011.81C1147.25 997.424 1171.58 984.525 1194.79 969.768C1216.14 956.201 1236.5 941.044 1257.52 926.98C1299.56 898.825 1343.03 872.42 1389.42 852.043C1436.76 831.262 1487.25 817.154 1539.06 814.652C1589.65 812.205 1641.4 816.881 1688.98 835.076C1777.93 869.067 1843.51 942.689 1910.27 1007.38C1918.51 1015.37 1926.83 1023.3 1935.26 1031.09C1936.19 1031.95 1937.6 1030.54 1936.64 1029.67C1867.33 965.532 1804.53 889.497 1718.89 846.2C1674.5 823.75 1625.79 813.626 1576.25 812.267C1524.5 810.835 1473.82 818.618 1424.97 835.817C1376.33 852.942 1330.77 877.708 1287.28 905.183C1265.62 918.858 1244.43 933.253 1223.38 947.863C1201.31 963.202 1178.82 977.381 1155.51 990.789C1130.35 1005.3 1106.1 1020.81 1081.96 1036.98C1058.41 1052.75 1034.59 1068.12 1011.42 1084.46C989.846 1099.67 967.83 1115.5 949.372 1134.48C933.002 1151.3 919.971 1171.05 909.867 1192.2C887.93 1238.04 882.263 1288.04 884.027 1338.34C885.943 1392.65 893.919 1446.67 906.228 1499.56C909.352 1512.97 912.784 1526.31 916.452 1539.58C916.855 1540.8 918.784 1540.28 918.443 1539.05Z" fill="url(#paint23_linear_5946_21267)"/>
<path d="M926.763 1537.83C911.693 1483.77 900.027 1428.69 893.205 1372.97C886.871 1321.19 883.426 1268.14 896.064 1217.01C901.685 1194.22 910.239 1171.73 922.051 1151.42C935.179 1128.87 953.062 1110.68 972.99 1094.06C994.257 1076.29 1017.08 1060.47 1040.22 1045.25C1063.21 1030.11 1086.23 1014.59 1110.22 1001.06C1134.57 987.354 1160.05 975.857 1184.62 962.57C1206.51 950.735 1227.32 936.906 1248.58 923.986C1292.55 897.265 1337.59 871.791 1385.48 852.644C1433.77 833.357 1484.44 821.378 1536.54 820.355C1587.68 819.364 1639.42 825.35 1687.16 844.489C1776.65 880.346 1843.84 953.8 1911.53 1019.59C1919.91 1027.73 1928.34 1035.82 1936.88 1043.8C1937.81 1044.66 1939.21 1043.26 1938.26 1042.38C1868.07 976.726 1803.36 900.556 1716.69 855.859C1672.22 832.924 1623.6 821.573 1573.78 818.956C1521.23 816.191 1469.51 822.253 1419.39 838.325C1370.51 854.003 1324.47 877.3 1280.13 902.946C1257.92 915.789 1236.08 929.252 1214.27 942.784C1191.21 957.087 1167.3 969.399 1143.06 981.552C1117.08 994.604 1092.45 1009.26 1067.99 1024.92C1044.38 1040.02 1020.8 1055.24 998.222 1071.86C977.319 1087.24 956.224 1103.71 939.331 1123.53C924.069 1141.44 912.804 1162.25 904.404 1184.17C886.023 1232.11 883.288 1282.85 887.272 1333.62C891.602 1388.8 901.083 1443.56 914.149 1497.33C917.479 1511.06 921.072 1524.72 924.868 1538.33C925.165 1539.56 927.104 1539.06 926.763 1537.83Z" fill="url(#paint24_linear_5946_21267)"/>
<path d="M935.055 1536.61C919.78 1482.11 907.105 1426.83 898.24 1370.91C889.817 1317.75 883.356 1263.29 892.724 1209.8C896.855 1186.21 903.693 1162.62 914.284 1141.11C925.637 1118.06 941.991 1099.07 960.945 1081.94C981.259 1063.6 1003.56 1047.55 1026.44 1032.53C1049.51 1017.37 1073.07 1002.21 1097.57 989.46C1121.91 976.811 1147.49 966.823 1172.46 955.508C1196.1 944.798 1218.56 931.806 1241.34 919.437C1286.54 894.88 1332.43 871.12 1380.93 853.682C1430.92 835.711 1482.48 826.022 1535.67 826.441C1587.69 826.867 1639.95 834.534 1688.01 855.142C1776.87 893.247 1844.84 965.63 1912.86 1031.91C1921.32 1040.17 1929.86 1048.38 1938.45 1056.51C1939.38 1057.4 1940.78 1055.97 1939.84 1055.09C1869.48 988.593 1803.6 913.215 1717.13 866.973C1672.75 843.23 1624.4 830.277 1574.35 826.141C1520.84 821.722 1467.57 825.765 1415.85 840.346C1365.77 854.465 1318.35 876.517 1272.36 900.586C1249.74 912.429 1227.41 924.771 1205 936.993C1180.57 950.317 1154.94 960.843 1129.51 972.078C1103.28 983.665 1078.67 997.436 1054.26 1012.47C1030.64 1027.03 1007.32 1042.17 985.318 1059.1C965.374 1074.42 945.566 1091.26 930.24 1111.36C915.765 1130.36 905.858 1152.25 898.988 1175.03C883.949 1224.9 884.102 1276.55 890.249 1327.88C896.985 1384.25 908.045 1440.07 921.925 1495.1C925.462 1509.13 929.217 1523.12 933.113 1537.06C933.484 1538.34 935.396 1537.83 935.055 1536.61Z" fill="url(#paint25_linear_5946_21267)"/>
<path d="M943.364 1535.37C927.615 1479.5 913.757 1423.08 902.874 1366.05C892.722 1312.88 883.604 1258.67 889.014 1204.4C891.465 1179.86 896.556 1155.07 905.84 1132.14C915.597 1108.03 930.776 1087.71 949.299 1069.65C968.67 1050.74 990.462 1034.44 1013.02 1019.58C1035.79 1004.57 1059.44 990.022 1083.97 978.064C1109.7 965.527 1136.88 956.478 1163.55 946.246C1187.06 937.22 1209.6 926.184 1232.31 915.325C1278.99 892.988 1326.01 870.942 1375.42 855.189C1400.47 847.202 1426.08 840.848 1452.1 836.948C1478.92 832.946 1505.93 832.035 1533.02 832.865C1586.02 834.471 1638.83 843.611 1687.46 865.362C1776.65 905.273 1845.89 977.562 1914.69 1044.78C1923.1 1052.99 1931.53 1061.18 1940.02 1069.28C1940.94 1070.17 1942.34 1068.74 1941.4 1067.86C1870.53 1000.23 1803.17 924.996 1716.21 877.456C1671.31 852.906 1622.53 838.686 1571.71 833.429C1518.3 827.899 1464.53 830.135 1412.26 842.762C1360.98 855.144 1312.13 875.694 1264.43 897.905C1241.39 908.632 1218.57 919.854 1195.58 930.65C1169.77 942.746 1142.62 951.553 1116.12 961.962C1089.9 972.273 1065.35 985.185 1041.18 999.598C1017.8 1013.55 994.934 1028.5 973.659 1045.54C953.811 1061.44 934.447 1079.28 920.214 1100.52C906.971 1120.3 898.581 1142.83 893.299 1165.93C881.456 1217.68 884.786 1270.46 893.157 1322.46C902.369 1379.85 914.995 1436.68 929.715 1492.92C933.475 1507.26 937.375 1521.58 941.398 1535.86C941.794 1537.1 943.716 1536.61 943.364 1535.37Z" fill="url(#paint26_linear_5946_21267)"/>
<path d="M951.684 1534.15C935.459 1476.9 920.417 1419.31 907.474 1361.22C895.428 1307.06 883.41 1252.05 885.52 1196.25C886.448 1172 889.745 1147.45 897.207 1124.3C905.224 1099.41 918.786 1077.84 936.571 1058.78C955.252 1038.76 976.984 1021.75 999.755 1006.63C1022.17 991.734 1045.8 977.817 1070.26 966.523C1095.89 954.688 1122.98 946.694 1149.84 938.172C1174.23 930.43 1197.87 921.101 1221.52 911.354C1270.23 891.248 1319.01 870.898 1369.89 856.865C1395.92 849.693 1422.43 844.15 1449.28 841.216C1476.05 838.278 1503.02 838.215 1529.88 839.567C1583.1 842.265 1635.76 852.385 1684.45 874.56C1774.61 915.662 1845.5 988.058 1915.26 1056.42C1924.01 1064.99 1932.77 1073.55 1941.6 1082.05C1942.53 1082.94 1943.92 1081.52 1942.99 1080.63C1871.17 1011.48 1802 935.778 1713.74 887.104C1669.02 862.427 1620.63 847.364 1569.99 841.035C1515.44 834.237 1459.85 834.996 1405.92 846.1C1353.63 856.858 1303.47 875.686 1254.15 895.775C1230.19 905.541 1206.46 916.007 1182.22 925.086C1156.09 934.866 1129.09 942.042 1102.8 951.342C1076.06 960.784 1051.01 973.316 1026.55 987.622C1003.29 1001.21 980.742 1016.25 960.142 1033.71C940.771 1050.1 922.37 1068.86 909.634 1090.98C897.769 1111.59 890.95 1134.62 887.236 1158.02C878.791 1211.16 885.434 1264.5 895.962 1316.82C907.798 1375.62 922.099 1433.91 937.791 1491.79C941.674 1506.11 945.653 1520.4 949.703 1534.7C950.113 1535.88 952.025 1535.38 951.684 1534.15Z" fill="url(#paint27_linear_5946_21267)"/>
<path d="M959.994 1532.91C943.284 1474.26 927.047 1415.48 912.02 1356.36C898.006 1301.19 882.905 1245.29 881.737 1188.02C881.224 1163.23 883.058 1138.05 889.406 1114.01C896.052 1088.86 908.237 1066.45 925.163 1046.73C942.631 1026.4 963.523 1009.22 985.661 994.23C1007.78 979.253 1031.42 965.834 1055.87 955.005C1082.32 943.272 1110.38 935.916 1138.3 928.568C1164.37 921.697 1189.9 913.691 1215.35 904.879C1264.79 887.75 1314.19 870.117 1365.28 858.424C1392.08 852.303 1419.27 847.815 1446.68 845.864C1473.87 843.925 1501.3 844.583 1528.47 846.541C1581.78 850.357 1634.14 861.591 1682.72 884.289C1773.9 926.872 1846.34 999.727 1917.19 1069.32C1925.84 1077.81 1934.51 1086.31 1943.2 1094.76C1944.12 1095.65 1945.52 1094.24 1944.58 1093.34C1872.1 1022.96 1801.43 947.086 1712.38 897.282C1666.98 871.898 1617.94 855.715 1566.45 848.502C1512.52 840.953 1457.12 840.275 1403.29 848.932C1349.78 857.543 1298.05 874.175 1246.94 891.786C1221.72 900.487 1196.66 909.855 1171.08 917.455C1143.94 925.522 1116.22 931.601 1089.25 940.282C1062.58 948.855 1037.46 960.785 1013.19 974.705C990.026 987.989 967.762 1003.12 947.798 1020.91C928.866 1037.8 911.456 1057.31 899.971 1080.09C889.283 1101.31 883.731 1124.66 881.29 1148.19C875.602 1203.17 885.856 1257.75 898.712 1311C913.065 1370.46 928.891 1429.53 945.358 1488.44C949.547 1503.41 953.781 1518.38 958.032 1533.33C958.423 1534.65 960.345 1534.16 959.994 1532.91Z" fill="url(#paint28_linear_5946_21267)"/>
<path d="M968.313 1531.69C951.254 1472.12 933.941 1412.62 916.961 1353.03C901.081 1297.37 882.985 1241.29 878.005 1183.31C873.675 1132.86 879.572 1080.91 910.511 1039.25C942.726 995.863 991.571 964.974 1040.57 943.737C1067.18 932.208 1095.47 925.32 1123.72 919.138C1150.26 913.326 1176.62 907.32 1202.8 900.041C1254.27 885.715 1305.6 870.434 1358.22 860.798C1413.49 850.692 1469.04 848.759 1524.98 853.657C1579.3 858.428 1632.34 870.789 1681.65 894.442C1773.03 938.26 1846.53 1010.8 1917.88 1081.09C1926.84 1089.93 1935.79 1098.76 1944.8 1107.55C1945.71 1108.45 1947.12 1107.03 1946.18 1106.13C1873.03 1034.51 1800.87 958.394 1710.96 907.501C1665.35 881.683 1616.15 864.539 1564.36 856.416C1509.24 847.762 1452.16 846.053 1396.77 852.833C1341.75 859.583 1288.1 873.968 1234.86 888.926C1208.8 896.251 1182.81 903.928 1156.4 909.92C1128.65 916.223 1100.63 921.42 1073.38 929.69C1046.99 937.712 1021.92 949.22 998.032 962.921C974.847 976.215 952.744 991.779 933.459 1010.36C915.108 1028 899.106 1048.57 889.231 1072.19C879.985 1094.27 875.925 1118.14 874.963 1141.97C872.678 1198.7 886.955 1254.09 902.19 1308.24C919.046 1368.13 936.403 1427.9 953.619 1487.71C957.889 1502.54 962.149 1517.36 966.392 1532.18C966.726 1533.44 968.655 1532.92 968.313 1531.69Z" fill="url(#paint29_linear_5946_21267)"/>
<path d="M976.606 1530.47C959.332 1470.44 941.13 1410.68 922.351 1351.11C904.652 1294.96 883.642 1238.89 874.672 1180.48C866.877 1129.75 868.758 1075.19 897.326 1030.85C926.342 985.819 973.801 954.559 1022.16 933.574C1075.26 910.523 1133.88 905.903 1190.01 894.122C1243.94 882.813 1297.69 870.293 1352.37 863.029C1409.1 855.5 1466.25 855.102 1523.17 861.064C1577.31 866.747 1629.9 879.963 1678.97 903.8C1771.85 948.892 1847.15 1022.25 1919.78 1094.01C1928.65 1102.77 1937.51 1111.55 1946.38 1120.31C1947.29 1121.2 1948.7 1119.79 1947.76 1118.89C1873.88 1046.01 1800.28 969.579 1709.43 917.663C1663.57 891.442 1614.17 873.4 1562.09 864.413C1506.17 854.773 1448.03 852.253 1391.49 856.821C1335.18 861.375 1279.81 872.878 1224.66 884.706C1196.94 890.651 1169.25 896.549 1141.31 901.358C1112.44 906.312 1083.42 911.024 1055.32 919.416C1004.52 934.593 954.381 962.601 917.919 1001.46C900.823 1019.69 886.904 1040.8 878.79 1064.52C870.806 1087.88 868.206 1112.77 868.76 1137.35C870.078 1195.19 888.202 1250.68 905.681 1305.26C924.831 1365.07 943.518 1425.04 961.348 1485.27C965.846 1500.5 970.301 1515.73 974.677 1530.98C975.035 1532.2 976.974 1531.7 976.606 1530.47Z" fill="url(#paint30_linear_5946_21267)"/>
<path d="M984.925 1529.25C967.435 1468.73 948.343 1408.7 927.862 1349.12C908.374 1292.42 884.489 1236.38 871.755 1177.61C860.643 1126.39 858.728 1069.74 884.761 1022.53C910.555 975.774 957.061 943.181 1005.24 922.51C1059.09 899.414 1117.67 895.527 1174.99 887.401C1232.03 879.328 1288.94 870.085 1346.4 865.49C1404.56 860.834 1463.22 861.673 1521.17 868.625C1575.6 875.155 1628.19 889.379 1677.43 913.696C1770.82 959.844 1847.29 1033.22 1920.58 1105.81C1929.73 1114.87 1938.84 1123.96 1947.98 1133.02C1948.89 1133.92 1950.28 1132.52 1949.36 1131.61C1875.05 1057.77 1800.29 981.262 1708.92 928.344C1662.48 901.444 1612.48 882.297 1559.69 872.462C1502.93 861.883 1443.96 858.895 1386.34 861.104C1327.4 863.364 1268.94 871.71 1210.65 880.232C1182.07 884.42 1153.46 888.207 1124.82 891.926C1095.89 895.671 1066.91 900.07 1038.85 908.299C988.076 923.207 938.092 951.169 903.605 991.894C887.227 1011.25 874.941 1033.6 868.437 1058.17C862.018 1082.36 860.874 1107.74 862.897 1132.6C867.681 1191.47 889.613 1247.04 909.308 1302.15C930.888 1362.52 951.098 1423.37 969.69 1484.72C974.217 1499.69 978.648 1514.68 983.001 1529.69C983.345 1530.96 985.284 1530.47 984.925 1529.25Z" fill="url(#paint31_linear_5946_21267)"/>
<path d="M993.235 1528.01C975.517 1466.98 955.568 1406.62 933.457 1347.04C922.65 1317.9 911.156 1289.05 899.583 1260.21C888.065 1231.55 876.82 1202.69 868.672 1172.87C854.899 1122.45 849.848 1066.26 871.477 1017.22C893.384 967.471 939.483 932.263 988.355 911.284C1043.48 887.613 1103.68 883.708 1162.75 879.167C1222.07 874.603 1281.35 869.666 1340.83 868.22C1400.18 866.782 1460.12 868.472 1519.01 876.33C1573.99 883.665 1626.88 898.958 1676.49 923.956C1770.67 971.394 1848.4 1045.17 1922.53 1118.82C1931.56 1127.78 1940.55 1136.78 1949.53 1145.77C1950.44 1146.67 1951.84 1145.27 1950.92 1144.35C1875.73 1069.13 1799.43 992.053 1706.83 938.166C1660.76 911.351 1611.17 891.555 1558.88 880.968C1500.74 869.188 1440.5 866.063 1381.29 865.791C1320.18 865.534 1259.15 869.666 1198.25 874.388C1139.12 878.959 1078.17 880.493 1020.94 897.41C970.237 912.394 920.796 940.779 888.793 983.698C857.944 1025.08 850.511 1076.51 857.102 1126.78C865.092 1187.71 891.44 1244.24 913.688 1300.91C937.114 1360.57 958.398 1421.06 977.402 1482.29C982.158 1497.65 986.783 1513.06 991.268 1528.5C991.664 1529.75 993.586 1529.26 993.235 1528.01Z" fill="url(#paint32_linear_5946_21267)"/>
<path d="M1001.54 1526.77C983.733 1465.66 963.103 1405.39 939.635 1346.21C928.058 1317.01 915.715 1288.12 902.895 1259.43C890.199 1231.03 877.36 1202.63 867.353 1173.17C850.048 1122.24 841.248 1065.48 858.706 1013.31C876.149 961.202 919.789 923.166 968.828 901.124C1023.39 876.604 1084.35 871.737 1143.41 870.191C1206.08 868.554 1268.88 869.102 1331.55 871.146C1392.56 873.138 1454.18 875.235 1514.69 883.879C1569.96 891.757 1623.02 907.664 1672.9 932.851C1768.53 981.174 1847.95 1055.58 1923.24 1130.54C1932.57 1139.83 1941.87 1149.16 1951.15 1158.53C1952.05 1159.44 1953.46 1158.03 1952.54 1157.11C1876.57 1080.61 1798.84 1003.01 1705.15 948.185C1658.22 920.718 1607.69 900.043 1554.44 888.818C1495.38 876.371 1434.59 873.564 1374.46 870.833C1310.12 867.918 1245.68 866.827 1181.25 867.544C1120.99 868.226 1059.38 869.22 1001.25 886.93C951.11 902.211 903.002 931.594 874.222 976.397C845.908 1020.5 842.557 1074.78 852.292 1125.17C864.004 1185.9 893.506 1241.42 917.601 1297.82C943.343 1358.08 966.142 1419.6 985.916 1482.09C990.661 1497.11 995.23 1512.18 999.642 1527.3C999.973 1528.51 1001.9 1528.02 1001.54 1526.77Z" fill="url(#paint33_linear_5946_21267)"/>
<path fill-rule="evenodd" clip-rule="evenodd" d="M87.3774 997.255C88.0624 997.94 89.0189 998.282 89.9873 998.188C90.9557 998.093 91.8296 997.574 92.3611 996.759C97.392 989.177 96.5771 978.867 89.8929 972.183C83.2204 965.51 72.8988 964.684 65.3288 969.726C64.5258 970.27 64.0061 971.144 63.8998 972.1C63.8054 973.069 64.1478 974.025 64.8328 974.71C70.0763 979.954 82.1339 992.011 87.3774 997.255ZM90.7195 1004.71C91.4045 1005.39 91.747 1006.35 91.6525 1007.32C91.558 1008.28 91.0384 1009.16 90.2235 1009.69C82.6654 1014.72 72.3437 1013.89 65.6713 1007.22C58.9988 1000.55 58.1722 990.228 63.2031 982.646C63.7463 981.843 64.6202 981.324 65.5768 981.217C66.5452 981.123 67.5018 981.465 68.1867 982.15C73.4184 987.405 85.4761 999.463 90.7195 1004.71Z" fill="#36D9FF"/>
<path fill-rule="evenodd" clip-rule="evenodd" d="M1877.38 637.255C1878.06 637.94 1879.02 638.282 1879.99 638.188C1880.96 638.093 1881.83 637.574 1882.36 636.759C1887.39 629.177 1886.58 618.867 1879.89 612.183C1873.22 605.51 1862.9 604.684 1855.33 609.726C1854.53 610.27 1854.01 611.144 1853.9 612.1C1853.81 613.069 1854.15 614.025 1854.83 614.71C1860.08 619.954 1872.13 632.011 1877.38 637.255ZM1880.72 644.707C1881.4 645.392 1881.75 646.348 1881.65 647.317C1881.56 648.285 1881.04 649.159 1880.22 649.69C1872.67 654.721 1862.34 653.895 1855.67 647.222C1849 640.55 1848.17 630.228 1853.2 622.646C1853.75 621.843 1854.62 621.324 1855.58 621.217C1856.55 621.123 1857.5 621.465 1858.19 622.15C1863.42 627.405 1875.48 639.463 1880.72 644.707Z" fill="#36D9FF"/>
<path fill-rule="evenodd" clip-rule="evenodd" d="M1483.66 79.5381C1485.09 79.3697 1486.22 78.2388 1486.39 76.8141C1486.98 71.9604 1488.26 61.516 1488.26 61.516C1488.36 60.671 1488.98 60.1497 1489.87 60.139C1490.76 60.1283 1491.82 60.6381 1492.67 61.4821L1516.08 84.8896C1516.92 85.7336 1517.43 86.7941 1517.42 87.6881C1517.41 88.5821 1516.9 89.1918 1516.04 89.3007C1516.04 89.3007 1505.6 90.5784 1500.74 91.1727C1499.32 91.3411 1498.19 92.472 1498.02 93.8967C1497.43 98.7504 1496.15 109.195 1496.15 109.195C1496.04 110.05 1495.43 110.561 1494.54 110.572C1493.64 110.583 1492.58 110.073 1491.74 109.229L1468.33 85.8212C1467.49 84.9772 1466.98 83.9167 1466.99 83.0227C1467 82.1287 1467.51 81.519 1468.36 81.4101C1468.36 81.4298 1478.82 80.1422 1483.66 79.5381Z" fill="#4EA4F9"/>
</g>
</g>
<defs>
<linearGradient id="paint0_linear_5946_21267" x1="451.887" y1="124.454" x2="451.887" y2="-224.104" gradientUnits="userSpaceOnUse">
<stop stop-color="#4EA4F9"/>
<stop offset="1" stop-color="#36D9FF"/>
</linearGradient>
<linearGradient id="paint1_linear_5946_21267" x1="453.29" y1="126.027" x2="453.29" y2="-235.929" gradientUnits="userSpaceOnUse">
<stop stop-color="#4EA4F9"/>
<stop offset="1" stop-color="#36D9FF"/>
</linearGradient>
<linearGradient id="paint2_linear_5946_21267" x1="454.695" y1="127.743" x2="454.695" y2="-247.755" gradientUnits="userSpaceOnUse">
<stop stop-color="#4EA4F9"/>
<stop offset="1" stop-color="#36D9FF"/>
</linearGradient>
<linearGradient id="paint3_linear_5946_21267" x1="456.098" y1="129.681" x2="456.098" y2="-259.582" gradientUnits="userSpaceOnUse">
<stop stop-color="#4EA4F9"/>
<stop offset="1" stop-color="#36D9FF"/>
</linearGradient>
<linearGradient id="paint4_linear_5946_21267" x1="457.502" y1="131.948" x2="457.502" y2="-271.408" gradientUnits="userSpaceOnUse">
<stop stop-color="#4EA4F9"/>
<stop offset="1" stop-color="#36D9FF"/>
</linearGradient>
<linearGradient id="paint5_linear_5946_21267" x1="458.906" y1="134.694" x2="458.906" y2="-283.235" gradientUnits="userSpaceOnUse">
<stop stop-color="#4EA4F9"/>
<stop offset="1" stop-color="#36D9FF"/>
</linearGradient>
<linearGradient id="paint6_linear_5946_21267" x1="460.31" y1="138.166" x2="460.31" y2="-295.062" gradientUnits="userSpaceOnUse">
<stop stop-color="#4EA4F9"/>
<stop offset="1" stop-color="#36D9FF"/>
</linearGradient>
<linearGradient id="paint7_linear_5946_21267" x1="461.714" y1="144.949" x2="461.714" y2="-306.802" gradientUnits="userSpaceOnUse">
<stop stop-color="#4EA4F9"/>
<stop offset="1" stop-color="#36D9FF"/>
</linearGradient>
<linearGradient id="paint8_linear_5946_21267" x1="463.118" y1="161.772" x2="463.118" y2="-318.503" gradientUnits="userSpaceOnUse">
<stop stop-color="#4EA4F9"/>
<stop offset="1" stop-color="#36D9FF"/>
</linearGradient>
<linearGradient id="paint9_linear_5946_21267" x1="464.522" y1="179.162" x2="464.522" y2="-330.07" gradientUnits="userSpaceOnUse">
<stop stop-color="#4EA4F9"/>
<stop offset="1" stop-color="#36D9FF"/>
</linearGradient>
<linearGradient id="paint10_linear_5946_21267" x1="465.927" y1="196.823" x2="465.927" y2="-341.873" gradientUnits="userSpaceOnUse">
<stop stop-color="#4EA4F9"/>
<stop offset="1" stop-color="#36D9FF"/>
</linearGradient>
<linearGradient id="paint11_linear_5946_21267" x1="467.331" y1="214.609" x2="467.331" y2="-353.701" gradientUnits="userSpaceOnUse">
<stop stop-color="#4EA4F9"/>
<stop offset="1" stop-color="#36D9FF"/>
</linearGradient>
<linearGradient id="paint12_linear_5946_21267" x1="468.735" y1="232.447" x2="468.735" y2="-365.529" gradientUnits="userSpaceOnUse">
<stop stop-color="#4EA4F9"/>
<stop offset="1" stop-color="#36D9FF"/>
</linearGradient>
<linearGradient id="paint13_linear_5946_21267" x1="470.139" y1="249.807" x2="470.139" y2="-377.854" gradientUnits="userSpaceOnUse">
<stop stop-color="#4EA4F9"/>
<stop offset="1" stop-color="#36D9FF"/>
</linearGradient>
<linearGradient id="paint14_linear_5946_21267" x1="471.544" y1="267.673" x2="471.544" y2="-389.682" gradientUnits="userSpaceOnUse">
<stop stop-color="#4EA4F9"/>
<stop offset="1" stop-color="#36D9FF"/>
</linearGradient>
<linearGradient id="paint15_linear_5946_21267" x1="472.948" y1="286.175" x2="472.948" y2="-400.876" gradientUnits="userSpaceOnUse">
<stop stop-color="#4EA4F9"/>
<stop offset="1" stop-color="#36D9FF"/>
</linearGradient>
<linearGradient id="paint16_linear_5946_21267" x1="474.353" y1="303.912" x2="474.353" y2="-412.834" gradientUnits="userSpaceOnUse">
<stop stop-color="#4EA4F9"/>
<stop offset="1" stop-color="#36D9FF"/>
</linearGradient>
<linearGradient id="paint17_linear_5946_21267" x1="1226.89" y1="955.519" x2="1401.16" y2="1257.38" gradientUnits="userSpaceOnUse">
<stop stop-color="#4EA4F9"/>
<stop offset="1" stop-color="#36D9FF"/>
</linearGradient>
<linearGradient id="paint18_linear_5946_21267" x1="1227.31" y1="953.455" x2="1408.29" y2="1266.92" gradientUnits="userSpaceOnUse">
<stop stop-color="#4EA4F9"/>
<stop offset="1" stop-color="#36D9FF"/>
</linearGradient>
<linearGradient id="paint19_linear_5946_21267" x1="1227.67" y1="951.267" x2="1415.42" y2="1276.46" gradientUnits="userSpaceOnUse">
<stop stop-color="#4EA4F9"/>
<stop offset="1" stop-color="#36D9FF"/>
</linearGradient>
<linearGradient id="paint20_linear_5946_21267" x1="1227.92" y1="948.886" x2="1422.55" y2="1286" gradientUnits="userSpaceOnUse">
<stop stop-color="#4EA4F9"/>
<stop offset="1" stop-color="#36D9FF"/>
</linearGradient>
<linearGradient id="paint21_linear_5946_21267" x1="1228" y1="946.221" x2="1429.68" y2="1295.54" gradientUnits="userSpaceOnUse">
<stop stop-color="#4EA4F9"/>
<stop offset="1" stop-color="#36D9FF"/>
</linearGradient>
<linearGradient id="paint22_linear_5946_21267" x1="1227.84" y1="943.141" x2="1436.81" y2="1305.08" gradientUnits="userSpaceOnUse">
<stop stop-color="#4EA4F9"/>
<stop offset="1" stop-color="#36D9FF"/>
</linearGradient>
<linearGradient id="paint23_linear_5946_21267" x1="1227.32" y1="939.432" x2="1443.94" y2="1314.62" gradientUnits="userSpaceOnUse">
<stop stop-color="#4EA4F9"/>
<stop offset="1" stop-color="#36D9FF"/>
</linearGradient>
<linearGradient id="paint24_linear_5946_21267" x1="1225.15" y1="932.856" x2="1451.02" y2="1324.08" gradientUnits="userSpaceOnUse">
<stop stop-color="#4EA4F9"/>
<stop offset="1" stop-color="#36D9FF"/>
</linearGradient>
<linearGradient id="paint25_linear_5946_21267" x1="1217.95" y1="917.585" x2="1458.09" y2="1333.52" gradientUnits="userSpaceOnUse">
<stop stop-color="#4EA4F9"/>
<stop offset="1" stop-color="#36D9FF"/>
</linearGradient>
<linearGradient id="paint26_linear_5946_21267" x1="1210.47" y1="901.822" x2="1465.09" y2="1342.83" gradientUnits="userSpaceOnUse">
<stop stop-color="#4EA4F9"/>
<stop offset="1" stop-color="#36D9FF"/>
</linearGradient>
<linearGradient id="paint27_linear_5946_21267" x1="1202.86" y1="885.825" x2="1472.21" y2="1352.35" gradientUnits="userSpaceOnUse">
<stop stop-color="#4EA4F9"/>
<stop offset="1" stop-color="#36D9FF"/>
</linearGradient>
<linearGradient id="paint28_linear_5946_21267" x1="1195.18" y1="869.72" x2="1479.34" y2="1361.89" gradientUnits="userSpaceOnUse">
<stop stop-color="#4EA4F9"/>
<stop offset="1" stop-color="#36D9FF"/>
</linearGradient>
<linearGradient id="paint29_linear_5946_21267" x1="1187.48" y1="853.57" x2="1486.47" y2="1371.43" gradientUnits="userSpaceOnUse">
<stop stop-color="#4EA4F9"/>
<stop offset="1" stop-color="#36D9FF"/>
</linearGradient>
<linearGradient id="paint30_linear_5946_21267" x1="1180.02" y1="837.833" x2="1493.85" y2="1381.4" gradientUnits="userSpaceOnUse">
<stop stop-color="#4EA4F9"/>
<stop offset="1" stop-color="#36D9FF"/>
</linearGradient>
<linearGradient id="paint31_linear_5946_21267" x1="1172.3" y1="821.659" x2="1500.98" y2="1390.95" gradientUnits="userSpaceOnUse">
<stop stop-color="#4EA4F9"/>
<stop offset="1" stop-color="#36D9FF"/>
</linearGradient>
<linearGradient id="paint32_linear_5946_21267" x1="1164.26" y1="804.934" x2="1507.79" y2="1399.94" gradientUnits="userSpaceOnUse">
<stop stop-color="#4EA4F9"/>
<stop offset="1" stop-color="#36D9FF"/>
</linearGradient>
<linearGradient id="paint33_linear_5946_21267" x1="1156.61" y1="788.871" x2="1514.99" y2="1409.59" gradientUnits="userSpaceOnUse">
<stop stop-color="#4EA4F9"/>
<stop offset="1" stop-color="#36D9FF"/>
</linearGradient>
<clipPath id="clip0_5946_21267">
<rect width="1920" height="1094" fill="white"/>
</clipPath>
</defs>
</svg>
