<svg width="18" height="22" viewBox="0 0 18 22" fill="none" xmlns="http://www.w3.org/2000/svg">
<path d="M15.54 3.2009L10.04 1.1409C9.47005 0.930898 8.54005 0.930898 7.97005 1.1409L2.47005 3.2009C1.41005 3.6009 0.550049 4.8409 0.550049 5.9709V14.0709C0.550049 14.8809 1.08005 15.9509 1.73005 16.4309L7.23005 20.5409C8.20005 21.2709 9.79005 21.2709 10.76 20.5409L16.26 16.4309C16.91 15.9409 17.4401 14.8809 17.4401 14.0709V5.9709C17.4501 4.8409 16.59 3.6009 15.54 3.2009ZM12.48 8.8009L8.18005 13.1009C8.03005 13.2509 7.84005 13.3209 7.65005 13.3209C7.46005 13.3209 7.27005 13.2509 7.12005 13.1009L5.52005 11.4809C5.23005 11.1909 5.23005 10.7109 5.52005 10.4209C5.81005 10.1309 6.29005 10.1309 6.58005 10.4209L7.66005 11.5009L11.43 7.7309C11.72 7.4409 12.2 7.4409 12.49 7.7309C12.78 8.0209 12.78 8.5109 12.48 8.8009Z" fill="#344054"/>
</svg>
