<svg width="100" height="100" viewBox="0 0 100 100" fill="none" xmlns="http://www.w3.org/2000/svg">
<path d="M79.0526 45.9898C79.023 46.5463 78.8961 47.075 78.6887 47.5592L78.5637 47.8287L78.2424 48.5231L77.9526 49.15L72.9073 60.0435L72.8767 60.1083L72.8711 60.1213C72.8082 60.2741 72.7693 60.4389 72.76 60.6129C72.7582 60.6398 72.7582 60.6657 72.7582 60.6926V66.8592H72.7573C72.7573 66.9222 72.7563 66.9861 72.7526 67.05C72.7424 67.237 72.7184 67.4204 72.6804 67.5981C72.4397 68.7352 71.6563 69.6611 70.6249 70.1167C70.123 70.338 69.561 70.4481 68.9758 70.4167C68.5045 70.3917 68.0591 70.2768 67.6554 70.0907C66.7545 69.6759 66.0619 68.9028 65.7508 67.9667C65.6508 67.6639 65.5906 67.3435 65.5767 67.012V60.4167C65.5767 60.2046 65.5823 59.9917 65.5934 59.7768C65.6147 59.3759 65.6554 58.9815 65.7156 58.5926C65.8758 57.5509 66.1712 56.5565 66.5823 55.6259L66.7471 55.2722L69.3054 49.7481L69.3036 49.7472C69.3739 49.6009 69.4165 49.438 69.4258 49.2657C69.4619 48.5963 68.9767 48.0185 68.3221 47.9194L68.2573 47.9111H68.2563L67.8563 47.8602L43.0971 44.7L38.023 44.0528L37.9647 44.0454C35.6415 43.738 33.8517 41.8741 33.6258 39.5917C33.5582 38.8768 33.5239 38.1528 33.5239 37.4222C33.5239 24.6907 43.8452 14.3704 56.5767 14.3704C67.2017 14.3704 76.148 21.5583 78.8165 31.337C78.8721 31.5407 78.9249 31.7454 78.9748 31.9509C79.01 32.1555 79.0286 32.3667 79.0286 32.5824C79.0286 34.6463 77.3554 36.3204 75.2906 36.3204C73.5582 36.3204 72.0998 35.1398 71.6767 33.5398C71.6665 33.4963 71.6554 33.4528 71.6443 33.4102C69.9536 26.6972 63.8749 21.7278 56.6378 21.7278C48.8749 21.7278 42.4461 27.4444 41.3341 34.8991C41.3267 34.9435 41.3202 34.988 41.3137 35.0333C41.31 35.063 41.3054 35.0926 41.3017 35.1231C41.2989 35.1518 41.2971 35.1805 41.2952 35.2093C41.2508 36.0454 41.81 36.7741 42.5952 36.9815L43.0545 37.0398L43.2193 37.0611L71.7174 40.6981L74.935 41.1083L74.9758 41.1139C76.6711 41.337 78.0637 42.4481 78.6943 43.9389C78.96 44.5676 79.0906 45.2639 79.0526 45.9898Z" fill="white"/>
<path d="M58.0406 10.0194C58.0341 10.1453 57.9258 10.2425 57.7989 10.2351C57.36 10.2166 56.9184 10.2074 56.4748 10.2074C39.3647 10.2074 25.4934 24.0787 25.4934 41.1888C25.4934 54.149 33.4498 65.2509 44.7461 69.874C44.8313 69.9111 44.8887 69.9972 44.8823 70.0944C44.8758 70.2203 44.7674 70.3175 44.6406 70.3101C44.6332 70.3101 44.6258 70.3092 44.6184 70.3083C44.6184 70.3083 44.6184 70.3083 44.6174 70.3083C44.6054 70.3055 44.5934 70.3027 44.5813 70.2999C44.5795 70.299 44.5767 70.2981 44.5739 70.2972C31.0387 66.9796 20.9971 54.7666 20.9971 40.2083C20.9971 23.0981 34.8684 9.22681 51.9785 9.22681C53.9841 9.22681 55.9461 9.41847 57.8452 9.78236C57.9563 9.7981 58.0406 9.90644 58.0406 10.0194Z" fill="white"/>
<path d="M51.6445 78.5426C50.7185 78.5426 49.8482 77.9703 49.513 77.05C49.0843 75.8731 49.6917 74.5713 50.8685 74.1435L61.3861 70.3157C62.563 69.887 63.8648 70.4944 64.2926 71.6713C64.7213 72.8481 64.1139 74.15 62.937 74.5777L52.4195 78.4055C52.1639 78.499 51.9019 78.5426 51.6445 78.5426Z" fill="white"/>
<path d="M57.0961 90.774C56.1702 90.774 55.2998 90.2018 54.9646 89.2814C54.5359 88.1046 55.1433 86.8027 56.3202 86.3749L66.8378 82.5472C68.0146 82.1185 69.3165 82.7259 69.7443 83.9027C70.173 85.0796 69.5656 86.3814 68.3887 86.8092L57.8711 90.637C57.6156 90.7296 57.3535 90.774 57.0961 90.774Z" fill="white"/>
<path d="M52.8139 85.2158C51.888 85.2158 51.0176 84.6435 50.6824 83.7232C50.2537 82.5463 50.8611 81.2445 52.038 80.8167L68.0324 74.9954C69.2093 74.5667 70.5111 75.1741 70.9389 76.351C71.3676 77.5278 70.7602 78.8297 69.5833 79.2574L53.5889 85.0787C53.3333 85.1713 53.0713 85.2158 52.8139 85.2158Z" fill="white"/>
</svg>
