<svg width="1018" height="727" viewBox="0 0 1018 727" fill="none" xmlns="http://www.w3.org/2000/svg">
<path d="M700.459 89.7503C697.896 89.3354 693.176 89.3792 690.056 89.8773C682.96 91.0815 669.721 96.3693 662.17 101.055C659.008 102.989 656.277 104.559 656.049 104.42C655.897 104.327 655.787 102.798 655.968 101.134C656.245 96.9183 654.624 89.1442 652.951 86.2445C652.106 84.8939 649.876 82.9072 647.9 81.7016C644.631 79.7078 643.837 79.6412 639.215 80.893C633.001 82.5311 627.915 86.4234 623.142 93.2213C616.796 102.087 617.822 101.773 610.22 97.136C600.718 91.34 593.198 89.9893 587.339 93.0969C581.742 95.9465 580.22 101.178 582.756 108.989C583.593 111.378 585.49 114.937 587.125 116.873C590.272 120.776 605.468 132.969 613.585 138.129C630.351 148.773 692.181 184.713 695.458 185.668C700.44 187.246 710.843 185.239 716.583 181.642C721.433 178.649 726.421 171.67 726.744 167.378C727.403 157.235 720.615 150.067 704.197 143.811C700.131 142.27 696.706 140.703 696.571 140.412C696.558 140.091 698.807 137.6 701.639 134.839C712.013 124.672 717.252 112.834 715.369 103.438C713.795 95.588 709.2 91.3234 700.459 89.7503ZM708.841 102.171C712.619 109.486 707.38 121.324 695.364 132.473C689.578 138.026 689.038 138.74 689.051 140.941C689.239 144.396 689.771 144.72 703.402 149.903C711.459 152.938 713.376 153.899 716.484 156.839C720.746 160.796 721.909 164.533 720.378 168.923C718.645 173.817 714.724 177.167 708.324 179.109C697.99 182.201 701.034 183.536 659.255 158.156C638.912 145.852 616.956 132.773 610.356 129.06C596.926 121.495 592.724 117.783 589.082 110.759C587.877 108.458 587.019 104.907 587.187 102.922C587.321 99.4538 587.46 99.2256 589.959 98.0356C594.497 95.8969 599.589 97.1239 608.711 102.688C614.564 106.258 617.258 107.484 618.284 107.17C619.111 106.84 622.239 103.423 625.218 99.394C634.075 87.7801 640.782 83.6239 645.875 86.7305C649.22 88.7707 650.968 97.8752 649.548 105.674C648.668 110.879 648.736 111.965 650.332 112.938C651.928 113.912 653.537 113.327 661.333 108.583C672.92 101.557 676.537 99.9005 686.243 97.1556C698.029 93.9054 705.41 95.4844 708.841 102.171Z" fill="url(#paint0_linear_240_5098)"/>
<path d="M637.792 162.394C633.536 163.557 626.31 167.71 625.15 169.612C623.896 171.666 626.084 173.209 629.221 172.513C636.014 171.123 644.404 164.549 642.482 162.228C642.089 161.675 639.966 161.737 637.792 162.394Z" fill="url(#paint1_linear_240_5098)"/>
<path d="M666.202 182.334C665.054 182.677 662.246 184.201 659.76 185.712C651.61 190.867 651.392 195.328 659.514 191.93C667.589 188.609 673.505 180.107 666.202 182.334Z" fill="url(#paint2_linear_240_5098)"/>
<path d="M597.32 143.763C594.352 144.353 588.337 147.888 587.316 149.562C586.341 151.16 587.309 152.48 589.492 152.664C593.828 152.907 603.569 145.487 600.985 143.91C600.377 143.539 598.743 143.482 597.32 143.763Z" fill="url(#paint3_linear_240_5098)"/>
<path d="M627.341 190.471C624.555 191.277 620.662 192.87 618.683 194.064C615.766 195.938 615.319 196.501 615.767 197.818C616.498 200.039 619.306 200.394 623.777 199.05C628.049 197.689 632.936 193.78 633.413 191.46C633.842 189.217 632.896 189.058 627.341 190.471Z" fill="url(#paint4_linear_240_5098)"/>
<path d="M592.066 169.476C590.647 169.237 584.632 172.771 583.564 174.521C583.193 175.13 583.324 175.94 583.856 176.265C585.681 177.378 588.467 176.572 591.603 173.996C595.169 171.056 595.3 169.987 592.066 169.476Z" fill="url(#paint5_linear_240_5098)"/>
<path d="M320.602 117.298C290.91 122.696 284.803 144.352 307.153 165.097C322.227 179.014 347.825 191.565 367.057 194.427C374.334 195.467 385.119 194.882 390.577 193.126C398.633 190.59 403.636 183.956 402.467 177.453C400.648 167.633 388.043 157.943 371.345 153.651C360.885 150.985 344.057 150.725 343.212 153.261C342.888 154.237 344.187 154.432 355.102 155.277C366.083 156.123 374.269 158.204 382.39 162.171C392.461 167.113 398.309 173.616 398.309 179.859C398.309 186.493 389.472 191.11 376.608 191.11C355.362 191.11 326.125 178.038 308.972 160.87C300.851 152.741 297.992 147.668 297.992 141.035C297.927 137.523 298.252 136.288 299.746 133.686C308.323 119.054 339.899 116.648 376.868 127.833C397.074 133.881 411.758 140.059 423.907 147.473C432.484 152.741 439.241 155.472 434.888 151.895C431.379 148.969 415.461 139.214 409.029 136.027C392.591 127.833 367.512 119.964 349.515 117.298C341.263 116.128 327.035 116.128 320.602 117.298Z" fill="url(#paint6_linear_240_5098)"/>
<path d="M340.808 139.149C335.546 139.93 330.478 142.531 328.854 145.197C326.84 148.449 327.034 153.066 329.373 156.708C333.532 163.341 345.551 170.365 358.156 173.552C364.263 175.112 374.529 176.023 375.179 174.982C375.828 173.942 374.919 173.617 369.331 172.836C354.063 170.755 334.116 159.96 331.972 152.676C330.868 149.099 331.972 147.083 336.195 145.002C338.924 143.637 340.549 143.376 347.89 143.116C357.051 142.791 362.574 143.572 374.269 146.628C388.823 150.465 406.04 158.009 417.41 165.553C425.142 170.625 434.238 179.535 436.902 184.542C440.41 191.11 439.111 197.484 433.263 202.491C421.503 212.571 397.399 215.237 368.356 209.58C353.673 206.718 348.93 205.027 322.421 193.061C319.043 191.566 316.184 190.525 315.989 190.72C315.015 191.631 316.899 193.321 323.006 196.898C335.676 204.442 352.503 210.555 368.681 213.482C393.566 218.099 413.902 216.928 427.871 210.035C434.108 206.913 438.006 203.727 440.41 199.695C441.905 197.093 442.164 195.923 442.164 191.761C442.164 187.664 441.84 186.233 440.215 182.981C437.551 177.649 427.741 167.894 419.814 162.626C395.775 146.758 359.975 136.093 340.808 139.149Z" fill="url(#paint7_linear_240_5098)"/>
<path d="M284.283 170.365C283.373 171.73 284.738 176.933 287.207 181.875C291.105 189.614 299.551 199.044 299.551 195.597C299.551 195.142 297.472 191.63 294.938 187.728C292.405 183.891 289.221 178.234 287.792 175.177C286.362 172.121 285.063 169.649 284.933 169.649C284.803 169.649 284.478 169.974 284.283 170.365Z" fill="url(#paint8_linear_240_5098)"/>
<path d="M457.108 184.607C456.913 184.932 457.238 186.883 457.823 188.834C458.797 192.216 458.797 192.736 457.758 195.858C457.173 197.744 455.809 200.735 454.769 202.556C452.69 206.263 452.365 208.019 453.859 208.019C455.029 208.019 458.342 203.597 460.422 199.239C462.631 194.622 462.501 190.85 460.032 187.013C458.018 183.762 457.758 183.567 457.108 184.607Z" fill="url(#paint9_linear_240_5098)"/>
<path d="M720.132 251.535C719.05 252.224 714.808 255.495 710.761 258.759L703.361 264.678L698.282 262.577C691.423 259.757 681.245 256.858 678.388 256.957C676.895 257.009 675.677 257.507 674.927 258.379C673.179 260.457 674.687 262.682 684.311 272.108C689.091 276.822 692.876 280.985 692.762 281.445C692.646 281.839 689.998 284.209 686.9 286.724C683.802 289.24 680.274 292.486 679.023 293.896C676.772 296.447 676.772 296.447 676.64 303.87C676.413 316.046 672.003 331.296 665.61 341.865C657.068 356.088 641.816 371.78 624.817 383.954C617.143 389.492 615.201 391.577 615.98 393.437C616.971 395.745 623.918 393.616 642.097 385.435C655.218 379.513 675.016 367.436 688.12 357.285C701.414 346.996 714.112 332.629 718.828 322.444C719.613 320.725 720.976 318.79 721.802 318.241C723.26 317.149 724.087 314.778 726.842 302.383L728.022 297.071L731.766 296.29C738.731 294.682 745.861 292.221 747.182 290.939C747.936 290.197 748.478 288.941 748.448 288.097C748.38 286.147 746.656 285.166 735.383 280.677C730.768 278.821 726.674 277.011 726.34 276.762C725.937 276.386 725.871 272.614 726.203 267.202C726.705 257.358 726.012 252.372 724.014 251.01C722.482 249.957 722.482 249.957 720.132 251.535ZM722.477 261.019C722.574 263.814 722.484 268.698 722.268 271.828L721.947 277.566L723.894 279.32C725.032 280.257 729.396 282.382 733.548 283.995C741.325 287.043 743.773 288.259 743.209 288.864C743.019 289.001 739.291 290.237 734.847 291.433C726.545 293.869 724.381 295.181 723.847 298.518C722.926 303.821 721.086 312.605 720.603 313.663C720.057 314.788 719.925 314.727 718.697 313.078C717.947 312.063 715.603 308.24 713.459 304.541C711.315 300.841 708.714 297.092 707.704 296.086C705.489 294.081 702.95 293.974 693.457 295.801C686.675 297.078 681.812 297.443 681.785 296.663C681.776 296.403 685.178 293.291 689.348 289.828C695.793 284.463 696.921 283.252 696.869 281.757C696.79 279.482 694.615 276.76 686.73 268.77C681.205 263.171 679.845 261.462 680.884 261.425C681.079 261.419 686.142 263.064 692.06 265.006L702.85 268.665L707.172 265.847C709.525 264.333 713.646 261.327 716.176 259.286C718.768 257.179 721.246 255.531 721.575 255.65C722.034 255.764 722.371 257.965 722.477 261.019ZM700.952 305.692C693.389 331.203 676.686 353.778 653.452 369.879C647.677 373.919 637.854 379.336 637.824 378.491C637.82 378.361 641.094 375.319 645.063 371.667C654.265 363.343 663.146 353.273 667.953 345.688C675.41 333.911 679.93 319.958 680.038 308.111L680.186 301.143L685.118 300.907C687.845 300.812 692.702 300.252 695.868 299.687C699.098 299.119 701.951 298.89 702.22 299.14C702.551 299.324 701.941 302.339 700.952 305.692ZM709.344 305.855C710.176 307.323 712.237 310.505 713.881 312.92C715.59 315.334 716.966 317.498 716.973 317.693C717 318.473 711.754 326.529 707.282 332.541C695.792 347.973 676.119 363.624 651.737 376.641C639.353 383.188 634.866 385.036 643.402 379.989C658.247 371.273 667.619 364.115 677.604 354.007C691.043 340.394 700.947 322.35 704.506 305.048C705.447 300.33 705.444 300.265 706.665 301.719C707.277 302.478 708.511 304.323 709.344 305.855Z" fill="url(#paint10_linear_240_5098)"/>
<path d="M660.127 279.587C660.006 279.851 659.755 285.717 659.603 292.554C659.232 308.054 657.904 318.447 654.616 330.47C651.906 340.39 651.654 342.481 653.017 342.433C654.9 342.368 657.646 337.197 660.399 328.511C662.629 321.601 663.536 315.908 663.847 306.137C664.35 292.584 662.09 276.2 660.127 279.587Z" fill="url(#paint11_linear_240_5098)"/>
<path d="M741.106 305.011C740.615 305.874 739.231 309.045 737.971 312.082C733.356 323.305 725.516 335.291 714.516 347.972C708.513 354.818 707.477 356.807 709.814 356.725C711.438 356.669 719.453 349.753 724.015 344.453C728.14 339.69 735.106 328.775 737.946 322.56C741.693 314.426 744.367 303.465 742.549 303.529C742.225 303.54 741.598 304.213 741.106 305.011Z" fill="url(#paint12_linear_240_5098)"/>
<path d="M637.79 356.954C635.039 360.108 634.583 361.946 636.466 361.88C637.7 361.837 642.25 356.213 642.2 354.783C642.141 353.093 640.35 353.936 637.79 356.954Z" fill="url(#paint13_linear_240_5098)"/>
<path d="M685.674 367.326C682.482 368.999 680.451 370.436 680.474 371.086C680.521 372.451 681.816 372.275 686.748 370.152C691.422 368.102 693.699 366.266 693.011 365.183C692.258 364.103 691.226 364.335 685.674 367.326Z" fill="url(#paint14_linear_240_5098)"/>
<path d="M189.865 342.46C187.136 347.461 187.561 353.401 191.178 360.331C198.812 374.864 221.804 386.057 243.858 385.915C250.06 385.865 249.841 385.783 249.531 388.247C249.131 391.256 251.259 392.771 255.209 392.256C257.791 391.843 258.321 392.023 260.563 394.256C263.928 397.605 266.292 402.792 267.36 409.071C268.13 414.042 268.089 415.432 266.923 430.52C266.178 439.62 266.557 442.711 268.844 447.233C272.416 454.436 278.363 457.371 288.319 456.868C290.441 456.705 297.329 455.603 303.649 454.268C318.637 451.193 320.54 450.947 325.414 451.051C330.483 451.094 335.015 453.284 339.258 457.523C343.744 461.989 346.364 466.752 349.366 475.725C351.401 481.789 352.123 483.352 353.03 483.502C354.534 483.703 354.529 482.025 353.022 475.581C351.087 467.204 349.278 463.459 344.402 457.113C340.679 452.261 339.429 451.076 336.485 449.427C329.069 445.225 324.052 445.144 305.983 448.83C290.368 452.035 285.572 452.596 280.794 451.623C275.978 450.597 273.388 448.214 271.544 442.973C270.318 439.37 270.303 434.337 271.558 421.268C272.614 410.262 270.336 400.85 265.105 394.678C263.453 392.822 261.596 390.793 261.021 390.325C260.112 389.617 260.096 389.148 260.961 388.126C262.693 386.082 262.89 383.459 261.411 381.399C260.159 379.656 260.121 379.603 263.816 374.389C277.18 355.348 282.538 332.287 276.444 320.01C271.11 309.349 260.565 307.473 249.927 315.271C244.159 319.492 240.194 325.221 236.451 334.713C234.725 338.994 233.013 342.625 232.583 342.694C232.137 342.853 228.976 341.68 225.458 340.123C209.724 333.246 194.374 334.259 189.865 342.46ZM202.189 340.577C208.072 339.636 213.409 340.608 222.349 344.036C226.993 345.826 231.538 347.366 232.513 347.387C235.551 347.608 237.464 345.594 239.285 340.443C241.445 334.65 245.141 327.433 247.543 324.428C250.329 321.067 255.946 317.194 259.291 316.394C268.124 314.215 273.62 320.756 273.664 333.294C273.711 344.388 267.686 361.843 259.622 374.117C257.892 376.72 255.889 379.279 255.203 379.771C253.461 381.022 241.094 381.175 233.823 380.071C223.014 378.384 212.659 374.21 204.316 368.271C200.099 365.294 194.714 357.793 193.568 353.412C191.773 346.455 194.925 341.71 202.189 340.577Z" fill="url(#paint15_linear_240_5098)"/>
<path d="M745.216 614.675C747.513 623.214 751.983 630.502 759.484 637.619C766.229 644.021 770.247 646.4 778.686 649.034C783.508 650.565 786.091 650.867 793.627 650.673C802.265 650.451 802.911 650.526 805.858 652.427C817.231 659.905 837.453 659.569 857.702 651.646C875.995 644.462 900.803 628.146 913.869 614.66C918.344 610.039 919.321 608.726 919.113 607.812C918.654 606.123 917.705 606.745 910.294 613.326C893.051 628.851 873.023 641.642 855.545 648.345C842.166 653.563 828.513 655.385 818.207 653.397C814.091 652.537 807.449 649.996 807.382 649.216C807.374 648.94 809.317 647.649 811.672 646.301C816.698 643.367 818.981 641.055 821.079 636.955C823.264 632.669 822.967 628.446 820.214 625.207C817.369 621.969 815.737 621.138 812.101 621.001C807.959 620.832 804.285 622.72 800.987 626.667C796.622 631.929 795.671 637.654 798.165 643.246C798.85 644.791 799.167 646.346 798.809 646.723C797.915 647.666 787.796 647.558 782.986 646.487C768.974 643.491 755.889 632.148 749.147 617.241C747.777 614.15 746.33 611.612 746.007 611.574C744.805 611.329 744.599 612.208 745.216 614.675ZM807.033 625.776C809.795 624.187 814.765 624.335 816.652 626.126C820.332 629.618 819.729 634.599 814.851 639.644C810.826 643.885 804.914 646.336 803.027 644.546C800.669 642.308 799.799 637.272 801.03 633.424C802.352 629.574 803.776 627.79 807.033 625.776Z" fill="url(#paint16_linear_240_5098)"/>
<path d="M840.373 641.471C841.6 642.634 849.133 642.349 855.119 640.953C863.022 639.049 869.052 635.813 877.69 628.694C881.65 625.466 882.982 623.684 882.039 622.789C881.284 622.073 879.195 623.046 873.183 626.925C862.468 633.776 853.968 637.443 845.312 638.723C840.319 639.449 839.052 640.217 840.373 641.471Z" fill="url(#paint17_linear_240_5098)"/>
<path d="M929.473 558.349C929.644 559.586 931.722 563.348 935.852 569.955L938.736 574.663L934.46 585.026C929.536 596.923 929.118 598.497 930.392 599.706C931.901 601.138 934.629 599.965 941.935 594.627C945.769 591.816 949.199 589.429 949.656 589.325C950.615 589.07 954.531 592.786 960.556 599.758C966.201 606.279 966.899 606.583 969.717 603.614C970.7 602.577 975.795 593.618 980.958 583.738C986.212 573.855 991.513 564.018 992.833 561.777C995.649 557.014 996.226 554.517 994.82 553.541C994.212 553.143 990.166 553.155 985.67 553.547C981.175 553.938 971.113 554.243 963.295 554.168C939.427 554 937.497 554.05 934.608 554.354C931.72 554.658 929.288 556.56 929.473 558.349ZM946.474 557.911C952.683 557.981 961.788 558.023 966.661 557.99C971.534 557.956 975.814 558.076 976.139 558.206C976.742 558.42 973.468 559.792 953.447 567.663C944.619 571.109 941.745 571.964 941.313 571.286C936.5 563.225 934.222 558.824 934.669 558.353C934.937 558.07 940.22 557.888 946.474 557.911ZM964.741 567.005C982.32 560.668 985.241 559.857 982.317 562.277C972.508 570.346 955.399 582.234 949.181 585.291C946.958 586.406 943.472 588.472 941.398 589.997C939.321 591.43 937.286 592.724 936.874 592.78C936.462 592.837 936.992 590.294 938.106 587.231C939.128 584.17 940.358 580.322 940.776 578.748L941.575 575.923L944.754 574.462C946.573 573.679 955.54 570.276 964.741 567.005ZM959.337 583.374C963.362 580.834 983.53 566.384 984.782 565.064C985.992 563.884 984.65 566.999 981.192 573.571C979.177 577.301 975.426 584.938 972.816 590.522C970.251 596.06 967.895 600.81 967.626 601.093C967.134 601.611 965.528 599.997 956.948 590.333C955.337 588.535 954.235 586.862 954.503 586.579C954.727 586.344 956.94 584.861 959.337 583.374Z" fill="url(#paint18_linear_240_5098)"/>
<path d="M302.242 644.44C301.402 644.792 297.946 647.65 294.495 650.858C291.045 654.065 287.339 657.168 286.225 657.706L284.176 658.706L279.454 647.441C274.782 636.295 274.707 636.116 272.79 635.58C268.846 634.416 265.874 636.577 255.411 648.29C251.697 652.383 248.417 655.66 248.162 655.555C247.907 655.451 247.737 647.139 247.854 637.156C247.946 627.114 247.909 618.112 247.747 617.053C247.171 613.49 243.261 611.395 239.902 612.803C237.563 613.784 234.234 617.786 222.827 633.134C216.48 641.712 210.378 649.695 209.199 650.753C205.075 654.877 204.61 652.254 206.563 634.034C208.928 611.415 208.931 604.862 206.459 606.532C205.3 607.3 204.571 610.776 202.377 626.067C199.155 647.988 199.68 655.8 204.476 658.157C208.115 659.943 212.204 655.904 226.116 637.11C240.226 617.951 241.484 616.578 242.363 618.675C242.615 619.275 242.677 626.152 242.501 633.976C242.061 656.14 242.494 660.538 245.408 662.275C247.676 663.649 250.399 661.733 257.991 653.267C267.306 643.022 269.793 640.711 270.899 641.164C271.495 641.407 272.625 644.103 274.431 649.757C278.802 663.213 281.273 665.911 287.09 663.472C290.989 661.838 293.51 659.442 299.439 651.885C304.315 645.685 305.18 643.208 302.242 644.44Z" fill="url(#paint19_linear_240_5098)"/>
<path d="M769.343 305.963C767.871 312.352 769.838 323.496 773.16 327.711C777.867 333.742 778.305 334.023 781.579 334.58C787.963 335.589 795.42 332.036 799.983 326.009C803.329 321.517 804.136 317.249 802.132 314.11C801.407 312.951 800.484 311.74 800.046 311.46C798.369 310.461 793.099 310.244 789.018 310.945L784.722 311.739L782.907 307.101C781.488 303.412 780.635 302.092 778.938 301.004C776.092 299.177 774.432 299.116 772.387 300.737C770.217 302.433 770.097 302.741 769.343 305.963ZM776.186 305.413C776.788 305.8 777.799 307.838 778.395 309.919C780.506 316.985 781.292 317.567 788.212 316.295C796.3 314.769 798.512 315.416 797.747 319.016C796.784 323.648 791.04 328.145 784.213 329.632L779.508 330.704L777.79 328.443C775.391 325.438 774.172 321.799 773.775 316.758C773.089 308.675 774.106 304.079 776.186 305.413Z" fill="url(#paint20_linear_240_5098)"/>
<path d="M714.384 393.904C711.562 402.515 715.18 412.171 723.172 417.298L727.058 419.792L721.045 428.44C710.638 443.454 698.275 455.978 685.071 464.875C680.938 467.704 677.539 470.232 677.598 470.502C677.849 471.435 681.383 470.383 685.544 468.112C699.746 460.55 716.269 444.674 727.365 427.863L732.492 420.113L736.034 419.53C748.493 417.334 758.744 405.693 764.1 387.592C766.122 380.707 768.055 370.831 769.603 359.627C770.764 350.954 770.788 348.267 769.802 347.635C768.872 347.038 767.666 351.205 765.397 363.413C759.91 392.315 753.923 405.379 742.966 411.858C740.023 413.675 735.505 415.176 734.684 414.65C734.465 414.509 734.558 413.642 734.9 412.627C735.262 411.701 735.832 408.284 736.227 405.141C737.039 399.178 736.345 393.637 734.297 390.084C732.696 387.281 728.591 384.647 725.704 384.571C721.102 384.397 716.197 388.429 714.384 393.904ZM723.91 390.136C725.808 389.346 728.267 390.692 729.848 393.405C732.099 397.243 731.873 406.747 729.424 412.973C728.836 414.371 728.496 414.539 727.082 414.094C722.709 412.601 718.653 405.675 718.692 399.834C718.656 395.796 721.099 391.265 723.91 390.136Z" fill="url(#paint21_linear_240_5098)"/>
<path d="M303.907 234.988C304.329 236.041 305.555 240.259 306.57 244.377C309.432 255.97 313.811 263.655 318.114 264.716C319.828 265.181 320.461 265.02 322.31 263.756C324.461 262.316 327.225 257.958 327.629 255.4C327.789 254.719 328.217 254.063 328.603 254.005C329.641 253.915 339.792 261.06 343.311 264.342C346.135 266.939 348.644 270.504 348.905 272.238C349.147 273.844 345.923 278.206 341.866 281.839C332.994 289.744 329.699 294.511 329.617 299.648C329.585 307.734 340.584 313.963 363.815 318.878C376.112 321.495 378.733 322.744 377.207 325.273C376.844 325.919 373.671 328.433 370.157 330.867C359.258 338.42 356.179 342.432 357.02 348.021C357.871 353.675 365.33 359.977 374.595 362.985C380.319 364.752 386.339 365.423 387.213 364.24C388.033 363.132 387.061 362.358 384.235 361.929C375.671 360.524 364.775 354.542 362.664 350.129C360.618 345.706 361.264 344.755 372.747 336.719C380.781 331.108 383.047 329.125 383.944 327.216C386.887 320.991 382.783 316.878 370.965 314.386C354.918 310.887 348.956 309.287 344.37 307.218C339.433 305.004 336.361 302.509 336.052 300.454C335.675 297.948 338.352 294.326 345.415 287.941C354.378 279.759 355.894 277.166 355.034 271.447C354.599 268.556 353.933 266.751 352.363 264.622C349.873 261.186 341.555 254.422 336.487 251.768L332.84 249.82L336.662 248.128C341.173 246.201 342.906 244.166 343.814 240.153C346.28 229.006 332.515 221.879 313.995 224.666C306.663 225.769 303.657 227.207 303.079 229.922C302.598 231.966 302.749 232.534 303.907 234.988ZM313.482 229.999C329.311 227.683 341.934 233.34 337.316 240.671C336.034 242.638 335.85 242.731 329.365 243.772C325.709 244.388 322.374 244.956 321.934 245.088C320.86 245.381 321.279 247.289 322.771 248.904C323.855 249.989 324.016 250.622 323.683 252.775C323.387 255.184 320.662 259.799 319.505 259.974C318.797 260.08 315.741 255.941 314.534 253.166C313.936 251.81 312.362 246.594 311.074 241.531C309.731 236.543 308.505 232.325 308.357 232.216C307.321 231.452 309.173 230.648 313.482 229.999Z" fill="url(#paint22_linear_240_5098)"/>
<path d="M797.751 492.789C796.137 492.763 793.521 493.591 790.724 495.122C788.324 496.395 786.186 497.465 786.051 497.521C785.917 497.576 785.075 495.377 784.201 492.72C782.447 487.313 780.394 484.922 776.784 484.021C774.16 483.375 769.853 485.057 767.718 487.51C762.899 493.144 763.609 505.489 769.34 515.134C773.187 521.501 773.254 521.127 764.611 531.452L757.2 540.261L757.072 534.373C756.843 524.344 751.398 514.173 746.244 514.256C744.22 514.304 742.359 516.047 741.881 518.476C741.287 521.236 741.858 528.199 742.909 530.752C743.973 533.489 748.114 540.111 750.578 543.119L752.233 545.077L748.816 548.31C741.029 555.672 725.377 565.24 710.178 572.013C702.304 575.418 700.979 576.248 701.861 577.016C703.772 578.679 721.489 571.685 733.887 564.371C741.771 559.767 751.381 552.785 753.772 550.038C755.608 547.929 757.131 547.961 761.568 550.186C769.96 554.301 781.742 554.124 788.532 549.689C792.416 547.207 792.681 542.35 788.959 540.49C785.232 538.538 776.469 538.412 766.959 540.134L763.683 540.731L766.836 537.01C768.538 534.956 771.416 531.254 773.227 528.778C776.422 524.316 776.556 524.261 780.43 522.977C786.559 520.983 791.499 517.783 796.49 512.643C801.993 506.915 803.655 503.62 803.426 498.936C803.227 494.711 801.487 492.851 797.751 492.789ZM799.52 499.761C799.595 503.534 794.857 509.67 788.703 513.969C782.939 517.918 777.648 520.038 776.954 518.658C776.684 518.078 775.426 515.862 774.217 513.688C770.823 507.889 769.728 504.694 769.339 499.699C768.918 494.245 770.188 490.609 773.175 489.157C777.359 487.022 779.904 490.531 780.343 498.932C780.825 507.284 782.447 508.093 787.321 502.593C789.2 500.434 793.218 497.897 796.023 497.148C798.009 496.549 799.51 497.596 799.52 499.761ZM785.383 546.775C783.143 548.36 771.575 548.982 767.023 547.778C764.913 547.234 763.212 546.616 763.193 546.34C763.086 544.781 777.83 542.786 783.414 543.595C787.231 544.158 787.801 545.086 785.383 546.775ZM750.982 525.536C751.805 527.46 752.601 530.998 752.759 533.291L753.091 537.461L751.5 536.42C748.26 534.204 745.364 526.25 746.253 521.765L746.695 519.477L748.067 520.671C748.851 521.354 750.152 523.521 750.982 525.536Z" fill="url(#paint23_linear_240_5098)"/>
<path d="M827.304 406.7C826.394 407.415 824.64 409.691 823.47 411.707L821.326 415.414L814.309 415.934C806.123 416.585 804.434 417.105 803.459 419.251C802.289 421.787 803.199 423.543 808.007 428.421C810.541 430.892 812.62 433.363 812.62 433.818C812.62 434.273 811.84 437.265 810.931 440.387C809.956 443.573 809.371 446.695 809.631 447.28C810.216 448.906 812.62 448.255 818.792 444.744C821.651 443.118 824.315 441.752 824.64 441.752C825.03 441.752 827.044 442.663 829.188 443.703C833.736 445.914 835.945 446.109 838.024 444.419C839.323 443.378 839.583 442.468 839.778 438.305L840.038 433.363L844.066 430.827C849.264 427.38 851.473 425.364 851.993 423.218C852.772 419.966 848.744 417.755 842.052 417.69C838.089 417.69 836.14 416.715 835.62 414.634C834.905 411.707 833.021 407.61 831.787 406.44C830.357 405.009 829.383 405.074 827.304 406.7ZM829.513 415.479C829.513 415.999 829.058 416.39 828.538 416.39C827.434 416.39 827.369 416.259 827.953 414.829C828.408 413.658 829.513 414.048 829.513 415.479ZM817.818 422.568C817.818 423.413 816.258 426.795 815.869 426.795C815.089 426.795 811.321 423.543 811.321 422.893C811.321 422.568 811.97 422.242 812.815 422.112C814.179 421.917 817.818 422.242 817.818 422.568ZM829.708 422.828C831.397 423.478 831.722 424.193 832.436 428.095C832.826 430.306 832.761 430.437 829.318 432.323L825.744 434.208L823.145 432.453L820.482 430.697L821.456 427.9C823.21 422.828 825.679 421.332 829.708 422.828ZM842.767 424.454C842.377 425.494 839.388 426.925 838.609 426.47C838.349 426.34 837.959 425.559 837.764 424.844C837.439 423.673 837.764 423.543 840.298 423.543C842.377 423.543 843.027 423.738 842.767 424.454ZM818.467 437.46C818.467 437.655 818.208 437.98 817.818 438.175C817.493 438.371 817.168 438.24 817.168 437.915C817.168 437.525 817.493 437.2 817.818 437.2C818.208 437.2 818.467 437.33 818.467 437.46Z" fill="url(#paint24_linear_240_5098)"/>
<path d="M126.028 566.036C125.99 567.193 126.602 570 127.392 572.193L128.849 576.22L124.73 581.925C119.958 588.608 119.269 590.236 120.284 592.363C121.472 594.891 123.401 595.325 130.229 594.785C133.751 594.437 136.981 594.436 137.329 594.729C137.677 595.022 139.465 597.545 141.268 600.25C143.08 603.047 145.092 605.504 145.707 605.682C147.328 606.281 148.378 604.023 149.663 597.039C150.259 593.804 150.929 590.887 151.138 590.638C151.389 590.34 153.382 589.384 155.558 588.413C160.178 586.356 161.749 584.791 161.794 582.112C161.834 580.448 161.304 579.663 158.245 576.834L154.63 573.454L155.282 568.739C155.99 562.542 155.869 559.554 154.561 557.775C152.575 555.085 148.29 556.745 143.932 561.824C141.381 564.857 139.38 565.721 137.453 564.779C134.753 563.442 130.405 562.247 128.714 562.438C126.699 562.611 126.122 563.399 126.028 566.036ZM134.168 569.997C134.566 570.332 134.572 570.931 134.238 571.329C133.527 572.174 133.385 572.14 132.667 570.772C132.064 569.67 133.073 569.076 134.168 569.997ZM132.065 583.51C132.712 584.054 134.296 587.424 134.045 587.722C133.543 588.319 128.629 589.11 128.132 588.691C127.883 588.482 128.052 587.775 128.496 587.045C129.225 585.875 131.816 583.3 132.065 583.51ZM139.918 574.578C141.503 573.704 142.259 573.916 145.705 575.881C147.648 577.006 147.706 577.139 146.933 580.988L146.076 584.937L143.059 585.795L140.001 586.704L138.488 584.158C135.735 579.55 136.18 576.698 139.918 574.578ZM149.568 565.631C150.113 566.599 149.284 569.807 148.434 570.111C148.167 570.226 147.319 570.022 146.646 569.71C145.541 569.205 145.651 568.873 147.282 566.934C148.62 565.343 149.188 564.971 149.568 565.631ZM143.88 592.599C144.029 592.724 144.111 593.133 144.009 593.556C143.949 593.931 143.641 594.096 143.392 593.886C143.093 593.635 143.054 593.177 143.263 592.929C143.514 592.63 143.781 592.515 143.88 592.599Z" fill="url(#paint25_linear_240_5098)"/>
<path d="M211.623 242.211C211.585 243.368 212.198 246.176 212.988 248.368L214.445 252.395L210.326 258.1C205.554 264.784 204.865 266.411 205.88 268.538C207.068 271.066 208.997 271.5 215.825 270.96C219.347 270.612 222.576 270.612 222.925 270.905C223.273 271.198 225.061 273.72 226.864 276.426C228.675 279.223 230.688 281.679 231.303 281.857C232.923 282.456 233.973 280.198 235.259 273.214C235.855 269.98 236.524 267.062 236.734 266.813C236.985 266.515 238.978 265.56 241.154 264.589C245.774 262.532 247.345 260.967 247.389 258.287C247.43 256.623 246.9 255.838 243.84 253.01L240.225 249.629L240.877 244.914C241.586 238.718 241.465 235.729 240.157 233.95C238.17 231.26 233.885 232.92 229.528 237.999C226.977 241.032 224.975 241.896 223.048 240.954C220.349 239.617 216 238.422 214.31 238.613C212.295 238.786 211.717 239.574 211.623 242.211ZM219.764 246.172C220.162 246.507 220.168 247.106 219.833 247.504C219.122 248.349 218.981 248.315 218.263 246.947C217.66 245.845 218.669 245.251 219.764 246.172ZM217.661 259.685C218.308 260.229 219.892 263.599 219.641 263.898C219.139 264.494 214.225 265.285 213.727 264.866C213.478 264.657 213.648 263.951 214.092 263.221C214.821 262.051 217.412 259.476 217.661 259.685ZM225.513 250.753C227.098 249.879 227.855 250.091 231.301 252.056C233.244 253.181 233.302 253.314 232.528 257.164L231.671 261.112L228.655 261.971L225.596 262.879L224.084 260.333C221.331 255.726 221.776 252.873 225.513 250.753ZM235.164 241.806C235.709 242.774 234.88 245.982 234.03 246.286C233.763 246.401 232.915 246.197 232.242 245.886C231.137 245.381 231.247 245.048 232.878 243.109C234.216 241.518 234.784 241.147 235.164 241.806ZM229.476 268.774C229.625 268.9 229.707 269.308 229.605 269.732C229.545 270.106 229.237 270.271 228.988 270.062C228.689 269.81 228.649 269.352 228.858 269.104C229.109 268.805 229.376 268.69 229.476 268.774Z" fill="url(#paint26_linear_240_5098)"/>
<path d="M74.2558 610.39C72.8948 610.508 70.5625 611.376 69.0515 612.272C66.7434 613.635 66.0766 614.497 64.5579 618.026C63.0236 621.41 62.8144 622.72 63.0292 626.061L63.3448 630.063L58.381 630.925C52.0491 632.111 44.0869 632.275 35.9317 631.466C30.6446 630.959 28.0343 630.337 21.251 627.887C16.7439 626.213 12.4266 624.401 11.6419 623.901C10.8797 623.341 9.76079 622.995 9.16032 623.118C8.16475 623.373 8.11947 623.495 8.70746 624.338C10.3949 626.699 14.1883 628.801 21.6415 631.5C28.2803 633.966 30.6853 634.582 36.8321 635.2C45.0255 636.093 52.8051 635.86 60.209 634.587C65.2946 633.77 65.2946 633.77 66.3262 635.471C68.0378 638.327 73.5374 644.046 77.5464 647.062C84.8177 652.676 92.7668 655.906 108.855 659.8L112.037 660.566L112.686 664.414C114.472 674.721 125.381 686.403 137.379 690.86C145.967 694.05 158.351 695.042 171.048 693.514C178.149 692.683 182.671 691.518 183.078 690.421C183.441 689.445 182.026 689.336 172.984 689.793C156.757 690.565 149.484 689.806 140.348 686.413C130.116 682.612 123.087 676.533 119.222 668.091C116.008 661.07 116.205 660.726 123.156 660.672C140.184 660.545 153.355 652.325 151.2 643.2C149.837 637.352 144.179 634.487 135.457 635.202C129.542 635.641 122.903 638.587 118.822 642.482C116.486 644.667 115.313 646.52 113.597 650.392L111.33 655.378L106.939 654.51C104.55 654.039 99.4421 652.489 95.5441 651.041C84.8246 647.059 77.2277 641.948 72.2278 635.443L70.0062 632.468L74.001 630.483C78.5805 628.229 82.9344 624.158 84.0666 621.11C85.0629 618.427 84.314 614.472 82.5375 612.911C80.5627 611.137 77.0005 610.091 74.2558 610.39ZM80.3919 617.941C80.3927 620.924 76.7228 624.834 71.9832 626.958C68.77 628.332 68.2063 627.983 67.7861 624.636C67.3347 621 69.7638 616.699 72.9316 615.448C76.411 614.104 80.3543 615.43 80.3919 617.941ZM146.226 643.156C146.784 644.266 147.047 645.612 146.843 646.16C145.507 649.757 137.914 654.152 131.255 655.286C127.614 655.946 118.846 656.227 117.628 655.775C117.263 655.639 117.608 653.963 118.332 652.012C120.755 645.489 127.89 640.647 136.307 639.819C141.835 639.305 144.986 640.337 146.226 643.156Z" fill="url(#paint27_linear_240_5098)"/>
<path d="M956.225 337.471C946.04 333.403 930.931 334.904 919.822 341.067C915.905 343.288 914.993 343.392 911.346 341.611C906.621 339.354 896.476 337.628 892.238 338.449C888.289 339.187 886.051 343.439 887.657 347.139C889.004 350.207 896.06 358.154 901.355 362.681C903.707 364.598 904.629 366.453 904.929 370.526C907.559 397.872 931.95 415.689 957.37 408.802C965.681 406.579 965.826 406.538 974.084 409.902C987.7 415.265 996.581 414.213 997.172 407.215C997.504 402.882 992.81 396.613 986.334 392.895C981.35 390.005 980.987 389.56 981.765 387.061C986.346 371.778 981.001 354.158 969.022 345.187C966.991 343.571 964.494 341.696 963.52 341.034C962.598 340.277 959.324 338.703 956.225 337.471ZM969.125 352.693C973.819 357.863 977.953 370.414 977.434 377.941C977.144 381.32 976.003 385.571 974.656 387.998C971.858 393.037 967.153 397.995 964.997 398.141C962.894 398.194 945.299 387.692 930.555 377.551C909.976 363.195 910.152 363.537 914.868 355.044C921.293 343.472 934.837 337.317 947.075 340.327C954.401 342.075 964.794 347.968 969.125 352.693ZM909.79 353.202C906.888 358.428 906.495 358.698 904.629 357.662C902.112 356.264 895.895 349.881 893.833 346.783C893.118 345.654 892.983 344.358 893.667 344.005C895.626 342.895 906.744 344.184 909.915 345.945L912.899 347.602L909.79 353.202ZM989.152 402.762C990.602 404.544 991.286 406.389 990.737 406.939C988.996 408.536 983.442 407.772 977.214 404.925L971.401 402.429L973.463 400.034C978.231 394.744 978.085 394.786 982.469 397.22C984.8 398.514 987.794 401.032 989.152 402.762ZM937.559 388.888C948.097 395.839 956.863 401.805 956.987 402.24C957.412 403.453 950.645 404.213 943.93 403.782C934.552 403.092 924.253 397.251 918.388 389.355C914.513 384.029 910.462 373.965 911.499 372.099C911.758 371.632 913.395 372.419 915.198 373.786C916.907 375.102 927.021 381.938 937.559 388.888Z" fill="url(#paint28_linear_240_5098)"/>
<path d="M148.655 406.247C145.926 407.418 142.612 411.385 142.158 414.051C140.858 420.685 147.745 427.578 157.296 429.399C161.909 430.244 164.963 429.594 167.562 427.123C169.446 425.302 169.771 424.586 169.771 421.985C169.771 416.262 165.807 411.905 160.09 411.32C153.593 410.735 150.864 414.246 153.593 419.839C155.997 424.782 158.79 424.652 157.426 419.709C157.036 418.213 156.906 416.718 157.101 416.392C158.271 414.506 164.118 417.108 165.223 420.034C166.132 422.31 166.067 422.701 164.573 424.196C160.739 428.033 147.875 423.221 146.121 417.238C145.471 415.157 147.29 411.385 149.759 409.889C151.514 408.784 152.878 408.588 157.621 408.654C160.739 408.719 163.468 408.588 163.663 408.393C165.937 406.117 153.073 404.296 148.655 406.247Z" fill="url(#paint29_linear_240_5098)"/>
<path d="M751.655 437.247C748.926 438.418 745.612 442.385 745.158 445.051C743.858 451.685 750.745 458.578 760.296 460.399C764.909 461.244 767.963 460.594 770.562 458.123C772.446 456.302 772.771 455.586 772.771 452.985C772.771 447.262 768.807 442.905 763.09 442.32C756.593 441.735 753.864 445.246 756.593 450.839C758.997 455.782 761.79 455.652 760.426 450.709C760.036 449.213 759.906 447.718 760.101 447.392C761.271 445.506 767.118 448.108 768.223 451.034C769.132 453.31 769.067 453.701 767.573 455.196C763.739 459.033 750.875 454.221 749.121 448.238C748.471 446.157 750.29 442.385 752.759 440.889C754.514 439.784 755.878 439.588 760.621 439.654C763.739 439.719 766.468 439.588 766.663 439.393C768.937 437.117 756.073 435.296 751.655 437.247Z" fill="url(#paint30_linear_240_5098)"/>
<path d="M853.655 566.247C850.926 567.418 847.612 571.385 847.158 574.051C845.858 580.685 852.745 587.578 862.296 589.399C866.909 590.244 869.963 589.594 872.562 587.123C874.446 585.302 874.771 584.586 874.771 581.985C874.771 576.262 870.807 571.905 865.09 571.32C858.593 570.735 855.864 574.246 858.593 579.839C860.997 584.782 863.79 584.652 862.426 579.709C862.036 578.213 861.906 576.718 862.101 576.392C863.271 574.506 869.118 577.108 870.223 580.034C871.132 582.31 871.067 582.701 869.573 584.196C865.739 588.033 852.875 583.221 851.121 577.238C850.471 575.157 852.29 571.385 854.759 569.889C856.514 568.784 857.878 568.588 862.621 568.654C865.739 568.719 868.468 568.588 868.663 568.393C870.937 566.117 858.073 564.296 853.655 566.247Z" fill="url(#paint31_linear_240_5098)"/>
<path d="M41.1996 511.847C43.7731 512.949 44.0955 511.432 41.9827 508.124C39.227 503.805 39.1379 497.554 41.8061 492.772C43.8762 488.956 43.1875 487.44 40.1071 489.142C36.521 491.258 34.4505 495.717 34.724 500.773C35.0891 506.197 37.4773 510.24 41.1996 511.847Z" fill="url(#paint32_linear_240_5098)"/>
<path d="M63.3047 519.237C68.2676 521.625 72.1282 522.45 77.8277 522.356C84.3545 522.261 90.0546 521.063 95.8931 518.532C98.4676 517.428 100.72 516.462 100.904 516.462C101.042 516.416 101.271 518.116 101.408 520.276C101.819 526.389 105.539 531.949 109.859 532.866C114.685 533.829 122.04 531.528 129.489 526.744C132.017 525.134 134.73 523.708 135.419 523.662C136.155 523.57 141.486 524.302 147.231 525.265C158.124 527.053 162.122 527.189 163.64 525.671C164.744 524.567 163.779 523.603 160.332 522.455C158.861 521.996 155.691 520.113 153.302 518.276C151.004 516.438 146.915 513.636 144.25 511.983C135.565 506.609 134.049 505.461 133.912 504.128C133.866 503.439 134.281 500.451 134.88 497.463C136.631 488.545 135.117 481.697 130.477 476.965C126.618 473.106 120.459 472.19 113.38 474.491L111.035 475.182L111.359 472.01C112.051 466.172 111.549 458.037 110.31 454.407C108.703 449.765 105.258 446.044 101.719 445.08C97.6286 444.025 92.1579 446.188 86.8699 451.016L82.5015 454.925L81.3532 453.225C71.1103 438.292 59.0257 430.346 47.3966 430.949C43.4896 431.18 38.4328 433.113 36.3174 435.229C34.3401 437.206 32.2694 442.309 32.0838 445.894C31.436 455.271 38.6479 464.414 53.582 473.186C56.7985 475.115 59.6014 476.998 59.785 477.458C60.0146 477.872 58.6348 479.895 56.1055 482.791C49.7591 490.057 48.2866 493.642 49.2028 500.169C50.2563 507.936 56.09 515.885 63.3047 519.237ZM53.6594 504.258C50.6752 496.859 51.9183 492.4 59.0004 484.307C65.6227 476.766 65.4391 476.306 54.5029 469.693C49.8159 466.845 47.105 464.778 43.2459 460.919C38.6517 456.417 38.0086 455.498 36.7692 452.051C32.4082 440.148 42.4323 431.503 55.2999 436.185C62.8826 438.893 69.4528 444.36 76.2511 453.549C79.7421 458.236 80.3394 458.833 81.902 459.2C83.9242 459.567 83.5564 459.843 89.1205 454.463C101.72 442.23 110.036 449.994 107.452 471.69C106.99 475.643 106.943 479.183 107.264 479.504C108.137 480.377 109.7 480.101 112.734 478.628C118.159 476.052 124.686 476.416 127.856 479.586C131.439 483.17 132.539 490.983 130.604 499.717C129.729 503.533 130.188 506.106 132.025 507.944C132.577 508.495 136.436 511.159 140.572 513.823C150.864 520.529 152.748 521.861 152.196 522.413C151.921 522.689 148.152 522.231 143.786 521.36C139.42 520.58 135.145 520.077 134.318 520.261C133.444 520.491 131.054 521.779 128.985 523.113C121.582 527.943 113.951 530.52 110.183 529.419C106.552 528.272 103.751 521.424 104.857 516.184C105.548 513.196 104.813 511.266 103.113 511.313C102.423 511.359 99.9867 512.417 97.642 513.568C86.0564 519.64 72.5429 520.198 63.1687 515.054C59.6305 513.08 55.1284 508.026 53.6594 504.258Z" fill="url(#paint33_linear_240_5098)"/>
<path d="M83.5222 532.833C84.6253 532.74 87.2455 532.326 89.314 531.819L93.1294 530.944L94.6907 534.069C96.2979 537.423 98.0438 538.893 99.0555 537.882C99.3774 537.56 99.4238 536.594 99.1484 535.675C98.873 534.848 98.2767 532.32 97.91 530.114C96.7636 524.461 95.9363 524.278 87.4313 528.005C83.6156 529.615 80.5353 531.134 80.5352 531.409C80.5347 532.421 81.6836 532.926 83.5222 532.833Z" fill="url(#paint34_linear_240_5098)"/>
<path d="M138.769 535.657C143.457 535.471 149.479 534.687 150.95 534.042C152.559 533.26 151.962 532.02 149.894 531.883C147.09 531.746 135.323 533.314 134.771 533.866C133.575 535.062 135.229 535.796 138.769 535.657Z" fill="url(#paint35_linear_240_5098)"/>
<path d="M153.258 511.795C159.692 514.825 162.404 515.146 161.118 512.665C160.521 511.516 151.146 506.832 149.032 506.649C145.861 506.329 148.387 509.407 153.258 511.795Z" fill="url(#paint36_linear_240_5098)"/>
<path d="M90.7358 440.167C91.1954 440.259 92.8043 439.937 94.3673 439.476C97.907 438.325 100.527 438.37 104.295 439.839C108.293 441.354 112.566 445.535 114.448 449.9C115.78 452.887 115.918 453.117 116.929 452.657C118.4 452.013 117.897 447.463 116.014 444.108C113.075 438.87 105.585 434.231 100.207 434.371C96.8057 434.465 92.5304 435.984 90.645 437.869C89.1735 439.341 89.1732 439.892 90.7358 440.167Z" fill="url(#paint37_linear_240_5098)"/>
<path d="M456.45 1.83577C453.41 3.36717 449.844 7.16461 448.696 10.1816C446.854 15.0371 445.989 23.1357 446.99 27.3095C447.884 31.0407 447.566 31.3846 444.038 31.1604C437.139 30.8082 430.995 33.8861 429.913 38.2917C429.094 41.5643 430.486 45.9787 433.539 49.7943C436.39 53.324 442.308 57.3889 445.799 58.2909C448.283 58.8991 448.437 59.2634 446.918 61.5669C445.063 64.4192 445.328 66.3618 448.164 69.8283C451.904 74.2817 456.999 77.1396 464.922 79.2527C476.099 82.1236 486.678 81.6605 490.227 78.0679C491.483 76.8974 494.576 69.7357 495.413 66.2582C495.446 66.1166 496.72 66.4131 498.276 66.7755C500.336 67.2849 501.724 67.2197 503.685 66.482C513.412 62.7456 526.082 42.8556 527.313 29.3191C527.733 24.9385 525.916 17.0815 523.876 14.4273C520.467 9.96143 514.367 8.4815 510.166 11.0266C507.361 12.7023 504.975 15.013 502.309 18.6617C501.144 20.2116 500.044 21.4783 499.792 21.5389C499.539 21.5995 498.639 20.0764 497.712 18.1588C494.7 11.7253 489.655 8.52081 484.351 9.52507C481.492 10.1435 481.336 10.0473 479.281 7.32981C477.133 4.50103 472.48 1.53704 468.849 0.602056C467.151 0.206705 459.68 0.258936 458.715 0.691014C458.54 0.799697 457.512 1.24692 456.45 1.83577ZM465.457 5.96271C469.235 6.39443 472.67 8.17918 475.119 10.869L477.239 13.3032L475.629 16.8992C473.599 21.532 473.129 24.5872 473.715 29.2617C474.203 32.6892 474.041 33.1292 472.194 35.1772C468.946 38.6308 467.452 48.2846 469.011 55.0665C469.315 56.3313 469.398 57.515 469.254 57.7502C469.125 58.0486 467.063 57.8074 464.672 57.3105C462.281 56.8137 458.738 56.5263 456.752 56.6012C450.287 56.9473 443.087 53.3903 438.116 47.4264C435.498 44.3091 434.533 41.3973 435.42 39.2453C436.37 37.0781 441.675 36.0738 446.929 37.0879C451.286 37.9828 453.763 37.7234 454.248 36.4033C454.41 35.9633 453.965 32.9936 453.255 29.7532C451.236 19.9384 452.763 11.8149 457.335 8.31129C460.082 6.11455 461.899 5.61204 465.457 5.96271ZM487.206 14.1905C490.257 14.9304 492.87 18.584 494.656 24.6426C497.269 33.3118 499.003 33.2975 504.871 24.3336C509.668 17.0311 512.845 14.3969 516.118 14.9498C518.824 15.3709 520.55 17.8328 521.779 22.9553C522.916 27.6983 522.008 33.6671 519.092 40.452C515.288 49.389 505.944 60.8578 501.585 61.903C499.563 62.3877 496.068 62.0219 495.901 61.3262C495.919 61.1214 495.843 59.1333 495.848 56.9251C495.881 51.7678 494.047 44.1157 491.891 40.4194C489.379 36.0728 485.702 33.2762 481.203 32.3484C477.476 31.5702 477.319 31.474 477.228 29.4227C477.067 24.847 478.755 19.6272 481.462 16.7046C484.376 13.5316 484.502 13.5013 487.206 14.1905ZM483.708 39.1712C486.447 41.1226 488.618 44.8822 489.816 49.8782C491.526 57.2925 490.313 68.9522 487.073 74.9452L485.501 77.8634L480.507 77.6562C470.456 77.2571 460.057 73.7315 454.194 68.7839C451.004 66.071 450.661 64.0803 453.132 62.6852C455.842 61.1663 458.867 61.2436 465.738 62.8731C472.248 64.3886 473.982 64.3742 474.801 62.7735C475.059 62.1767 474.869 58.8783 474.415 55.3092C473.447 47.6499 473.71 43.1731 475.3 40.0501C476.28 38.0094 476.74 37.6985 478.775 37.5451C480.4 37.3561 481.939 37.9234 483.708 39.1712Z" fill="url(#paint38_linear_240_5098)"/>
<defs>
<linearGradient id="paint0_linear_240_5098" x1="618.928" y1="37.9991" x2="611.99" y2="192.613" gradientUnits="userSpaceOnUse">
<stop stop-color="#1890FF"/>
<stop offset="1" stop-color="#FFD429"/>
</linearGradient>
<linearGradient id="paint1_linear_240_5098" x1="633.152" y1="156.492" x2="641.142" y2="174.442" gradientUnits="userSpaceOnUse">
<stop stop-color="#1890FF"/>
<stop offset="1" stop-color="#FFD429"/>
</linearGradient>
<linearGradient id="paint2_linear_240_5098" x1="661.921" y1="177.787" x2="670.081" y2="192.268" gradientUnits="userSpaceOnUse">
<stop stop-color="#1890FF"/>
<stop offset="1" stop-color="#FFD429"/>
</linearGradient>
<linearGradient id="paint3_linear_240_5098" x1="593.535" y1="139.366" x2="599.936" y2="153.97" gradientUnits="userSpaceOnUse">
<stop stop-color="#1890FF"/>
<stop offset="1" stop-color="#FFD429"/>
</linearGradient>
<linearGradient id="paint4_linear_240_5098" x1="623.439" y1="183.866" x2="630.727" y2="202.591" gradientUnits="userSpaceOnUse">
<stop stop-color="#1890FF"/>
<stop offset="1" stop-color="#FFD429"/>
</linearGradient>
<linearGradient id="paint5_linear_240_5098" x1="588.373" y1="166.637" x2="593.224" y2="177.789" gradientUnits="userSpaceOnUse">
<stop stop-color="#1890FF"/>
<stop offset="1" stop-color="#FFD429"/>
</linearGradient>
<linearGradient id="paint6_linear_240_5098" x1="293.675" y1="116.421" x2="360.038" y2="236.915" gradientUnits="userSpaceOnUse">
<stop stop-color="#1890FF"/>
<stop offset="1" stop-color="#FFD429"/>
</linearGradient>
<linearGradient id="paint7_linear_240_5098" x1="315.744" y1="138.627" x2="384.968" y2="251.367" gradientUnits="userSpaceOnUse">
<stop stop-color="#1890FF"/>
<stop offset="1" stop-color="#FFD429"/>
</linearGradient>
<linearGradient id="paint8_linear_240_5098" x1="284" y1="169.649" x2="307.215" y2="183.182" gradientUnits="userSpaceOnUse">
<stop stop-color="#1890FF"/>
<stop offset="1" stop-color="#FFD429"/>
</linearGradient>
<linearGradient id="paint9_linear_240_5098" x1="452.934" y1="184.046" x2="468.779" y2="190.029" gradientUnits="userSpaceOnUse">
<stop stop-color="#1890FF"/>
<stop offset="1" stop-color="#FFD429"/>
</linearGradient>
<linearGradient id="paint10_linear_240_5098" x1="610.998" y1="254.157" x2="755.899" y2="385.322" gradientUnits="userSpaceOnUse">
<stop stop-color="#1890FF"/>
<stop offset="1" stop-color="#FFD429"/>
</linearGradient>
<linearGradient id="paint11_linear_240_5098" x1="650.059" y1="279.506" x2="675.404" y2="283.877" gradientUnits="userSpaceOnUse">
<stop stop-color="#1890FF"/>
<stop offset="1" stop-color="#FFD429"/>
</linearGradient>
<linearGradient id="paint12_linear_240_5098" x1="706.873" y1="304.77" x2="756.824" y2="337.041" gradientUnits="userSpaceOnUse">
<stop stop-color="#1890FF"/>
<stop offset="1" stop-color="#FFD429"/>
</linearGradient>
<linearGradient id="paint13_linear_240_5098" x1="635.085" y1="354.149" x2="643.067" y2="360.934" gradientUnits="userSpaceOnUse">
<stop stop-color="#1890FF"/>
<stop offset="1" stop-color="#FFD429"/>
</linearGradient>
<linearGradient id="paint14_linear_240_5098" x1="680.262" y1="364.999" x2="686.513" y2="375.578" gradientUnits="userSpaceOnUse">
<stop stop-color="#1890FF"/>
<stop offset="1" stop-color="#FFD429"/>
</linearGradient>
<linearGradient id="paint15_linear_240_5098" x1="181.442" y1="347.242" x2="348.556" y2="312.268" gradientUnits="userSpaceOnUse">
<stop stop-color="#1890FF"/>
<stop offset="1" stop-color="#FFD429"/>
</linearGradient>
<linearGradient id="paint16_linear_240_5098" x1="738.999" y1="618.183" x2="919.933" y2="618.619" gradientUnits="userSpaceOnUse">
<stop stop-color="#1890FF"/>
<stop offset="1" stop-color="#FFD429"/>
</linearGradient>
<linearGradient id="paint17_linear_240_5098" x1="839.581" y1="640.72" x2="873.457" y2="652.044" gradientUnits="userSpaceOnUse">
<stop stop-color="#1890FF"/>
<stop offset="1" stop-color="#FFD429"/>
</linearGradient>
<linearGradient id="paint18_linear_240_5098" x1="908.685" y1="579.108" x2="1004.44" y2="588.088" gradientUnits="userSpaceOnUse">
<stop stop-color="#1890FF"/>
<stop offset="1" stop-color="#FFD429"/>
</linearGradient>
<linearGradient id="paint19_linear_240_5098" x1="275.811" y1="577.419" x2="237.174" y2="698.994" gradientUnits="userSpaceOnUse">
<stop stop-color="#1890FF"/>
<stop offset="1" stop-color="#FFD429"/>
</linearGradient>
<linearGradient id="paint20_linear_240_5098" x1="758.691" y1="320.914" x2="803.43" y2="306.006" gradientUnits="userSpaceOnUse">
<stop stop-color="#1890FF"/>
<stop offset="1" stop-color="#FFD429"/>
</linearGradient>
<linearGradient id="paint21_linear_240_5098" x1="668.395" y1="464.711" x2="745.094" y2="488.866" gradientUnits="userSpaceOnUse">
<stop stop-color="#1890FF"/>
<stop offset="1" stop-color="#FFD429"/>
</linearGradient>
<linearGradient id="paint22_linear_240_5098" x1="324.207" y1="374.053" x2="427.533" y2="307.186" gradientUnits="userSpaceOnUse">
<stop stop-color="#1890FF"/>
<stop offset="1" stop-color="#FFD429"/>
</linearGradient>
<linearGradient id="paint23_linear_240_5098" x1="779.111" y1="474.42" x2="823.08" y2="568.559" gradientUnits="userSpaceOnUse">
<stop stop-color="#1890FF"/>
<stop offset="1" stop-color="#FFD429"/>
</linearGradient>
<linearGradient id="paint24_linear_240_5098" x1="802.999" y1="405.42" x2="845.294" y2="454.037" gradientUnits="userSpaceOnUse">
<stop stop-color="#1890FF"/>
<stop offset="1" stop-color="#FFD429"/>
</linearGradient>
<linearGradient id="paint25_linear_240_5098" x1="109.404" y1="583.812" x2="173.835" y2="582.74" gradientUnits="userSpaceOnUse">
<stop stop-color="#1890FF"/>
<stop offset="1" stop-color="#FFD429"/>
</linearGradient>
<linearGradient id="paint26_linear_240_5098" x1="195" y1="259.988" x2="259.43" y2="258.915" gradientUnits="userSpaceOnUse">
<stop stop-color="#1890FF"/>
<stop offset="1" stop-color="#FFD429"/>
</linearGradient>
<linearGradient id="paint27_linear_240_5098" x1="20.9979" y1="589.419" x2="13.4776" y2="693.927" gradientUnits="userSpaceOnUse">
<stop stop-color="#1890FF"/>
<stop offset="1" stop-color="#FFD429"/>
</linearGradient>
<linearGradient id="paint28_linear_240_5098" x1="906.006" y1="309.003" x2="908.224" y2="437.113" gradientUnits="userSpaceOnUse">
<stop stop-color="#1890FF"/>
<stop offset="1" stop-color="#FFD429"/>
</linearGradient>
<linearGradient id="paint29_linear_240_5098" x1="142" y1="405.42" x2="166.118" y2="432.95" gradientUnits="userSpaceOnUse">
<stop stop-color="#1890FF"/>
<stop offset="1" stop-color="#FFD429"/>
</linearGradient>
<linearGradient id="paint30_linear_240_5098" x1="745" y1="436.42" x2="769.118" y2="463.95" gradientUnits="userSpaceOnUse">
<stop stop-color="#1890FF"/>
<stop offset="1" stop-color="#FFD429"/>
</linearGradient>
<linearGradient id="paint31_linear_240_5098" x1="847" y1="565.42" x2="871.118" y2="592.95" gradientUnits="userSpaceOnUse">
<stop stop-color="#1890FF"/>
<stop offset="1" stop-color="#FFD429"/>
</linearGradient>
<linearGradient id="paint32_linear_240_5098" x1="41.8089" y1="513.355" x2="42.1728" y2="487.388" gradientUnits="userSpaceOnUse">
<stop stop-color="#1890FF"/>
<stop offset="1" stop-color="#FFD429"/>
</linearGradient>
<linearGradient id="paint33_linear_240_5098" x1="115.731" y1="573.584" x2="157.905" y2="434.824" gradientUnits="userSpaceOnUse">
<stop stop-color="#1890FF"/>
<stop offset="1" stop-color="#FFD429"/>
</linearGradient>
<linearGradient id="paint34_linear_240_5098" x1="92.7943" y1="544.143" x2="94.4352" y2="521.01" gradientUnits="userSpaceOnUse">
<stop stop-color="#1890FF"/>
<stop offset="1" stop-color="#FFD429"/>
</linearGradient>
<linearGradient id="paint35_linear_240_5098" x1="142.388" y1="542.806" x2="140.906" y2="524.994" gradientUnits="userSpaceOnUse">
<stop stop-color="#1890FF"/>
<stop offset="1" stop-color="#FFD429"/>
</linearGradient>
<linearGradient id="paint36_linear_240_5098" x1="157.621" y1="517.735" x2="161.916" y2="507.339" gradientUnits="userSpaceOnUse">
<stop stop-color="#1890FF"/>
<stop offset="1" stop-color="#FFD429"/>
</linearGradient>
<linearGradient id="paint37_linear_240_5098" x1="109.795" y1="459.881" x2="117.58" y2="432.779" gradientUnits="userSpaceOnUse">
<stop stop-color="#1890FF"/>
<stop offset="1" stop-color="#FFD429"/>
</linearGradient>
<linearGradient id="paint38_linear_240_5098" x1="421.999" y1="9.47791" x2="525.102" y2="85.0775" gradientUnits="userSpaceOnUse">
<stop stop-color="#1890FF"/>
<stop offset="1" stop-color="#FFD429"/>
</linearGradient>
</defs>
</svg>
