<svg width="172" height="96" viewBox="0 0 172 96" fill="none" xmlns="http://www.w3.org/2000/svg">
<path d="M0.072 26.944L7.704 7.504H10.2L2.568 26.944H0.072ZM7.41638 26.944L15.0484 7.504H17.5444L9.91238 26.944H7.41638ZM20.1622 25V7.504H22.9702V22.648H32.0662V25H20.1622ZM39.8503 25.216C38.8743 25.216 37.9943 25.08 37.2103 24.808C36.4263 24.536 35.7543 24.152 35.1943 23.656C34.6343 23.144 34.2023 22.528 33.8983 21.808C33.6103 21.072 33.4663 20.256 33.4663 19.36V17.92C33.4663 16.72 33.7223 15.688 34.2343 14.824C34.7623 13.944 35.5063 13.272 36.4663 12.808C37.4263 12.328 38.5543 12.088 39.8503 12.088C40.7943 12.088 41.6423 12.224 42.3943 12.496C43.1463 12.752 43.7863 13.136 44.3143 13.648C44.8583 14.16 45.2743 14.768 45.5623 15.472C45.8503 16.176 45.9943 16.968 45.9943 17.848V19.36H35.8663V17.536H43.4983L43.2103 17.944V17.08C43.2103 16.472 43.0663 15.944 42.7783 15.496C42.5063 15.048 42.1223 14.704 41.6263 14.464C41.1303 14.224 40.5383 14.104 39.8503 14.104C39.1143 14.104 38.4743 14.232 37.9303 14.488C37.4023 14.744 36.9943 15.104 36.7063 15.568C36.4343 16.032 36.2983 16.576 36.2983 17.2V20.104C36.2983 20.712 36.4423 21.248 36.7303 21.712C37.0183 22.176 37.4343 22.536 37.9783 22.792C38.5223 23.048 39.1543 23.176 39.8743 23.176C40.7703 23.176 41.4983 23.008 42.0583 22.672C42.6343 22.32 43.0023 21.824 43.1623 21.184H45.8503C45.7223 22.032 45.3783 22.76 44.8183 23.368C44.2743 23.96 43.5703 24.416 42.7063 24.736C41.8583 25.056 40.9063 25.216 39.8503 25.216ZM53.6175 25.216C52.7855 25.216 52.0335 25.088 51.3615 24.832C50.7055 24.56 50.1455 24.176 49.6815 23.68C49.2175 23.184 48.8575 22.592 48.6015 21.904C48.3455 21.216 48.2175 20.456 48.2175 19.624V17.704C48.2175 16.584 48.4335 15.608 48.8655 14.776C49.3135 13.928 49.9375 13.272 50.7375 12.808C51.5535 12.328 52.5135 12.088 53.6175 12.088C54.5455 12.088 55.3775 12.28 56.1135 12.664C56.8655 13.032 57.4255 13.544 57.7935 14.2H57.9135L58.1535 12.304H60.6735V25H58.1535L57.9135 23.08H57.7935C57.4255 23.752 56.8655 24.28 56.1135 24.664C55.3775 25.032 54.5455 25.216 53.6175 25.216ZM54.5055 23.128C55.3055 23.128 56.0015 22.944 56.5935 22.576C57.2015 22.192 57.6415 21.664 57.9135 20.992V16.312C57.6415 15.64 57.2015 15.12 56.5935 14.752C56.0015 14.384 55.3055 14.2 54.5055 14.2C53.8175 14.2 53.2175 14.328 52.7055 14.584C52.1935 14.84 51.7935 15.2 51.5055 15.664C51.2175 16.128 51.0735 16.696 51.0735 17.368V19.936C51.0735 20.592 51.2175 21.16 51.5055 21.64C51.7935 22.12 52.1935 22.488 52.7055 22.744C53.2175 23 53.8175 23.128 54.5055 23.128ZM68.5556 25.216C67.7236 25.216 66.9716 25.088 66.2996 24.832C65.6436 24.56 65.0836 24.176 64.6196 23.68C64.1556 23.184 63.7956 22.592 63.5396 21.904C63.2836 21.216 63.1556 20.456 63.1556 19.624V17.704C63.1556 16.584 63.3716 15.608 63.8036 14.776C64.2516 13.928 64.8756 13.272 65.6756 12.808C66.4916 12.328 67.4516 12.088 68.5556 12.088C69.4836 12.088 70.3156 12.28 71.0516 12.664C71.8036 13.032 72.3636 13.544 72.7316 14.2H72.8516V7.504H75.6116V25H73.0916L72.8516 23.08H72.7316C72.3636 23.752 71.8036 24.28 71.0516 24.664C70.3156 25.032 69.4836 25.216 68.5556 25.216ZM69.4436 23.128C70.2436 23.128 70.9396 22.944 71.5316 22.576C72.1396 22.192 72.5796 21.664 72.8516 20.992V16.312C72.5796 15.64 72.1396 15.12 71.5316 14.752C70.9396 14.384 70.2436 14.2 69.4436 14.2C68.7556 14.2 68.1556 14.328 67.6436 14.584C67.1316 14.84 66.7316 15.2 66.4436 15.664C66.1556 16.128 66.0116 16.696 66.0116 17.368V19.936C66.0116 20.592 66.1556 21.16 66.4436 21.64C66.7316 22.12 67.1316 22.488 67.6436 22.744C68.1556 23 68.7556 23.128 69.4436 23.128ZM84.4538 25.216C83.4778 25.216 82.5978 25.08 81.8138 24.808C81.0298 24.536 80.3578 24.152 79.7978 23.656C79.2378 23.144 78.8058 22.528 78.5018 21.808C78.2138 21.072 78.0698 20.256 78.0698 19.36V17.92C78.0698 16.72 78.3258 15.688 78.8378 14.824C79.3658 13.944 80.1098 13.272 81.0698 12.808C82.0298 12.328 83.1578 12.088 84.4538 12.088C85.3978 12.088 86.2458 12.224 86.9978 12.496C87.7498 12.752 88.3898 13.136 88.9178 13.648C89.4618 14.16 89.8778 14.768 90.1658 15.472C90.4538 16.176 90.5978 16.968 90.5978 17.848V19.36H80.4698V17.536H88.1018L87.8138 17.944V17.08C87.8138 16.472 87.6698 15.944 87.3818 15.496C87.1098 15.048 86.7258 14.704 86.2298 14.464C85.7338 14.224 85.1418 14.104 84.4538 14.104C83.7178 14.104 83.0778 14.232 82.5338 14.488C82.0058 14.744 81.5978 15.104 81.3098 15.568C81.0378 16.032 80.9018 16.576 80.9018 17.2V20.104C80.9018 20.712 81.0458 21.248 81.3338 21.712C81.6218 22.176 82.0378 22.536 82.5818 22.792C83.1258 23.048 83.7578 23.176 84.4778 23.176C85.3738 23.176 86.1018 23.008 86.6618 22.672C87.2378 22.32 87.6058 21.824 87.7658 21.184H90.4538C90.3258 22.032 89.9818 22.76 89.4218 23.368C88.8778 23.96 88.1738 24.416 87.3098 24.736C86.4618 25.056 85.5098 25.216 84.4538 25.216ZM92.9951 25V12.304H95.5151L95.7071 14.272H95.8991C96.2191 13.536 96.6111 13 97.0751 12.664C97.5551 12.328 98.1711 12.16 98.9231 12.16H99.6191L99.7871 14.752H98.6591C98.1471 14.752 97.7231 14.824 97.3871 14.968C97.0511 15.096 96.7551 15.296 96.4991 15.568C96.2431 15.84 95.9871 16.2 95.7311 16.648V25H92.9951ZM102.268 25V7.504H110.932C112.052 7.504 112.98 7.68 113.716 8.032C114.468 8.384 115.036 8.888 115.42 9.544C115.804 10.184 115.996 10.952 115.996 11.848C115.996 12.92 115.708 13.8 115.132 14.488C114.572 15.176 113.812 15.64 112.852 15.88V16.024C113.636 16.152 114.292 16.416 114.82 16.816C115.348 17.2 115.74 17.688 115.996 18.28C116.268 18.872 116.404 19.544 116.404 20.296C116.404 21.288 116.172 22.136 115.708 22.84C115.26 23.544 114.604 24.08 113.74 24.448C112.876 24.816 111.844 25 110.644 25H102.268ZM105.076 22.792H110.38C111.372 22.792 112.124 22.568 112.636 22.12C113.148 21.656 113.404 21.04 113.404 20.272V19.552C113.404 19.008 113.276 18.56 113.02 18.208C112.78 17.856 112.436 17.592 111.988 17.416C111.556 17.24 111.028 17.152 110.404 17.152H104.716V15.016H110.404C111.028 15.016 111.54 14.92 111.94 14.728C112.34 14.52 112.636 14.248 112.828 13.912C113.02 13.56 113.116 13.152 113.116 12.688V11.968C113.116 11.472 113.004 11.056 112.78 10.72C112.572 10.384 112.268 10.136 111.868 9.976C111.468 9.8 110.988 9.712 110.428 9.712H105.076V22.792ZM125.143 25.216C124.167 25.216 123.279 25.08 122.479 24.808C121.695 24.536 121.023 24.152 120.463 23.656C119.919 23.144 119.495 22.528 119.191 21.808C118.903 21.072 118.759 20.256 118.759 19.36V17.92C118.759 16.72 119.015 15.688 119.527 14.824C120.055 13.944 120.791 13.272 121.735 12.808C122.695 12.328 123.831 12.088 125.143 12.088C126.135 12.088 127.023 12.224 127.807 12.496C128.591 12.768 129.255 13.16 129.799 13.672C130.359 14.184 130.783 14.8 131.071 15.52C131.375 16.224 131.527 17.024 131.527 17.92V19.36C131.527 20.56 131.263 21.6 130.735 22.48C130.223 23.36 129.487 24.04 128.527 24.52C127.583 24.984 126.455 25.216 125.143 25.216ZM125.143 23.128C125.863 23.128 126.487 23 127.015 22.744C127.559 22.488 127.975 22.128 128.263 21.664C128.551 21.184 128.695 20.64 128.695 20.032V17.272C128.695 16.648 128.551 16.104 128.263 15.64C127.975 15.176 127.567 14.816 127.039 14.56C126.511 14.304 125.879 14.176 125.143 14.176C124.423 14.176 123.791 14.304 123.247 14.56C122.719 14.816 122.311 15.176 122.023 15.64C121.735 16.104 121.591 16.648 121.591 17.272V20.032C121.591 20.64 121.735 21.184 122.023 21.664C122.311 22.128 122.719 22.488 123.247 22.744C123.791 23 124.423 23.128 125.143 23.128ZM139.168 25.216C138.336 25.216 137.584 25.088 136.912 24.832C136.256 24.56 135.696 24.176 135.232 23.68C134.768 23.184 134.408 22.592 134.152 21.904C133.896 21.216 133.768 20.456 133.768 19.624V17.704C133.768 16.584 133.984 15.608 134.416 14.776C134.864 13.928 135.488 13.272 136.288 12.808C137.104 12.328 138.064 12.088 139.168 12.088C140.096 12.088 140.928 12.28 141.664 12.664C142.416 13.032 142.976 13.544 143.344 14.2H143.464L143.704 12.304H146.224V25H143.704L143.464 23.08H143.344C142.976 23.752 142.416 24.28 141.664 24.664C140.928 25.032 140.096 25.216 139.168 25.216ZM140.056 23.128C140.856 23.128 141.552 22.944 142.144 22.576C142.752 22.192 143.192 21.664 143.464 20.992V16.312C143.192 15.64 142.752 15.12 142.144 14.752C141.552 14.384 140.856 14.2 140.056 14.2C139.368 14.2 138.768 14.328 138.256 14.584C137.744 14.84 137.344 15.2 137.056 15.664C136.768 16.128 136.624 16.696 136.624 17.368V19.936C136.624 20.592 136.768 21.16 137.056 21.64C137.344 22.12 137.744 22.488 138.256 22.744C138.768 23 139.368 23.128 140.056 23.128ZM149.138 25V12.304H151.658L151.85 14.272H152.042C152.362 13.536 152.754 13 153.218 12.664C153.698 12.328 154.314 12.16 155.066 12.16H155.762L155.93 14.752H154.802C154.29 14.752 153.866 14.824 153.53 14.968C153.194 15.096 152.898 15.296 152.642 15.568C152.386 15.84 152.13 16.2 151.874 16.648V25H149.138ZM162.693 25.216C161.861 25.216 161.109 25.088 160.437 24.832C159.781 24.56 159.221 24.176 158.757 23.68C158.293 23.184 157.933 22.592 157.677 21.904C157.421 21.216 157.293 20.456 157.293 19.624V17.704C157.293 16.584 157.509 15.608 157.941 14.776C158.389 13.928 159.013 13.272 159.813 12.808C160.629 12.328 161.589 12.088 162.693 12.088C163.621 12.088 164.453 12.28 165.189 12.664C165.941 13.032 166.501 13.544 166.869 14.2H166.989V7.504H169.749V25H167.229L166.989 23.08H166.869C166.501 23.752 165.941 24.28 165.189 24.664C164.453 25.032 163.621 25.216 162.693 25.216ZM163.581 23.128C164.381 23.128 165.077 22.944 165.669 22.576C166.277 22.192 166.717 21.664 166.989 20.992V16.312C166.717 15.64 166.277 15.12 165.669 14.752C165.077 14.384 164.381 14.2 163.581 14.2C162.893 14.2 162.293 14.328 161.781 14.584C161.269 14.84 160.869 15.2 160.581 15.664C160.293 16.128 160.149 16.696 160.149 17.368V19.936C160.149 20.592 160.293 21.16 160.581 21.64C160.869 22.12 161.269 22.488 161.781 22.744C162.293 23 162.893 23.128 163.581 23.128Z" fill="#88E8FF"/>
<path d="M12.672 86V57.584H1.392V51.008H32.16V57.584H20.976V86H12.672ZM52.2649 86.528C49.6409 86.528 47.2569 86.16 45.1129 85.424C42.9689 84.688 41.1129 83.648 39.5449 82.304C38.0089 80.928 36.8249 79.28 35.9929 77.36C35.1609 75.44 34.7449 73.28 34.7449 70.88V66.128C34.7449 62.928 35.4649 60.176 36.9049 57.872C38.3769 55.536 40.4249 53.728 43.0489 52.448C45.7049 51.168 48.7769 50.528 52.2649 50.528C54.9209 50.528 57.3209 50.896 59.4649 51.632C61.6409 52.336 63.4969 53.376 65.0329 54.752C66.5689 56.096 67.7529 57.744 68.5849 59.696C69.4489 61.616 69.8809 63.76 69.8809 66.128V70.88C69.8809 74.08 69.1449 76.848 67.6729 79.184C66.2009 81.52 64.1369 83.328 61.4809 84.608C58.8569 85.888 55.7849 86.528 52.2649 86.528ZM52.2649 79.952C54.1529 79.952 55.7529 79.648 57.0649 79.04C58.4089 78.4 59.4329 77.52 60.1369 76.4C60.8729 75.248 61.2409 73.936 61.2409 72.464V64.544C61.2409 63.04 60.8729 61.728 60.1369 60.608C59.4009 59.488 58.3609 58.624 57.0169 58.016C55.7049 57.376 54.1209 57.056 52.2649 57.056C50.4729 57.056 48.9049 57.376 47.5609 58.016C46.2169 58.624 45.1769 59.488 44.4409 60.608C43.7049 61.728 43.3369 63.04 43.3369 64.544V72.464C43.3369 73.936 43.7049 75.248 44.4409 76.4C45.1769 77.52 46.2169 78.4 47.5609 79.04C48.9049 79.648 50.4729 79.952 52.2649 79.952ZM74.9561 86V51.008H91.6121C93.2121 51.008 94.6681 51.168 95.9801 51.488C97.3241 51.808 98.5081 52.288 99.5321 52.928C100.588 53.568 101.468 54.352 102.172 55.28C102.876 56.208 103.42 57.28 103.804 58.496C104.188 59.68 104.38 61.008 104.38 62.48C104.38 64.944 103.836 67.04 102.748 68.768C101.692 70.464 100.204 71.76 98.2841 72.656C96.3961 73.52 94.1561 73.952 91.5641 73.952H82.4921V67.568H90.7481C92.3161 67.568 93.5161 67.184 94.3481 66.416C95.2121 65.648 95.6441 64.608 95.6441 63.296V61.904C95.6441 60.496 95.2121 59.424 94.3481 58.688C93.4841 57.952 92.2841 57.584 90.7481 57.584H83.2601V86H74.9561ZM125.116 86V63.104H117.148V56.624H125.404L126.508 51.008H133.276V86H125.116ZM153.287 86.528C150.951 86.528 148.855 86.176 146.999 85.472C145.175 84.768 143.623 83.76 142.343 82.448C141.063 81.136 140.087 79.536 139.415 77.648C138.775 75.728 138.455 73.568 138.455 71.168V65.84C138.455 62.512 139.047 59.712 140.231 57.44C141.447 55.168 143.159 53.44 145.367 52.256C147.607 51.072 150.247 50.48 153.287 50.48C156.455 50.48 159.143 51.104 161.351 52.352C163.591 53.568 165.287 55.312 166.439 57.584C167.623 59.856 168.215 62.608 168.215 65.84V71.168C168.215 74.464 167.607 77.264 166.391 79.568C165.207 81.84 163.495 83.568 161.255 84.752C159.047 85.936 156.391 86.528 153.287 86.528ZM153.335 80.096C155.511 80.096 157.159 79.52 158.279 78.368C159.431 77.216 160.007 75.584 160.007 73.472V63.536C160.007 62.128 159.751 60.928 159.239 59.936C158.727 58.944 157.975 58.192 156.983 57.68C156.023 57.168 154.807 56.912 153.335 56.912C151.191 56.912 149.543 57.488 148.391 58.64C147.239 59.792 146.663 61.424 146.663 63.536V73.472C146.663 74.88 146.919 76.08 147.431 77.072C147.943 78.064 148.695 78.816 149.687 79.328C150.679 79.84 151.895 80.096 153.335 80.096ZM144.119 71.12V65.888H162.839V71.12H144.119Z" fill="url(#paint0_linear_5942_20914)"/>
<defs>
<linearGradient id="paint0_linear_5942_20914" x1="-3.24023e-07" y1="64.2941" x2="171" y2="64.2941" gradientUnits="userSpaceOnUse">
<stop stop-color="#6F06C1"/>
<stop offset="0.5" stop-color="#4EA4F9"/>
<stop offset="1" stop-color="#36D9FF"/>
</linearGradient>
</defs>
</svg>
