<svg xmlns="http://www.w3.org/2000/svg" width="109" height="138" fill="none" viewBox="0 0 109 138"><path fill="#982F0F" d="M54.5 0C24.4488 0 0 22.8751 0 50.993C0 78.2153 49.6848 134.435 51.7997 136.815C52.467 137.565 53.4563 138 54.5 138C55.5432 138 56.533 137.566 57.2003 136.815C59.3157 134.435 109 78.2153 109 50.993C109 22.8751 84.5516 0 54.5 0ZM54.5 129.5C50.0945 124.353 40.9411 113.386 31.8833 100.85C15.62 78.3411 7.02338 61.1007 7.02338 50.993C7.02338 26.4986 28.3215 6.57143 54.5 6.57143C80.6785 6.57143 101.977 26.4986 101.977 50.993C101.977 61.1003 93.3805 78.3406 77.1167 100.85C68.0584 113.386 58.9055 124.353 54.5 129.5Z"/><path fill="#982F0F" d="M54.4999 25.1904C38.622 25.1904 25.7041 37.277 25.7041 52.1333C25.7041 66.9895 38.622 79.0761 54.4999 79.0761C70.3779 79.0761 83.2958 66.9895 83.2958 52.1333C83.2958 37.277 70.3779 25.1904 54.4999 25.1904ZM54.4999 72.5047C42.4947 72.5047 32.7275 63.366 32.7275 52.1333C32.7275 40.9005 42.4947 31.7619 54.4999 31.7619C66.5057 31.7619 76.2724 40.9005 76.2724 52.1333C76.2724 63.366 66.5057 72.5047 54.4999 72.5047Z"/></svg>