<svg width="75" height="62" viewBox="0 0 75 62" fill="none" xmlns="http://www.w3.org/2000/svg">
<path d="M10.4999 2.85577C8.29989 5.03077 7.49989 6.71145 7.69989 8.39213C7.89989 10.1717 7.19989 11.5558 4.99989 13.2365C2.49989 15.2137 1.99989 16.4001 1.89989 20.4535C1.79989 23.024 1.39989 27.0774 0.999891 29.3512C0.299891 33.3058 0.399891 33.6024 3.39989 35.283L6.49989 37.0626V49.124C6.49989 59.8012 6.69989 61.2842 8.09989 61.2842C9.59989 61.2842 9.69989 59.999 9.09989 48.4319L8.39989 35.6785L12.6999 34.4921C15.3999 33.8001 17.8999 33.7012 19.4999 34.2944L21.9999 35.1842L21.7999 48.2342C21.4999 59.208 21.6999 61.2842 22.9999 61.2842C24.1999 61.2842 24.4999 59.0103 24.6999 49.2228C24.9999 38.5455 25.1999 37.0626 26.7999 36.766C28.2999 36.4694 28.4999 37.5569 28.4999 48.8274C28.4999 59.208 28.6999 61.2842 29.9999 61.2842C32.0999 61.2842 32.0999 36.4694 29.9999 28.1649C28.3999 21.8376 24.1999 16.7955 20.4999 16.7955C17.5999 16.7955 18.0999 18.0808 21.7999 19.7615C24.3999 20.9478 25.3999 22.3319 26.8999 26.9785C29.5999 35.0853 28.4999 35.5796 18.8999 30.6365L10.9999 26.583L15.4999 27.0774C17.9999 27.374 21.0999 27.9671 22.3999 28.2637C24.1999 28.758 24.6999 28.6592 24.2999 27.5717C24.0999 26.7808 21.2999 25.5944 18.2999 24.8035C13.1999 23.5183 12.4999 23.5183 10.0999 25.0012C6.69989 27.1762 6.79989 28.1649 10.5999 29.6478C14.2999 31.2296 13.3999 32.3171 7.79989 33.2069C3.59989 33.8001 3.49989 33.8001 3.49989 31.0319C3.49989 26.8796 4.59989 23.716 5.89989 23.716C6.89989 23.716 12.4999 18.1796 12.4999 17.191C12.4999 16.9933 11.3999 16.7955 9.99989 16.7955C8.19989 16.7955 7.49989 17.2899 7.49989 18.7728C7.49989 19.8603 6.79989 20.7501 5.99989 20.7501C3.79989 20.7501 4.19989 17.3887 6.49989 15.3126C8.29989 13.7308 8.89989 13.6319 12.4999 14.8183C15.4999 15.8069 17.0999 15.9058 18.9999 15.016C20.8999 14.1262 22.5999 14.324 27.0999 15.8069C30.2999 16.8944 32.9999 17.5865 33.2999 17.3887C34.2999 16.4001 32.1999 14.9171 27.6999 13.4342C23.0999 11.8524 22.8999 11.6546 23.2999 8.58986C23.7999 4.53645 21.1999 1.17509 16.7999 0.384178C14.0999 -0.110142 13.0999 0.285313 10.4999 2.85577ZM19.2999 4.141C20.7999 5.62395 20.7999 10.1717 19.2999 11.6546C16.1999 14.7194 10.4999 12.0501 10.4999 7.50236C10.4999 3.84441 16.5999 1.47168 19.2999 4.141Z" fill="black"/>
<path d="M32.2999 2.95469C28.6999 6.51378 28.9999 9.974 33.1999 13.632C40.3999 20.0581 49.8999 9.18309 42.9999 2.46037C39.6999 -0.900997 35.9999 -0.70327 32.2999 2.95469ZM41.2999 4.14105C41.9999 4.83309 42.4999 6.51378 42.4999 7.89787C42.4999 11.2592 40.7999 12.841 37.2999 12.841C33.1999 12.841 30.7999 7.00809 33.6999 4.14105C35.1999 2.65809 39.7999 2.65809 41.2999 4.14105Z" fill="black"/>
<path d="M54.3999 2.95463C52.0999 5.2285 51.3999 6.61259 51.6999 8.98531C51.9999 11.9512 51.6999 12.2478 47.2999 13.7308C44.5999 14.6205 42.5999 15.708 42.7999 16.3012C42.9999 17.3887 45.1999 17.191 50.3999 15.3126C52.9999 14.4228 54.6999 14.324 55.8999 15.016C57.5999 16.0046 60.6999 15.708 64.9999 14.324C67.4999 13.533 71.6999 17.0921 70.8999 19.2671C69.9999 21.3433 68.3999 21.1455 67.7999 18.7728C67.2999 16.6967 62.4999 15.8069 62.4999 17.7842C62.4999 18.2785 63.0999 18.7728 63.8999 18.7728C64.5999 18.7728 65.4999 19.6626 65.7999 20.849C66.0999 21.9365 67.1999 23.1228 68.2999 23.4194C69.4999 23.716 70.6999 25.3967 71.3999 27.7694C73.1999 33.7012 72.1999 34.4921 64.9999 32.416L60.9999 31.3285L64.2999 30.0433C68.2999 28.3626 68.3999 26.2865 64.4999 24.7046C62.0999 23.716 60.4999 23.716 56.6999 24.7046C54.0999 25.3967 51.5999 26.3853 51.0999 26.7808C49.2999 28.3626 51.2999 28.758 55.7999 27.6705C64.2999 25.4955 64.4999 27.1762 56.0999 31.0319C47.4999 35.0853 45.9999 34.7887 47.5999 29.2524C49.4999 22.6285 50.7999 20.6512 54.3999 19.0694C57.6999 17.5865 57.7999 17.3887 55.5999 16.9933C52.1999 16.4001 48.2999 19.7615 46.2999 24.9024C44.1999 30.6365 43.2999 61.2842 45.2999 61.2842C46.0999 61.2842 46.4999 59.5046 46.4999 55.5501C46.4999 44.9717 47.6999 36.5683 49.0999 36.5683C50.1999 36.5683 50.4999 39.1387 50.4999 48.9262C50.4999 59.7024 50.6999 61.2842 52.0999 61.2842C53.5999 61.2842 53.6999 59.8012 53.3999 48.2342L52.9999 35.1842L55.6999 34.1955C57.4999 33.6024 59.6999 33.6024 62.5999 34.4921L66.7999 35.7774L66.2999 48.5308C65.8999 58.0217 66.0999 61.2842 66.9999 61.2842C67.8999 61.2842 68.3999 57.7251 68.6999 49.3217C69.1999 37.6558 69.2999 37.2603 71.9999 35.1842C74.5999 33.108 74.6999 32.6137 74.0999 28.5603C73.6999 26.1876 73.3999 22.3319 73.3999 20.058C73.5999 16.499 73.0999 15.6092 70.4999 13.7308C68.1999 12.0501 67.4999 10.666 67.4999 8.29327C67.4999 5.92054 66.6999 4.43759 64.3999 2.55918C60.3999 -0.802185 57.9999 -0.703323 54.3999 2.95463ZM63.2999 4.141C63.9999 4.83304 64.4999 6.51373 64.4999 7.89782C64.4999 9.28191 63.9999 10.9626 63.2999 11.6546C62.5999 12.3467 60.8999 12.841 59.4999 12.841C58.0999 12.841 56.3999 12.3467 55.6999 11.6546C54.1999 10.1717 54.1999 5.62395 55.6999 4.141C57.1999 2.65804 61.7999 2.65804 63.2999 4.141Z" fill="black"/>
<path d="M14.5 54.858C14.5 58.516 14.9 61.2842 15.5 61.2842C16.1 61.2842 16.5 58.516 16.5 54.858C16.5 51.2001 16.1 48.4319 15.5 48.4319C14.9 48.4319 14.5 51.2001 14.5 54.858Z" fill="black"/>
<path d="M36.5 54.858C36.5 58.516 36.9 61.2842 37.5 61.2842C38.1 61.2842 38.5 58.516 38.5 54.858C38.5 51.2001 38.1 48.4319 37.5 48.4319C36.9 48.4319 36.5 51.2001 36.5 54.858Z" fill="black"/>
<path d="M58.5 54.858C58.5 59.9001 58.8 61.2842 60 61.2842C61.2 61.2842 61.5 59.9001 61.5 54.858C61.5 49.816 61.2 48.4319 60 48.4319C58.8 48.4319 58.5 49.816 58.5 54.858Z" fill="black"/>
</svg>
