<svg width="308" height="86" viewBox="0 0 308 86" fill="none" xmlns="http://www.w3.org/2000/svg">
<rect x="84.7457" y="20" width="46" height="46" rx="23" fill="#1890FF"/>
<path d="M119.94 46.5953C118.847 47.7882 117.506 48.526 115.883 48.5885C112.818 48.7063 110.445 46.9061 110.152 44.6538C109.567 40.1703 112.486 37.4112 115.683 37.4112C117.31 37.4112 118.521 38.0328 119.596 39.0293L122.401 35.8705C120.879 34.3661 118.538 33 115.683 33C112.919 33 110.432 33.914 108.546 35.6215V33.4076H94.6457V37.6873H103.44V44.4952C103.44 47.5861 102.263 48.5885 99.972 48.5885C98.4841 48.5885 96.9616 47.7186 95.6734 46.1089L92.7457 49.2749C94.7088 52.0211 97.6435 53 100.141 53C104.007 53 106.31 51.5884 107.501 49.4611C109.44 51.801 112.282 53 115.357 53C118.388 53 120.908 51.8625 122.746 49.6852L119.94 46.5953Z" fill="white"/>
<g clip-path="url(#clip0_19_12069)">
<path d="M140.746 49.3807L143.126 46.7839C144.171 48.1062 145.406 48.8209 146.616 48.8221C148.476 48.8221 149.433 48.0012 149.435 45.462L149.441 37.0813L142.299 37.074L142.302 33.5557L153.59 33.5646L153.581 45.8072C153.578 49.441 151.81 52.4471 146.751 52.4443C144.722 52.443 142.339 51.6382 140.746 49.3807Z" fill="#344054"/>
<path d="M156.59 43.0944C156.594 36.9495 160.434 33.3861 165.332 33.3901C167.651 33.3901 169.552 34.5145 170.788 35.7519L168.507 38.3455C167.635 37.5254 166.651 37.0139 165.33 37.0127C162.734 37.0127 160.836 39.2469 160.834 42.9596C160.831 46.7696 162.724 48.9821 165.483 48.9861C166.802 48.9861 167.891 48.331 168.779 47.3523L171.055 49.8915C169.563 51.6799 167.515 52.6119 165.054 52.6099C160.508 52.6042 156.585 49.3483 156.59 43.0944Z" fill="#344054"/>
<path d="M188.496 52.274L184.366 44.8543C186.319 43.9606 187.626 42.2342 187.628 39.5111C187.632 35.1014 184.445 33.734 180.571 33.7308L174.069 33.726L174.056 52.2616L178.203 52.2648L178.207 45.5972H180.381L183.866 52.2672L188.496 52.274ZM178.214 37.0587H180.231C182.406 37.0587 183.572 37.6765 183.571 39.5062C183.571 41.3207 182.402 42.268 180.227 42.2664H178.21L178.214 37.0587Z" fill="#344054"/>
<path d="M191.511 33.7274L203.633 33.7366L203.63 37.2537L195.647 37.2477L195.645 40.9652L202.427 40.9704L202.424 44.4875L195.642 44.4823L195.639 48.7479L203.902 48.7543L203.9 52.2726L191.496 52.263L191.511 33.7274Z" fill="#344054"/>
<path d="M218.866 52.2682L223.254 52.2718L217.573 33.7318L212.612 33.7282L206.902 52.2593L211.139 52.2626L212.258 47.8549L217.762 47.8589L218.866 52.2682ZM213.088 44.5869L213.524 42.8799C213.988 41.0288 214.498 38.8589 214.948 36.9032H215.06C215.499 38.8598 216.053 41.0316 216.515 42.8823L216.943 44.5901L213.088 44.5869Z" fill="#344054"/>
</g>
<defs>
<clipPath id="clip0_19_12069">
<rect width="82.5084" height="19.2197" fill="white" transform="translate(140.746 33.3901)"/>
</clipPath>
</defs>
</svg>
