<svg width="43" height="43" viewBox="0 0 43 43" fill="none" xmlns="http://www.w3.org/2000/svg">
<path d="M31.834 10.0621V11.3571L25.639 7.76959C23.294 6.42209 20.0215 6.42209 17.694 7.76959L11.499 11.3746V10.0621C11.499 6.12459 13.6515 3.95459 17.589 3.95459H25.744C29.6815 3.95459 31.834 6.12459 31.834 10.0621Z" fill="#7A5312"/>
<path d="M31.8865 14.402L31.6415 14.2795L29.2615 12.9145L24.3265 10.062C22.8215 9.18701 20.5115 9.18701 19.0065 10.062L14.0715 12.897L11.6915 14.297L11.3765 14.4545C8.314 16.5195 8.104 16.9045 8.104 20.212V28.122C8.104 31.4295 8.314 31.8145 11.4465 33.932L19.0065 38.2895C19.759 38.7445 20.704 38.937 21.6665 38.937C22.6115 38.937 23.574 38.727 24.3265 38.2895L31.9565 33.8795C35.0365 31.8145 35.229 31.447 35.229 28.122V20.212C35.229 16.9045 35.019 16.5195 31.8865 14.402ZM26.549 24.0795L25.4815 25.392C25.3065 25.5845 25.184 25.952 25.2015 26.2145L25.3065 27.8945C25.3765 28.927 24.6415 29.452 23.679 29.0845L22.1215 28.4545C21.8765 28.367 21.474 28.367 21.229 28.4545L19.6715 29.067C18.709 29.452 17.974 28.9095 18.044 27.877L18.149 26.197C18.1665 25.9345 18.044 25.567 17.869 25.3745L16.784 24.0795C16.119 23.292 16.4165 22.417 17.414 22.1545L19.0415 21.7345C19.304 21.6645 19.6015 21.4195 19.7415 21.2095L20.6515 19.8095C21.2115 18.9345 22.104 18.9345 22.6815 19.8095L23.5915 21.2095C23.7315 21.437 24.0465 21.6645 24.2915 21.7345L25.919 22.1545C26.9165 22.417 27.214 23.292 26.549 24.0795Z" fill="#7A5312"/>
</svg>
