<svg width="43" height="43" viewBox="0 0 43 43" fill="none" xmlns="http://www.w3.org/2000/svg">
<path d="M31.834 10.5167V11.8117L25.639 8.22418C23.294 6.87668 20.0215 6.87668 17.694 8.22418L11.499 11.8292V10.5167C11.499 6.57918 13.6515 4.40918 17.589 4.40918H25.744C29.6815 4.40918 31.834 6.57918 31.834 10.5167Z" fill="#FFC73B"/>
<path d="M31.8865 14.8566L31.6415 14.7341L29.2615 13.3691L24.3265 10.5166C22.8215 9.6416 20.5115 9.6416 19.0065 10.5166L14.0715 13.3516L11.6915 14.7516L11.3765 14.9091C8.314 16.9741 8.104 17.3591 8.104 20.6666V28.5766C8.104 31.8841 8.314 32.2691 11.4465 34.3866L19.0065 38.7441C19.759 39.1991 20.704 39.3916 21.6665 39.3916C22.6115 39.3916 23.574 39.1816 24.3265 38.7441L31.9565 34.3341C35.0365 32.2691 35.229 31.9016 35.229 28.5766V20.6666C35.229 17.3591 35.019 16.9741 31.8865 14.8566ZM26.549 24.5341L25.4815 25.8466C25.3065 26.0391 25.184 26.4066 25.2015 26.6691L25.3065 28.3491C25.3765 29.3816 24.6415 29.9066 23.679 29.5391L22.1215 28.9091C21.8765 28.8216 21.474 28.8216 21.229 28.9091L19.6715 29.5216C18.709 29.9066 17.974 29.3641 18.044 28.3316L18.149 26.6516C18.1665 26.3891 18.044 26.0216 17.869 25.8291L16.784 24.5341C16.119 23.7466 16.4165 22.8716 17.414 22.6091L19.0415 22.1891C19.304 22.1191 19.6015 21.8741 19.7415 21.6641L20.6515 20.2641C21.2115 19.3891 22.104 19.3891 22.6815 20.2641L23.5915 21.6641C23.7315 21.8916 24.0465 22.1191 24.2915 22.1891L25.919 22.6091C26.9165 22.8716 27.214 23.7466 26.549 24.5341Z" fill="#FFC73B"/>
</svg>
