<svg width="43" height="43" viewBox="0 0 43 43" fill="none" xmlns="http://www.w3.org/2000/svg">
<path d="M31.834 9.78938V11.0844L25.639 7.49688C23.294 6.14938 20.0215 6.14938 17.694 7.49688L11.499 11.1019V9.78938C11.499 5.85188 13.6515 3.68188 17.589 3.68188H25.744C29.6815 3.68188 31.834 5.85188 31.834 9.78938Z" fill="#D8D8D8"/>
<path d="M31.8865 14.1293L31.6415 14.0068L29.2615 12.6418L24.3265 9.78931C22.8215 8.91431 20.5115 8.91431 19.0065 9.78931L14.0715 12.6243L11.6915 14.0243L11.3765 14.1818C8.314 16.2468 8.104 16.6318 8.104 19.9393V27.8493C8.104 31.1568 8.314 31.5418 11.4465 33.6593L19.0065 38.0168C19.759 38.4718 20.704 38.6643 21.6665 38.6643C22.6115 38.6643 23.574 38.4543 24.3265 38.0168L31.9565 33.6068C35.0365 31.5418 35.229 31.1743 35.229 27.8493V19.9393C35.229 16.6318 35.019 16.2468 31.8865 14.1293ZM26.549 23.8068L25.4815 25.1193C25.3065 25.3118 25.184 25.6793 25.2015 25.9418L25.3065 27.6218C25.3765 28.6543 24.6415 29.1793 23.679 28.8118L22.1215 28.1818C21.8765 28.0943 21.474 28.0943 21.229 28.1818L19.6715 28.7943C18.709 29.1793 17.974 28.6368 18.044 27.6043L18.149 25.9243C18.1665 25.6618 18.044 25.2943 17.869 25.1018L16.784 23.8068C16.119 23.0193 16.4165 22.1443 17.414 21.8818L19.0415 21.4618C19.304 21.3918 19.6015 21.1468 19.7415 20.9368L20.6515 19.5368C21.2115 18.6618 22.104 18.6618 22.6815 19.5368L23.5915 20.9368C23.7315 21.1643 24.0465 21.3918 24.2915 21.4618L25.919 21.8818C26.9165 22.1443 27.214 23.0193 26.549 23.8068Z" fill="#D8D8D8"/>
</svg>
