<svg width="1441" height="147" viewBox="0 0 1441 147" fill="none" xmlns="http://www.w3.org/2000/svg">
<rect width="4866" height="63" transform="translate(-18.5002 84.252) rotate(-2.5)" fill="white"/>
<path d="M0.176797 131.068C-2.33643 131.177 -4.64853 130.7 -6.75951 129.635C-8.85487 128.569 -10.5319 127.054 -11.7906 125.092C-13.0499 123.114 -13.7338 120.884 -13.8422 118.402L-14.7336 97.9835L-10.355 97.7924L-9.46761 118.117C-9.35447 120.708 -8.40118 122.84 -6.60773 124.514C-4.79935 126.171 -2.59953 126.943 -0.00824453 126.83C2.59865 126.716 4.73063 125.755 6.3877 123.946C8.04409 122.122 8.81572 119.915 8.70258 117.323L7.8152 96.999L12.1704 96.8089L13.0619 117.227C13.1703 119.709 12.6834 121.99 11.6012 124.071C10.5184 126.135 8.9719 127.79 6.9618 129.036C4.9673 130.28 2.70564 130.957 0.176797 131.068ZM48.8848 128.355L43.4291 128.593L32.3186 115.377L22.4256 129.51L17.0401 129.745L29.215 112.533L15.7829 96.6512L21.2152 96.414L32.1567 109.52L41.8206 95.5143L47.2529 95.2771L35.2562 112.27L48.8848 128.355ZM75.6921 94.0355C78.8453 93.8978 81.7333 94.4911 84.3561 95.8155C86.9789 97.1398 89.0713 99.0348 90.6335 101.5C92.195 103.95 93.0435 106.728 93.1791 109.835C93.3148 112.941 92.7119 115.79 91.3706 118.383C90.0293 120.975 88.1099 123.045 85.6125 124.593C83.1152 126.141 80.2899 126.983 77.1366 127.121L64.3754 127.678L62.9308 94.5926L75.6921 94.0355ZM76.9099 123.002C80.4066 122.849 83.2817 121.535 85.5352 119.06C87.7887 116.584 88.8381 113.574 88.6834 110.031C88.5819 107.705 87.9513 105.621 86.7917 103.779C85.6471 101.921 84.1069 100.495 82.171 99.5002C80.2508 98.5049 78.1355 98.0577 75.8252 98.1586L67.5128 98.5215L68.5975 123.365L76.9099 123.002ZM122.456 112.896C122.467 113.131 122.454 113.741 122.419 114.728L101.369 115.647C101.884 117.783 102.983 119.479 104.664 120.735C106.361 121.974 108.387 122.543 110.744 122.44C112.493 122.363 114.085 121.926 115.52 121.129C116.955 120.315 118.06 119.305 118.836 118.098L121.776 120.41C120.615 122.118 119.072 123.492 117.146 124.53C115.237 125.567 113.111 126.137 110.77 126.239C106.945 126.406 103.707 125.312 101.055 122.957C98.4025 120.601 96.9964 117.59 96.8362 113.921C96.7326 111.548 97.1927 109.37 98.2165 107.386C99.2552 105.386 100.734 103.788 102.652 102.594C104.571 101.4 106.732 100.75 109.136 100.645C111.524 100.541 113.718 101.001 115.718 102.024C117.718 103.047 119.315 104.518 120.509 106.436C121.702 108.339 122.352 110.492 122.456 112.896ZM109.255 104.441C107.132 104.533 105.327 105.277 103.839 106.671C102.351 108.05 101.457 109.794 101.159 111.903L117.994 111.168C117.511 109.062 116.469 107.395 114.867 106.166C113.264 104.923 111.393 104.347 109.255 104.441ZM135.596 125.155C131.647 125.328 128.282 124.192 125.501 121.749L127.665 118.675C129.753 120.632 132.318 121.545 135.362 121.412C137.017 121.34 138.362 120.976 139.397 120.321C140.431 119.65 140.925 118.776 140.878 117.699C140.858 117.246 140.723 116.846 140.473 116.497C140.238 116.132 139.96 115.839 139.637 115.618C139.33 115.397 138.868 115.191 138.249 114.999C137.646 114.79 137.116 114.641 136.658 114.552C136.216 114.446 135.584 114.309 134.763 114.142C134.006 113.987 133.406 113.865 132.964 113.775C132.522 113.669 131.944 113.507 131.231 113.287C130.533 113.068 129.96 112.85 129.513 112.635C129.081 112.419 128.6 112.136 128.068 111.783C127.552 111.415 127.136 111.026 126.821 110.618C126.521 110.193 126.256 109.689 126.028 109.104C125.814 108.504 125.691 107.844 125.66 107.126C125.593 105.596 125.972 104.258 126.798 103.112C127.624 101.965 128.72 101.104 130.087 100.528C131.453 99.9369 132.995 99.6038 134.712 99.5288C138.24 99.3748 141.278 100.36 143.826 102.486L141.64 105.607C139.768 103.937 137.529 103.159 134.922 103.273C133.439 103.338 132.218 103.673 131.26 104.278C130.301 104.883 129.843 105.692 129.888 106.707C129.908 107.175 130.044 107.592 130.294 107.956C130.544 108.305 130.822 108.59 131.129 108.811C131.451 109.032 131.93 109.245 132.565 109.452C133.199 109.643 133.729 109.792 134.156 109.899C134.598 109.989 135.245 110.117 136.096 110.283C136.838 110.423 137.429 110.546 137.872 110.652C138.329 110.741 138.907 110.888 139.604 111.092C140.301 111.296 140.865 111.506 141.297 111.722C141.744 111.921 142.225 112.198 142.741 112.55C143.257 112.903 143.664 113.284 143.964 113.693C144.263 114.103 144.52 114.608 144.734 115.208C144.962 115.792 145.092 116.436 145.123 117.138C145.226 119.495 144.378 121.394 142.58 122.833C140.781 124.256 138.453 125.031 135.596 125.155ZM150.71 94.5137C149.914 94.5484 149.239 94.3198 148.686 93.8279C148.132 93.3203 147.838 92.6763 147.804 91.8958C147.77 91.0996 148.006 90.4324 148.515 89.8941C149.023 89.3558 149.675 89.0693 150.471 89.0345C151.252 89.0004 151.911 89.2297 152.448 89.7224C152.986 90.215 153.272 90.8594 153.307 91.6555C153.341 92.436 153.104 93.1032 152.597 93.6571C152.104 94.1948 151.475 94.4803 150.71 94.5137ZM149.931 123.943L148.863 99.4974L152.984 99.3175L154.052 123.763L149.931 123.943ZM175.722 123.45C178.048 123.349 179.985 123.851 181.535 124.956C183.085 126.061 184.021 127.623 184.344 129.643L180.13 130.929C180.036 129.838 179.529 128.977 178.61 128.345C177.707 127.727 176.561 127.449 175.172 127.509L166.157 127.903C164.127 127.992 162.457 127.525 161.146 126.503C159.85 125.48 159.164 124.111 159.089 122.393C159.039 121.238 159.257 120.15 159.744 119.127C160.246 118.089 160.955 117.292 161.869 116.736C160.764 115.799 159.886 114.679 159.235 113.379C158.6 112.077 158.249 110.661 158.182 109.131C158.05 106.103 159.001 103.536 161.036 101.429C163.086 99.3065 165.703 98.1757 168.888 98.0366C171.058 97.9419 173.079 98.3854 174.952 99.3671C175.129 98.0613 175.701 97.0041 176.666 96.1956C177.632 95.3871 178.856 94.9504 180.339 94.8857L182.213 94.8039L182.38 98.644L180.741 98.7156C179.851 98.7544 179.136 99.0359 178.596 99.5599C178.071 100.068 177.818 100.728 177.838 101.54C179.513 103.359 180.407 105.565 180.52 108.156C180.652 111.169 179.693 113.744 177.643 115.883C175.593 118.005 172.984 119.136 169.815 119.274C167.895 119.358 166.153 119.051 164.59 118.353C164.12 118.686 163.755 119.109 163.496 119.62C163.252 120.116 163.141 120.629 163.164 121.16C163.202 122.018 163.552 122.691 164.214 123.178C164.877 123.666 165.723 123.887 166.754 123.842L175.722 123.45ZM169.06 101.97C167.077 102.057 165.458 102.769 164.203 104.106C162.947 105.428 162.36 107.041 162.443 108.945C162.527 110.865 163.253 112.437 164.62 113.66C166.002 114.866 167.676 115.426 169.643 115.34C171.61 115.255 173.222 114.551 174.478 113.229C175.749 111.891 176.342 110.262 176.258 108.342C176.175 106.438 175.443 104.882 174.061 103.676C172.693 102.453 171.026 101.885 169.06 101.97ZM198.351 96.7503C201.332 96.6201 203.768 97.4208 205.658 99.1526C207.563 100.884 208.581 103.248 208.712 106.245L209.372 121.348L205.251 121.528L204.647 107.713C204.552 105.527 203.828 103.807 202.475 102.552C201.121 101.282 199.36 100.694 197.19 100.789C194.926 100.888 193.145 101.638 191.845 103.04C190.546 104.442 189.944 106.243 190.04 108.444L190.639 122.165L186.518 122.345L185.451 97.9L189.572 97.72L189.735 101.443C191.592 98.4842 194.464 96.92 198.351 96.7503Z" fill="black"/>
<path d="M243.883 87.3099L249.115 99.393L261.608 103.552L249.525 108.784L245.366 121.278L240.134 109.194L227.641 105.035L239.724 99.803L243.883 87.3099Z" fill="#1890FF"/>
<path d="M305.602 117.146L302.045 109.278L285.842 109.986L282.983 118.134L278.277 118.339L290.296 84.6657L295.541 84.4367L310.449 116.934L305.602 117.146ZM287.303 105.84L300.251 105.274L293.056 89.3075L287.303 105.84ZM326.761 91.1438C330.257 90.9911 333.23 92.089 335.678 94.4376C338.127 96.7862 339.431 99.779 339.589 103.416C339.748 107.053 338.71 110.148 336.476 112.701C334.241 115.254 331.376 116.607 327.879 116.76C325.881 116.847 324.043 116.49 322.366 115.687C320.688 114.869 319.292 113.702 318.178 112.187L318.768 125.697L314.647 125.877L313.182 92.3231L317.303 92.1432L317.495 96.5452C318.473 94.9386 319.762 93.6624 321.363 92.7166C322.963 91.7553 324.762 91.231 326.761 91.1438ZM326.932 112.813C329.446 112.703 331.501 111.769 333.097 110.01C334.694 108.251 335.437 106.115 335.328 103.602C335.218 101.089 334.291 99.0259 332.547 97.4129C330.803 95.8 328.675 95.0484 326.162 95.1581C323.664 95.2671 321.625 96.2007 320.044 97.9589C318.463 99.717 317.727 101.853 317.837 104.366C317.946 106.879 318.865 108.943 320.594 110.556C322.322 112.17 324.435 112.922 326.932 112.813ZM357.418 89.8052C360.914 89.6526 363.887 90.7505 366.335 93.0991C368.784 95.4476 370.088 98.4405 370.246 102.078C370.405 105.715 369.367 108.81 367.133 111.363C364.898 113.916 362.033 115.269 358.536 115.421C356.538 115.509 354.7 115.151 353.023 114.348C351.345 113.53 349.949 112.363 348.835 110.848L349.425 124.359L345.304 124.539L343.839 90.9846L347.96 90.8047L348.152 95.2067C349.13 93.6001 350.419 92.3238 352.02 91.3781C353.62 90.4168 355.419 89.8925 357.418 89.8052ZM357.59 111.475C360.103 111.365 362.158 110.431 363.754 108.672C365.351 106.913 366.095 104.777 365.985 102.264C365.875 99.7505 364.948 97.6874 363.204 96.0744C361.46 94.4615 359.332 93.7098 356.819 93.8196C354.321 93.9286 352.282 94.8622 350.701 96.6203C349.12 98.3785 348.384 100.514 348.494 103.027C348.603 105.541 349.522 107.604 351.251 109.218C352.979 110.831 355.092 111.584 357.59 111.475ZM398.383 79.9465C401.537 79.8088 404.425 80.4021 407.047 81.7265C409.67 83.0508 411.763 84.9458 413.325 87.4112C414.886 89.8611 415.735 92.6392 415.87 95.7456C416.006 98.852 415.403 101.701 414.062 104.294C412.721 106.886 410.801 108.956 408.304 110.504C405.807 112.052 402.981 112.894 399.828 113.032L387.067 113.589L385.622 80.5036L398.383 79.9465ZM399.601 108.913C403.098 108.76 405.973 107.446 408.227 104.971C410.48 102.495 411.529 99.4854 411.375 95.9419C411.273 93.616 410.643 91.5321 409.483 89.6903C408.338 87.8322 406.798 86.4059 404.862 85.4112C402.942 84.4159 400.827 83.9687 398.517 84.0696L390.204 84.4325L391.289 109.276L399.601 108.913ZM445.148 98.8074C445.158 99.0415 445.146 99.652 445.11 100.639L424.06 101.558C424.576 103.694 425.674 105.39 427.356 106.646C429.052 107.885 431.079 108.454 433.436 108.351C435.184 108.274 436.776 107.837 438.211 107.04C439.646 106.226 440.751 105.216 441.528 104.009L444.467 106.321C443.306 108.029 441.763 109.403 439.838 110.441C437.928 111.478 435.802 112.048 433.461 112.15C429.636 112.317 426.398 111.223 423.746 108.868C421.094 106.512 419.688 103.501 419.528 99.8322C419.424 97.4594 419.884 95.281 420.908 93.297C421.947 91.2966 423.425 89.6994 425.344 88.5052C427.262 87.311 429.423 86.6614 431.827 86.5565C434.216 86.4522 436.41 86.9116 438.409 87.9347C440.409 88.9578 442.006 90.4287 443.2 92.3471C444.394 94.25 445.043 96.4034 445.148 98.8074ZM431.946 90.3518C429.823 90.4444 428.018 91.188 426.53 92.5823C425.042 93.961 424.149 95.7048 423.85 97.8136L440.685 97.0785C440.202 94.9726 439.16 93.3055 437.558 92.0774C435.955 90.8336 434.085 90.2584 431.946 90.3518ZM458.288 111.066C454.338 111.239 450.973 110.103 448.192 107.66L450.357 104.586C452.444 106.543 455.01 107.456 458.054 107.323C459.708 107.251 461.053 106.887 462.088 106.232C463.122 105.561 463.616 104.687 463.569 103.61C463.549 103.157 463.414 102.757 463.165 102.408C462.93 102.043 462.651 101.75 462.329 101.529C462.022 101.308 461.559 101.102 460.941 100.91C460.337 100.701 459.807 100.552 459.349 100.463C458.907 100.357 458.275 100.22 457.455 100.053C456.697 99.8984 456.098 99.776 455.656 99.6858C455.213 99.58 454.635 99.4176 453.922 99.1985C453.224 98.9787 452.652 98.7613 452.204 98.5462C451.773 98.3305 451.291 98.0465 450.76 97.6944C450.243 97.3259 449.827 96.9374 449.512 96.5289C449.212 96.1041 448.948 95.5995 448.719 95.0152C448.505 94.4146 448.382 93.7552 448.351 93.0372C448.284 91.5074 448.664 90.1692 449.49 89.0228C450.315 87.8763 451.412 87.0151 452.778 86.4393C454.145 85.8479 455.686 85.5148 457.403 85.4398C460.931 85.2857 463.969 86.2714 466.517 88.3966L464.331 91.5184C462.46 89.8484 460.221 89.0703 457.614 89.1842C456.131 89.2489 454.91 89.5837 453.951 90.1886C452.992 90.7935 452.535 91.6033 452.579 92.618C452.599 93.0863 452.735 93.5026 452.985 93.8671C453.235 94.2159 453.514 94.5009 453.82 94.7221C454.143 94.9426 454.621 95.1563 455.256 95.3632C455.89 95.5545 456.42 95.7034 456.847 95.8098C457.289 95.9 457.936 96.0282 458.788 96.1943C459.529 96.334 460.121 96.4567 460.563 96.5625C461.021 96.652 461.598 96.7989 462.295 97.003C462.992 97.2072 463.557 97.4172 463.988 97.6329C464.435 97.8324 464.916 98.1085 465.432 98.4613C465.948 98.8142 466.356 99.1952 466.655 99.6044C466.954 100.014 467.211 100.519 467.425 101.119C467.654 101.703 467.783 102.347 467.814 103.049C467.917 105.406 467.069 107.305 465.271 108.744C463.472 110.167 461.144 110.942 458.288 111.066ZM473.402 80.4247C472.606 80.4594 471.931 80.2308 471.378 79.7389C470.824 79.2313 470.53 78.5873 470.496 77.8067C470.461 77.0106 470.698 76.3434 471.206 75.8051C471.714 75.2668 472.366 74.9803 473.162 74.9455C473.943 74.9114 474.602 75.1407 475.14 75.6334C475.677 76.126 475.963 76.7704 475.998 77.5665C476.032 78.347 475.796 79.0142 475.288 79.5681C474.795 80.1058 474.167 80.3913 473.402 80.4247ZM472.622 109.854L471.555 85.4084L475.676 85.2285L476.743 109.674L472.622 109.854ZM498.413 109.361C500.739 109.26 502.677 109.762 504.226 110.867C505.776 111.972 506.712 113.534 507.035 115.554L502.821 116.84C502.727 115.749 502.22 114.888 501.301 114.256C500.398 113.638 499.252 113.36 497.863 113.42L488.848 113.814C486.819 113.903 485.148 113.436 483.837 112.414C482.541 111.391 481.856 110.022 481.781 108.304C481.73 107.149 481.949 106.061 482.436 105.038C482.938 104 483.646 103.203 484.56 102.647C483.456 101.71 482.578 100.59 481.927 99.2895C481.291 97.9879 480.94 96.5722 480.873 95.0424C480.741 92.014 481.692 89.4466 483.727 87.3402C485.777 85.2175 488.395 84.0867 491.579 83.9476C493.749 83.8529 495.77 84.2964 497.643 85.2781C497.821 83.9723 498.392 82.9151 499.358 82.1066C500.323 81.2981 501.548 80.8614 503.031 80.7967L504.904 80.7149L505.072 84.555L503.433 84.6265C502.543 84.6654 501.828 84.9469 501.288 85.4709C500.762 85.9787 500.51 86.6388 500.53 87.4512C502.204 89.2705 503.098 91.4758 503.211 94.0671C503.343 97.0798 502.384 99.6553 500.335 101.794C498.285 103.916 495.675 105.047 492.506 105.185C490.586 105.269 488.845 104.962 487.282 104.264C486.811 104.597 486.447 105.02 486.187 105.531C485.943 106.027 485.833 106.54 485.856 107.071C485.893 107.929 486.243 108.602 486.906 109.089C487.568 109.577 488.415 109.798 489.445 109.753L498.413 109.361ZM491.751 87.8814C489.768 87.9679 488.15 88.6799 486.894 90.0171C485.638 91.3388 485.052 92.9519 485.135 94.8563C485.219 96.7763 485.944 98.3478 487.311 99.5705C488.693 100.777 490.368 101.337 492.335 101.251C494.302 101.166 495.913 100.462 497.169 99.1401C498.44 97.8022 499.034 96.1732 498.95 94.2531C498.867 92.3487 498.134 90.7932 496.752 89.5867C495.385 88.364 493.718 87.7955 491.751 87.8814ZM521.042 82.6613C524.024 82.5311 526.459 83.3318 528.349 85.0636C530.255 86.7946 531.273 89.1587 531.404 92.1558L532.063 107.259L527.942 107.439L527.339 93.6236C527.243 91.4382 526.519 89.7181 525.166 88.4634C523.813 87.1931 522.051 86.6054 519.881 86.7001C517.618 86.7989 515.836 87.5492 514.537 88.951C513.237 90.3528 512.636 92.1542 512.732 94.3552L513.331 108.076L509.21 108.256L508.142 83.811L512.263 83.631L512.426 87.354C514.283 84.3952 517.155 82.831 521.042 82.6613Z" fill="black"/>
<path d="M566.575 73.2208L571.808 85.3039L584.301 89.4631L572.218 94.6953L568.059 107.188L562.826 95.1053L550.333 90.9462L562.416 85.714L566.575 73.2208Z" fill="#1890FF"/>
<path d="M615.166 70.4815C618.32 70.3439 621.208 70.9372 623.83 72.2616C626.453 73.5859 628.546 75.4808 630.108 77.9463C631.669 80.3961 632.518 83.1743 632.653 86.2807C632.789 89.3871 632.186 92.2364 630.845 94.8286C629.503 97.4209 627.584 99.4909 625.087 101.039C622.589 102.587 619.764 103.43 616.611 103.567L603.85 104.124L602.405 71.0387L615.166 70.4815ZM616.384 99.4482C619.881 99.2955 622.756 97.9813 625.009 95.5057C627.263 93.03 628.312 90.0205 628.158 86.477C628.056 84.151 627.425 82.0672 626.266 80.2254C625.121 78.3673 623.581 76.9409 621.645 75.9463C619.725 74.951 617.61 74.5038 615.299 74.6046L606.987 74.9676L608.072 99.8111L616.384 99.4482ZM657.604 77.2853L661.725 77.1054L662.792 101.551L658.671 101.731L658.479 97.3288C657.501 98.9354 656.204 100.22 654.589 101.182C652.988 102.128 651.188 102.644 649.19 102.731C646.895 102.831 644.787 102.368 642.866 101.342C640.943 100.3 639.409 98.8261 638.262 96.9211C637.13 94.9999 636.512 92.8451 636.408 90.4568C636.304 88.0684 636.732 85.8758 637.693 83.8789C638.668 81.8657 640.069 80.264 641.893 79.0739C643.718 77.8682 645.777 77.2152 648.072 77.115C650.07 77.0278 651.908 77.3933 653.586 78.2115C655.278 79.0134 656.682 80.1721 657.796 81.6874L657.604 77.2853ZM649.789 98.7169C652.287 98.6079 654.326 97.6743 655.907 95.9162C657.504 94.1573 658.247 92.0213 658.137 89.5081C658.028 86.9948 657.101 84.9317 655.357 83.3188C653.629 81.7051 651.516 80.9528 649.018 81.0619C646.505 81.1716 644.45 82.1059 642.853 83.8647C641.257 85.6235 640.513 87.7595 640.623 90.2728C640.733 92.786 641.659 94.8491 643.403 96.4621C645.147 98.075 647.276 98.8267 649.789 98.7169ZM677.131 101.511C673.182 101.684 669.816 100.548 667.035 98.1047L669.2 95.0308C671.287 96.9885 673.853 97.9009 676.897 97.768C678.552 97.6957 679.897 97.332 680.932 96.6769C681.966 96.0061 682.459 95.1322 682.412 94.0551C682.393 93.6024 682.258 93.2017 682.008 92.8529C681.773 92.4878 681.494 92.1949 681.172 91.9744C680.865 91.7532 680.403 91.5466 679.784 91.3547C679.181 91.1464 678.65 90.9975 678.193 90.908C677.75 90.8022 677.119 90.6656 676.298 90.4981C675.541 90.3435 674.941 90.2211 674.499 90.1309C674.057 90.0251 673.479 89.8627 672.765 89.6436C672.068 89.4238 671.495 89.2064 671.048 88.9913C670.616 88.7756 670.135 88.4916 669.603 88.1395C669.086 87.771 668.671 87.3825 668.356 86.974C668.056 86.5492 667.791 86.0446 667.562 85.4603C667.348 84.8597 667.226 84.2003 667.194 83.4823C667.128 81.9525 667.507 80.6143 668.333 79.4679C669.159 78.3214 670.255 77.4602 671.622 76.8844C672.988 76.293 674.53 75.9599 676.247 75.8849C679.775 75.7309 682.813 76.7165 685.361 78.8417L683.175 81.9635C681.303 80.2935 679.064 79.5155 676.457 79.6293C674.974 79.694 673.753 80.0288 672.794 80.6337C671.835 81.2386 671.378 82.0484 671.422 83.0631C671.443 83.5314 671.578 83.9478 671.829 84.3122C672.079 84.661 672.357 84.946 672.664 85.1672C672.986 85.3877 673.465 85.6014 674.099 85.8083C674.733 85.9996 675.264 86.1485 675.691 86.2549C676.133 86.3451 676.779 86.4733 677.631 86.6394C678.372 86.7791 678.964 86.9018 679.407 87.0076C679.864 87.0971 680.441 87.244 681.139 87.4481C681.836 87.6523 682.4 87.8623 682.832 88.078C683.278 88.2775 683.76 88.5536 684.275 88.9064C684.791 89.2593 685.199 89.6403 685.498 90.0495C685.798 90.4587 686.054 90.9636 686.268 91.5642C686.497 92.1486 686.627 92.7919 686.658 93.4944C686.76 95.8515 685.913 97.7497 684.114 99.1889C682.315 100.612 679.988 101.387 677.131 101.511ZM703.298 74.7038C706.279 74.5736 708.715 75.3744 710.605 77.1061C712.51 78.8371 713.528 81.2012 713.659 84.1984L714.319 99.3012L710.198 99.4811L709.594 85.6661C709.499 83.4807 708.775 81.7607 707.422 80.506C706.068 79.2357 704.307 78.6479 702.137 78.7427C699.873 78.8415 698.092 79.5918 696.792 80.9935C695.493 82.3953 694.891 84.1967 694.987 86.3977L695.587 100.119L691.465 100.299L689.958 65.7616L694.079 65.5816L694.688 79.5371C696.541 76.4846 699.411 74.8735 703.298 74.7038ZM732.807 73.4154C736.304 73.2627 739.277 74.3607 741.725 76.7092C744.174 79.0578 745.477 82.0506 745.636 85.6878C745.795 89.325 744.757 92.42 742.523 94.9731C740.288 97.5261 737.423 98.8789 733.926 99.0316C731.928 99.1188 730.09 98.7612 728.413 97.9586C726.735 97.1403 725.339 95.9736 724.225 94.4582L724.417 98.8603L720.296 99.0402L718.788 64.5028L722.909 64.3229L723.542 78.8169C724.52 77.2102 725.809 75.934 727.41 74.9883C729.01 74.0269 730.809 73.5026 732.807 73.4154ZM732.979 95.0848C735.493 94.975 737.548 94.0408 739.144 92.2819C740.741 90.5231 741.484 88.3871 741.375 85.8739C741.265 83.3606 740.338 81.2975 738.594 79.6846C736.85 78.0716 734.722 77.32 732.209 77.4297C729.711 77.5388 727.672 78.4723 726.091 80.2305C724.509 81.9886 723.774 84.1243 723.884 86.6375C723.993 89.1508 724.912 91.2142 726.641 92.8279C728.369 94.4415 730.482 95.1938 732.979 95.0848ZM762.429 97.7871C759.994 97.8935 757.753 97.4361 755.706 96.415C753.659 95.3783 752.023 93.9092 750.798 92.0077C749.589 90.0899 748.932 87.9368 748.827 85.5485C748.723 83.1601 749.19 80.9658 750.229 78.9654C751.283 76.9488 752.784 75.3427 754.734 74.1472C756.683 72.936 758.875 72.2772 761.31 72.1709C764.994 72.0101 768.131 73.1009 770.72 75.4433C773.324 77.785 774.706 80.7745 774.865 84.4116C775.024 88.0488 773.908 91.1473 771.517 93.7071C769.142 96.2663 766.113 97.6263 762.429 97.7871ZM762.255 93.8066C764.753 93.6975 766.792 92.7639 768.373 91.0058C769.97 89.247 770.713 87.1109 770.603 84.5977C770.494 82.0845 769.567 80.0214 767.823 78.4084C766.095 76.7948 763.982 76.0425 761.484 76.1515C758.971 76.2612 756.916 77.1955 755.319 78.9543C753.723 80.7132 752.979 82.8492 753.089 85.3624C753.199 87.8756 754.125 89.9387 755.869 91.5517C757.613 93.1647 759.742 93.9163 762.255 93.8066ZM799.275 71.0998L803.396 70.9199L804.463 95.3654L800.342 95.5453L800.15 91.1432C799.172 92.7499 797.876 94.0343 796.26 94.9963C794.659 95.942 792.859 96.4585 790.861 96.5458C788.567 96.6459 786.459 96.1828 784.537 95.1562C782.615 94.1141 781.08 92.6406 779.933 90.7356C778.802 88.8144 778.184 86.6596 778.079 84.2713C777.975 81.8829 778.403 79.6903 779.364 77.6934C780.34 75.6802 781.74 74.0785 783.565 72.8884C785.389 71.6827 787.448 71.0297 789.743 70.9295C791.741 70.8423 793.579 71.2078 795.257 72.026C796.95 72.8279 798.353 73.9866 799.467 75.5019L799.275 71.0998ZM791.46 92.5314C793.958 92.4224 795.997 91.4888 797.578 89.7307C799.175 87.9718 799.918 85.8358 799.809 83.3226C799.699 80.8093 798.772 78.7462 797.028 77.1333C795.3 75.5196 793.187 74.7673 790.689 74.8764C788.176 74.9861 786.121 75.9204 784.525 77.6792C782.928 79.438 782.184 81.574 782.294 84.0873C782.404 86.6005 783.331 88.6636 785.075 90.2766C786.818 91.8895 788.947 92.6412 791.46 92.5314ZM822.141 69.7027L822.96 69.6669L823.146 73.9285L822.327 73.9642C819.751 74.0767 817.747 74.9227 816.315 76.5024C814.897 78.0657 814.244 80.1274 814.356 82.6874L814.89 94.9102L810.769 95.0901L809.701 70.6446L813.822 70.4647L814.006 74.6794C815.792 71.5204 818.504 69.8615 822.141 69.7027ZM845.397 58.9749L849.518 58.795L851.026 93.3324L846.905 93.5123L846.713 89.1103C845.735 90.717 844.438 92.0013 842.822 92.9633C841.221 93.9091 839.422 94.4255 837.424 94.5128C835.129 94.613 833.021 94.1498 831.099 93.1233C829.177 92.0811 827.643 90.6076 826.496 88.7027C825.364 86.7815 824.746 84.6267 824.642 82.2383C824.538 79.85 824.966 77.6573 825.927 75.6604C826.902 73.6472 828.302 72.0455 830.127 70.8554C831.951 69.6497 834.011 68.9968 836.305 68.8966C838.304 68.8093 840.142 69.1748 841.819 69.993C843.512 70.795 844.916 71.9536 846.03 73.4689L845.397 58.9749ZM838.023 90.4985C840.52 90.3894 842.56 89.4558 844.141 87.6977C845.737 85.9389 846.481 83.8028 846.371 81.2896C846.261 78.7764 845.335 76.7133 843.591 75.1003C841.863 73.4867 839.75 72.7344 837.252 72.8434C834.739 72.9531 832.684 73.8874 831.087 75.6462C829.49 77.4051 828.747 79.5411 828.857 82.0543C828.966 84.5675 829.893 86.6306 831.637 88.2436C833.381 89.8566 835.51 90.6082 838.023 90.4985Z" fill="black"/>
<path d="M885.272 59.3062L890.504 71.3893L902.997 75.5485L890.914 80.7807L886.755 93.2738L881.523 81.1907L869.03 77.0315L881.113 71.7994L885.272 59.3062Z" fill="#1890FF"/>
<path d="M960.322 55.4117L964.888 55.2123L955.772 88.7591L951.323 88.9533L941.94 62.6422L934.909 89.67L930.46 89.8642L918.455 57.2396L923.115 57.0362L932.548 83.955L939.763 56.3093L943.674 56.1386L953.271 83.0502L960.322 55.4117ZM971.122 58.6937C970.326 58.7285 969.652 58.4999 969.098 58.0079C968.544 57.5003 968.25 56.8563 968.216 56.0758C968.182 55.2797 968.418 54.6124 968.927 54.0741C969.435 53.5358 970.087 53.2493 970.883 53.2145C971.664 53.1805 972.323 53.4097 972.86 53.9024C973.398 54.395 973.684 55.0394 973.719 55.8355C973.753 56.616 973.516 57.2832 973.009 57.8372C972.516 58.3748 971.887 58.6603 971.122 58.6937ZM970.343 88.1229L969.276 63.6774L973.397 63.4975L974.464 87.943L970.343 88.1229ZM992.095 62.2823L992.914 62.2465L993.1 66.5081L992.281 66.5439C989.705 66.6563 987.701 67.5024 986.268 69.082C984.851 70.6453 984.198 72.707 984.31 75.2671L984.843 87.4898L980.722 87.6697L979.655 63.2243L983.776 63.0443L983.96 67.2591C985.746 64.1 988.457 62.4411 992.095 62.2823ZM1020.12 73.7036C1020.13 73.9378 1020.12 74.5483 1020.08 75.5351L999.031 76.4542C999.546 78.59 1000.64 80.2859 1002.33 81.5419C1004.02 82.7815 1006.05 83.3499 1008.41 83.247C1010.15 83.1707 1011.75 82.7336 1013.18 81.9359C1014.62 81.1226 1015.72 80.1124 1016.5 78.9056L1019.44 81.217C1018.28 82.9256 1016.73 84.2989 1014.81 85.3369C1012.9 86.3744 1010.77 86.9442 1008.43 87.0464C1004.61 87.2134 1001.37 86.1192 998.716 83.7639C996.064 81.4086 994.658 78.3968 994.498 74.7284C994.394 72.3557 994.854 70.1773 995.878 68.1932C996.917 66.1929 998.396 64.5956 1000.31 63.4014C1002.23 62.2072 1004.39 61.5576 1006.8 61.4527C1009.19 61.3484 1011.38 61.8078 1013.38 62.831C1015.38 63.8541 1016.98 65.3249 1018.17 67.2434C1019.36 69.1462 1020.01 71.2997 1020.12 73.7036ZM1006.92 65.248C1004.79 65.3407 1002.99 66.0842 1001.5 67.4785C1000.01 68.8573 999.119 70.601 998.82 72.7098L1015.66 71.9748C1015.17 69.8688 1014.13 68.2018 1012.53 66.9736C1010.93 65.7298 1009.06 65.1546 1006.92 65.248ZM1033.08 54.0178C1030.46 54.1323 1029.2 55.4306 1029.31 57.9126L1029.45 61.0502L1036.5 60.7425L1036.66 64.4655L1029.61 64.7732L1030.52 85.4957L1026.4 85.6756L1025.49 64.9532L1021.04 65.1474L1020.88 61.4244L1025.33 61.2301L1025.18 57.8115C1025.08 55.4856 1025.61 53.6717 1026.77 52.3697C1027.93 51.0677 1029.69 50.3653 1032.05 50.2624C1033.6 50.1949 1035.02 50.4688 1036.33 51.0842L1036.49 54.737C1035.39 54.2064 1034.25 53.9667 1033.08 54.0178ZM1052.78 59.6326L1053.6 59.5968L1053.79 63.8584L1052.97 63.8942C1050.39 64.0066 1048.39 64.8527 1046.96 66.4323C1045.54 67.9956 1044.89 70.0573 1045 72.6173L1045.53 84.8401L1041.41 85.02L1040.34 60.5745L1044.46 60.3946L1044.65 64.6093C1046.43 61.4503 1049.15 59.7914 1052.78 59.6326ZM1076.48 58.9968L1080.6 58.8169L1081.67 83.2623L1077.55 83.4423L1077.35 79.0402C1076.38 80.6469 1075.08 81.9312 1073.46 82.8933C1071.86 83.839 1070.06 84.3555 1068.07 84.4427C1065.77 84.5429 1063.66 84.0797 1061.74 83.0532C1059.82 82.011 1058.28 80.5375 1057.14 78.6326C1056.01 76.7114 1055.39 74.5566 1055.28 72.1683C1055.18 69.7799 1055.61 67.5873 1056.57 65.5903C1057.54 63.5771 1058.94 61.9754 1060.77 60.7853C1062.59 59.5796 1064.65 58.9267 1066.95 58.8265C1068.95 58.7392 1070.78 59.1047 1072.46 59.9229C1074.15 60.7249 1075.56 61.8835 1076.67 63.3989L1076.48 58.9968ZM1068.66 80.4284C1071.16 80.3193 1073.2 79.3857 1074.78 77.6276C1076.38 75.8688 1077.12 73.7328 1077.01 71.2195C1076.9 68.7063 1075.98 66.6432 1074.23 65.0302C1072.5 63.4166 1070.39 62.6643 1067.89 62.7733C1065.38 62.8831 1063.33 63.8173 1061.73 65.5762C1060.13 67.335 1059.39 69.471 1059.5 71.9842C1059.61 74.4975 1060.54 76.5606 1062.28 78.1735C1064.02 79.7865 1066.15 80.5381 1068.66 80.4284ZM1116.08 56.6814C1118.89 56.5587 1121.17 57.3038 1122.91 58.9168C1124.67 60.5135 1125.61 62.7167 1125.73 65.5265L1126.42 81.3084L1122.3 81.4883L1121.66 66.8538C1121.58 64.9025 1120.92 63.3749 1119.7 62.2709C1118.5 61.1505 1116.92 60.6326 1114.99 60.7171C1112.99 60.8044 1111.41 61.4678 1110.24 62.7073C1109.08 63.9468 1108.54 65.55 1108.62 67.5169L1109.26 82.0577L1105.14 82.2377L1104.5 67.6032C1104.41 65.6519 1103.76 64.1243 1102.54 63.0202C1101.33 61.8999 1099.76 61.382 1097.83 61.4665C1095.83 61.5537 1094.25 62.2171 1093.08 63.4567C1091.91 64.6962 1091.37 66.2994 1091.46 68.2663L1092.09 82.8071L1087.97 82.987L1086.91 58.5416L1091.03 58.3616L1091.17 61.6632C1092.92 58.9908 1095.53 57.5786 1099.01 57.4266C1100.91 57.3435 1102.59 57.6924 1104.05 58.4733C1105.51 59.2542 1106.63 60.3861 1107.41 61.8689C1108.27 60.2833 1109.43 59.0438 1110.91 58.1503C1112.41 57.2562 1114.13 56.7665 1116.08 56.6814ZM1155.84 67.7778C1155.85 68.0119 1155.84 68.6224 1155.8 69.6093L1134.75 70.5284C1135.27 72.6642 1136.37 74.3601 1138.05 75.616C1139.75 76.8557 1141.77 77.4241 1144.13 77.3212C1145.88 77.2449 1147.47 76.8078 1148.91 76.0101C1150.34 75.1967 1151.45 74.1866 1152.22 72.9797L1155.16 75.2912C1154 76.9997 1152.46 78.373 1150.53 79.4111C1148.62 80.4485 1146.5 81.0184 1144.16 81.1206C1140.33 81.2876 1137.09 80.1934 1134.44 77.8381C1131.79 75.4828 1130.38 72.4709 1130.22 68.8026C1130.12 66.4298 1130.58 64.2514 1131.6 62.2674C1132.64 60.267 1134.12 58.6698 1136.04 57.4756C1137.96 56.2814 1140.12 55.6318 1142.52 55.5269C1144.91 55.4226 1147.1 55.882 1149.1 56.9051C1151.1 57.9283 1152.7 59.3991 1153.89 61.3175C1155.09 63.2204 1155.74 65.3738 1155.84 67.7778ZM1142.64 59.3222C1140.52 59.4149 1138.71 60.1584 1137.22 61.5527C1135.74 62.9314 1134.84 64.6752 1134.54 66.784L1151.38 66.0489C1150.9 63.943 1149.85 62.2759 1148.25 61.0478C1146.65 59.804 1144.78 59.2288 1142.64 59.3222Z" fill="black"/>
<path d="M1188.98 46.0459L1194.21 58.1291L1206.71 62.2882L1194.62 67.5204L1190.47 80.0136L1185.23 67.9304L1172.74 63.7713L1184.82 58.5391L1188.98 46.0459Z" fill="#1890FF"/>
<path d="M1239 76.9798C1236.48 77.0895 1234.17 76.6118 1232.06 75.5466C1229.96 74.4807 1228.29 72.9665 1227.03 71.0039C1225.77 69.0257 1225.09 66.7956 1224.98 64.3136L1224.09 43.8955L1228.46 43.7043L1229.35 64.0287C1229.47 66.62 1230.42 68.7523 1232.21 70.4257C1234.02 72.0828 1236.22 72.8547 1238.81 72.7416C1241.42 72.6278 1243.55 71.6667 1245.21 69.8583C1246.86 68.0343 1247.64 65.8267 1247.52 63.2354L1246.64 42.911L1250.99 42.7209L1251.88 63.1389C1251.99 65.6209 1251.5 67.9021 1250.42 69.9826C1249.34 72.0474 1247.79 73.7024 1245.78 74.9475C1243.79 76.1919 1241.53 76.8693 1239 76.9798ZM1266.45 75.7813C1262.5 75.9537 1259.13 74.8182 1256.35 72.3747L1258.51 69.3008C1260.6 71.2584 1263.17 72.1708 1266.21 72.0379C1267.87 71.9657 1269.21 71.602 1270.25 70.9469C1271.28 70.2761 1271.77 69.4022 1271.73 68.3251C1271.71 67.8724 1271.57 67.4716 1271.32 67.1228C1271.09 66.7577 1270.81 66.4649 1270.49 66.2444C1270.18 66.0232 1269.72 65.8166 1269.1 65.6246C1268.5 65.4164 1267.97 65.2675 1267.51 65.178C1267.07 65.0722 1266.43 64.9356 1265.61 64.7681C1264.86 64.6135 1264.26 64.4911 1263.81 64.4009C1263.37 64.2951 1262.79 64.1326 1262.08 63.9136C1261.38 63.6938 1260.81 63.4764 1260.36 63.2613C1259.93 63.0455 1259.45 62.7616 1258.92 62.4094C1258.4 62.041 1257.99 61.6525 1257.67 61.244C1257.37 60.8192 1257.11 60.3146 1256.88 59.7303C1256.66 59.1297 1256.54 58.4703 1256.51 57.7523C1256.44 56.2225 1256.82 54.8843 1257.65 53.7378C1258.47 52.5913 1259.57 51.7302 1260.94 51.1544C1262.3 50.563 1263.84 50.2298 1265.56 50.1549C1269.09 50.0008 1272.13 50.9864 1274.68 53.1117L1272.49 56.2334C1270.62 54.5635 1268.38 53.7854 1265.77 53.8992C1264.29 53.964 1263.07 54.2988 1262.11 54.9037C1261.15 55.5086 1260.69 56.3184 1260.74 57.3331C1260.76 57.8014 1260.89 58.2177 1261.14 58.5821C1261.39 58.931 1261.67 59.216 1261.98 59.4372C1262.3 59.6577 1262.78 59.8714 1263.41 60.0783C1264.05 60.2696 1264.58 60.4184 1265.01 60.5249C1265.45 60.6151 1266.09 60.7433 1266.95 60.9094C1267.69 61.0491 1268.28 61.1718 1268.72 61.2776C1269.18 61.3671 1269.76 61.5139 1270.45 61.7181C1271.15 61.9223 1271.71 62.1322 1272.15 62.348C1272.59 62.5474 1273.07 62.8236 1273.59 63.1764C1274.11 63.5292 1274.51 63.9103 1274.81 64.3195C1275.11 64.7287 1275.37 65.2336 1275.58 65.8342C1275.81 66.4185 1275.94 67.0619 1275.97 67.7644C1276.08 70.1215 1275.23 72.0197 1273.43 73.4588C1271.63 74.8824 1269.3 75.6566 1266.45 75.7813ZM1304.27 61.2973C1304.28 61.5315 1304.27 62.142 1304.23 63.1288L1283.18 64.0479C1283.7 66.1837 1284.8 67.8796 1286.48 69.1355C1288.17 70.3752 1290.2 70.9436 1292.56 70.8407C1294.31 70.7644 1295.9 70.3273 1297.33 69.5296C1298.77 68.7162 1299.87 67.7061 1300.65 66.4992L1303.59 68.8107C1302.43 70.5192 1300.89 71.8925 1298.96 72.9306C1297.05 73.968 1294.93 74.5379 1292.58 74.6401C1288.76 74.8071 1285.52 73.7129 1282.87 71.3576C1280.22 69.0023 1278.81 65.9905 1278.65 62.3221C1278.55 59.9493 1279.01 57.7709 1280.03 55.7869C1281.07 53.7866 1282.55 52.1893 1284.47 50.9951C1286.38 49.8009 1288.55 49.1513 1290.95 49.0464C1293.34 48.9421 1295.53 49.4015 1297.53 50.4246C1299.53 51.4478 1301.13 52.9186 1302.32 54.8371C1303.52 56.7399 1304.17 58.8933 1304.27 61.2973ZM1291.07 52.8417C1288.95 52.9344 1287.14 53.6779 1285.65 55.0722C1284.17 56.4509 1283.27 58.1947 1282.97 60.3035L1299.81 59.5684C1299.33 57.4625 1298.28 55.7954 1296.68 54.5673C1295.08 53.3235 1293.21 52.7483 1291.07 52.8417ZM1320.75 47.933L1321.57 47.8972L1321.75 52.1588L1320.94 52.1946C1318.36 52.307 1316.36 53.1531 1314.92 54.7327C1313.51 56.296 1312.85 58.3577 1312.96 60.9177L1313.5 73.1405L1309.38 73.3204L1308.31 48.8749L1312.43 48.695L1312.61 52.9097C1314.4 49.7507 1317.11 48.0918 1320.75 47.933ZM1357.04 71.2394L1346.59 58.5349L1341.74 58.7465L1342.31 71.8824L1337.91 72.0746L1336.47 38.989L1349.88 38.4032C1352.82 38.275 1355.31 39.128 1357.36 40.9622C1359.43 42.7957 1360.52 45.1486 1360.65 48.0208C1360.76 50.6902 1359.97 52.9925 1358.27 54.9278C1356.59 56.8468 1354.4 57.9589 1351.71 58.2642L1362.36 71.0073L1357.04 71.2394ZM1341.05 42.9178L1341.57 54.9064L1350.49 54.5169C1352.18 54.4433 1353.56 53.8122 1354.63 52.6236C1355.71 51.435 1356.21 49.9821 1356.13 48.265C1356.06 46.5479 1355.43 45.1441 1354.26 44.0536C1353.08 42.9631 1351.65 42.4547 1349.97 42.5283L1341.05 42.9178ZM1389.43 57.579C1389.44 57.8131 1389.43 58.4236 1389.4 59.4105L1368.35 60.3295C1368.86 62.4653 1369.96 64.1612 1371.64 65.4172C1373.34 66.6569 1375.37 67.2253 1377.72 67.1224C1379.47 67.046 1381.06 66.609 1382.5 65.8113C1383.93 64.9979 1385.04 63.9878 1385.81 62.7809L1388.75 65.0924C1387.59 66.8009 1386.05 68.1742 1384.12 69.2123C1382.21 70.2497 1380.09 70.8195 1377.75 70.9218C1373.92 71.0887 1370.68 69.9946 1368.03 67.6393C1365.38 65.284 1363.97 62.2721 1363.81 58.6037C1363.71 56.231 1364.17 54.0526 1365.19 52.0686C1366.23 50.0682 1367.71 48.471 1369.63 47.2768C1371.55 46.0826 1373.71 45.433 1376.11 45.328C1378.5 45.2238 1380.7 45.6832 1382.7 46.7063C1384.7 47.7294 1386.29 49.2002 1387.49 51.1187C1388.68 53.0216 1389.33 55.175 1389.43 57.579ZM1376.23 49.1233C1374.11 49.216 1372.3 49.9595 1370.82 51.3539C1369.33 52.7326 1368.44 54.4764 1368.14 56.5852L1384.97 55.8501C1384.49 53.7442 1383.45 52.0771 1381.84 50.8489C1380.24 49.6052 1378.37 49.03 1376.23 49.1233ZM1402.57 69.8378C1398.62 70.0102 1395.26 68.8747 1392.48 66.4312L1394.64 63.3573C1396.73 65.3149 1399.3 66.2273 1402.34 66.0944C1404 66.0222 1405.34 65.6585 1406.37 65.0034C1407.41 64.3326 1407.9 63.4587 1407.86 62.3816C1407.84 61.9289 1407.7 61.5281 1407.45 61.1793C1407.22 60.8142 1406.94 60.5214 1406.62 60.3009C1406.31 60.0797 1405.85 59.8731 1405.23 59.6812C1404.62 59.4729 1404.09 59.324 1403.64 59.2345C1403.19 59.1287 1402.56 58.9921 1401.74 58.8246C1400.98 58.67 1400.38 58.5476 1399.94 58.4574C1399.5 58.3516 1398.92 58.1891 1398.21 57.9701C1397.51 57.7503 1396.94 57.5329 1396.49 57.3178C1396.06 57.102 1395.58 56.8181 1395.05 56.4659C1394.53 56.0975 1394.11 55.709 1393.8 55.3005C1393.5 54.8757 1393.23 54.3711 1393.01 53.7868C1392.79 53.1862 1392.67 52.5268 1392.64 51.8088C1392.57 50.279 1392.95 48.9408 1393.78 47.7943C1394.6 46.6479 1395.7 45.7867 1397.07 45.2109C1398.43 44.6195 1399.97 44.2863 1401.69 44.2114C1405.22 44.0573 1408.26 45.0429 1410.8 47.1682L1408.62 50.2899C1406.75 48.62 1404.51 47.8419 1401.9 47.9557C1400.42 48.0205 1399.2 48.3553 1398.24 48.9602C1397.28 49.5651 1396.82 50.3749 1396.87 51.3896C1396.89 51.8579 1397.02 52.2742 1397.27 52.6386C1397.52 52.9875 1397.8 53.2725 1398.11 53.4937C1398.43 53.7142 1398.91 53.9279 1399.54 54.1348C1400.18 54.3261 1400.71 54.4749 1401.13 54.5814C1401.58 54.6716 1402.22 54.7998 1403.07 54.9659C1403.82 55.1056 1404.41 55.2283 1404.85 55.3341C1405.31 55.4236 1405.88 55.5704 1406.58 55.7746C1407.28 55.9788 1407.84 56.1887 1408.27 56.4045C1408.72 56.6039 1409.2 56.8801 1409.72 57.2329C1410.23 57.5858 1410.64 57.9668 1410.94 58.376C1411.24 58.7852 1411.5 59.2901 1411.71 59.8907C1411.94 60.475 1412.07 61.1184 1412.1 61.8209C1412.2 64.178 1411.36 66.0762 1409.56 67.5154C1407.76 68.9389 1405.43 69.7131 1402.57 69.8378ZM1440.4 55.3538C1440.41 55.588 1440.4 56.1985 1440.36 57.1853L1419.31 58.1044C1419.83 60.2402 1420.93 61.9361 1422.61 63.192C1424.3 64.4317 1426.33 65.0001 1428.69 64.8972C1430.44 64.8209 1432.03 64.3838 1433.46 63.5861C1434.9 62.7727 1436 61.7626 1436.78 60.5557L1439.72 62.8672C1438.56 64.5757 1437.01 65.949 1435.09 66.9871C1433.18 68.0245 1431.05 68.5944 1428.71 68.6966C1424.89 68.8636 1421.65 67.7694 1419 65.4141C1416.35 63.0588 1414.94 60.047 1414.78 56.3786C1414.68 54.0058 1415.14 51.8274 1416.16 49.8434C1417.2 47.8431 1418.68 46.2458 1420.59 45.0516C1422.51 43.8574 1424.67 43.2078 1427.08 43.1029C1429.47 42.9986 1431.66 43.458 1433.66 44.4811C1435.66 45.5043 1437.26 46.9751 1438.45 48.8936C1439.64 50.7964 1440.29 52.9498 1440.4 55.3538ZM1427.2 46.8982C1425.07 46.9909 1423.27 47.7344 1421.78 49.1287C1420.29 50.5074 1419.4 52.2512 1419.1 54.36L1435.94 53.6249C1435.45 51.519 1434.41 49.8519 1432.81 48.6238C1431.21 47.38 1429.34 46.8048 1427.2 46.8982ZM1464.67 42.0481L1468.79 41.8682L1469.86 66.3137L1465.74 66.4936L1465.54 62.0916C1464.57 63.6982 1463.27 64.9826 1461.65 65.9446C1460.05 66.8903 1458.25 67.4068 1456.25 67.4941C1453.96 67.5942 1451.85 67.1311 1449.93 66.1045C1448.01 65.0624 1446.47 63.5889 1445.33 61.6839C1444.2 59.7627 1443.58 57.6079 1443.47 55.2196C1443.37 52.8312 1443.8 50.6386 1444.76 48.6417C1445.73 46.6285 1447.13 45.0268 1448.96 43.8367C1450.78 42.631 1452.84 41.978 1455.14 41.8778C1457.13 41.7906 1458.97 42.1561 1460.65 42.9743C1462.34 43.7762 1463.75 44.9349 1464.86 46.4502L1464.67 42.0481ZM1456.85 63.4797C1459.35 63.3707 1461.39 62.4371 1462.97 60.679C1464.57 58.9201 1465.31 56.7841 1465.2 54.2709C1465.09 51.7576 1464.17 49.6945 1462.42 48.0816C1460.69 46.4679 1458.58 45.7156 1456.08 45.8247C1453.57 45.9344 1451.51 46.8687 1449.92 48.6275C1448.32 50.3863 1447.58 52.5223 1447.69 55.0356C1447.8 57.5488 1448.72 59.6119 1450.47 61.2249C1452.21 62.8378 1454.34 63.5895 1456.85 63.4797ZM1487.53 40.651L1488.35 40.6152L1488.54 44.8768L1487.72 44.9125C1485.14 45.025 1483.14 45.871 1481.71 47.4507C1480.29 49.014 1479.64 51.0757 1479.75 53.6357L1480.28 65.8585L1476.16 66.0384L1475.09 41.5929L1479.22 41.413L1479.4 45.6277C1481.19 42.4687 1483.9 40.8098 1487.53 40.651ZM1503.54 65.4294C1501.11 65.5357 1498.87 65.0783 1496.82 64.0573C1494.77 63.0206 1493.14 61.5515 1491.91 59.65C1490.7 57.7322 1490.05 55.5791 1489.94 53.1907C1489.84 50.8024 1490.3 48.608 1491.34 46.6077C1492.4 44.5911 1493.9 42.985 1495.85 41.7894C1497.8 40.5782 1499.99 39.9195 1502.42 39.8132C1504.83 39.7082 1507.04 40.167 1509.05 41.1894C1511.07 42.1962 1512.67 43.6199 1513.86 45.4603L1510.37 47.7709C1509.57 46.4768 1508.47 45.4766 1507.1 44.7703C1505.72 44.0484 1504.22 43.7229 1502.6 43.7938C1500.09 43.9035 1498.03 44.8378 1496.43 46.5966C1494.84 48.3554 1494.09 50.4914 1494.2 53.0047C1494.31 55.5179 1495.24 57.581 1496.98 59.194C1498.73 60.8069 1500.86 61.5585 1503.37 61.4488C1504.99 61.3779 1506.46 60.9229 1507.77 60.0838C1509.08 59.2447 1510.08 58.1453 1510.77 56.7858L1514.44 58.7836C1513.42 60.7364 1511.94 62.3102 1510 63.5051C1508.09 64.6837 1505.93 65.3251 1503.54 65.4294ZM1530.81 38.5738C1533.79 38.4437 1536.23 39.2444 1538.12 40.9761C1540.02 42.7072 1541.04 45.0713 1541.17 48.0684L1541.83 63.1712L1537.71 63.3511L1537.11 49.5362C1537.01 47.3507 1536.29 45.6307 1534.93 44.376C1533.58 43.1057 1531.82 42.5179 1529.65 42.6127C1527.39 42.7115 1525.6 43.4618 1524.31 44.8636C1523.01 46.2653 1522.4 48.0667 1522.5 50.2678L1523.1 63.9891L1518.98 64.169L1517.47 29.6316L1521.59 29.4517L1522.2 43.4071C1524.05 40.3546 1526.92 38.7435 1530.81 38.5738Z" fill="black"/>
</svg>
